<svg id="fblmSvg" xmlns="http://www.w3.org/2000/svg" version="1.1"
width="512pt" height="512pt"
viewBox="0 0 512 512">
<path id="fblmBackground" fill="#102030"
d="M 0 0   L 512 0   L 512 512   L 0 512 z"/>
<path id="fblmForeground" fill="#f0e0d0"
fill-rule="evenodd"
d=" M 115.5 5.32692
 L 115.154 5.5
 L 114.5 5.9359
 L 113.936 6.5
 L 113.654 7.5
 L 114.154 8.5
 L 114.5 8.84615
 L 115.808 9.5
 L 116.808 10.5
 L 117.154 11.5
 L 117.154 12.5
 L 117.5 12.7308
 L 118.5 12.8462
 L 119.192 12.5
 L 119.5 12.1923
 L 119.846 11.5
 L 120.192 10.5
 L 120.5 10.1923
 L 121.846 7.5
 L 122.192 6.5
 L 121.192 5.5
 L 118.5 4.82692
 L 117.5 4.82692
 L 116.5 4.96154
 z
 M 101.5 22.3269
 L 101.154 22.5
 L 100.654 23.5
 L 100.654 24.5
 L 100.603 25.5
 L 100.654 26.5
 L 101.5 27.3462
 L 101.808 27.5
 L 102.5 27.7308
 L 103.5 28.3462
 L 103.808 28.5
 L 104.808 29.5
 L 103.5 30.8077
 L 102.654 32.5
 L 102.654 33.5
 L 103.154 34.5
 L 104.154 35.5
 L 104.154 36.5
 L 103.654 37.5
 L 101.654 39.5
 L 101.5 39.8077
 L 101.269 40.5
 L 101.162 41.5
 L 101.162 42.5
 L 101.077 43.5
 L 100.327 44.5
 L 99.5 45.1615
 L 98.9359 45.5
 L 97.6026 46.5
 L 97.5 46.6026
 L 96.8269 47.5
 L 96.3269 48.5
 L 95.5 49.3269
 L 95.3615 49.5
 L 93.5 50.8297
 L 92.5 51.4011
 L 92.2692 51.5
 L 90.5 52.3846
 L 90.3269 52.5
 L 89.5 53.1615
 L 88.5 53.7615
 L 87.5 54.1615
 L 86.5 54.3846
 L 86.2692 54.5
 L 85.5 54.9615
 L 84.5 55.3846
 L 84.3269 55.5
 L 82.5 56.9615
 L 81.5 57.5615
 L 80.5 58.0513
 L 79.5 58.3846
 L 79.2692 58.5
 L 76.5 60.1615
 L 74.8269 61.5
 L 74.5 61.8269
 L 73.5 62.5769
 L 71.5 64.1615
 L 70.6538 64.5
 L 70.5 64.5769
 L 69.5 65.1615
 L 69.0769 65.5
 L 68.0769 66.5
 L 67.3269 67.5
 L 66.6026 68.5
 L 66.2692 69.5
 L 65.8269 70.5
 L 65.3269 71.5
 L 64.9359 72.5
 L 64.5 73.8077
 L 64.3269 74.5
 L 63.9615 75.5
 L 63.5 77.8077
 L 63.3269 78.5
 L 63.1615 79.5
 L 63.3269 80.5
 L 63.5769 81.5
 L 63.0769 83.5
 L 62.5769 84.5
 L 62.5 84.6026
 L 62.0513 85.5
 L 61.5 86.3269
 L 61.3615 86.5
 L 60.8846 87.5
 L 60.3846 88.5
 L 60.1615 89.5
 L 59.3615 91.5
 L 59.0769 92.5
 L 58.8269 93.5
 L 58.7615 94.5
 L 58.7615 98.5
 L 58.5769 99.5
 L 58.3269 100.5
 L 58.3269 101.5
 L 58.5 102.192
 L 58.6538 102.5
 L 58.6538 103.5
 L 58.8269 104.5
 L 58.8269 107.5
 L 58.5769 108.5
 L 58.5 108.654
 L 57.5 110.154
 L 57.3615 110.5
 L 56.9615 112.5
 L 56.9615 113.5
 L 57.1615 114.5
 L 57.3846 115.5
 L 57.5 116.192
 L 57.5769 116.5
 L 57.6026 117.5
 L 57.9359 118.5
 L 58.5 119.346
 L 58.5769 119.5
 L 58.8269 120.5
 L 58.9359 121.5
 L 58.8269 122.5
 L 58.8269 123.5
 L 58.9615 124.5
 L 59.0513 125.5
 L 59.0513 127.5
 L 58.8846 128.5
 L 58.8846 129.5
 L 58.3846 132.5
 L 58.1154 133.5
 L 57.9725 134.5
 L 57.7179 135.5
 L 57.5 136.154
 L 57.3615 136.5
 L 56.5769 137.5
 L 55.8269 138.5
 L 54.8269 139.5
 L 54.5769 140.5
 L 54.8269 141.5
 L 54.8846 142.5
 L 54.8297 143.5
 L 54.6635 144.5
 L 54.4135 145.5
 L 53.9135 146.5
 L 53.5 147.162
 L 53.2582 147.5
 L 52.5 148.385
 L 51.1615 149.5
 L 50.5 150.162
 L 50.2582 150.5
 L 49.6868 151.5
 L 49.2582 152.5
 L 48.5 153.385
 L 48.3269 153.5
 L 47.5 153.973
 L 46.5 154.288
 L 45.6538 154.5
 L 45.5 154.551
 L 44.5 154.962
 L 43.5 155.327
 L 42.5 155.827
 L 41.8269 156.5
 L 41.5 156.936
 L 41.1615 157.5
 L 40.7615 158.5
 L 40.5615 159.5
 L 40.5615 160.5
 L 40.5 160.808
 L 40.0769 162.5
 L 40.5 163.346
 L 40.6026 163.5
 L 42.2692 164.5
 L 42.5 164.615
 L 43.5 164.949
 L 44.5 165.17
 L 45.5 165.337
 L 46.5 165.462
 L 47.5 165.466
 L 48.5 165.462
 L 49.5 165.355
 L 50.5 165.337
 L 51.5 165.355
 L 52.1538 165.5
 L 52.5 165.546
 L 53.5 165.668
 L 54.5 165.816
 L 55.5 165.935
 L 56.5 165.985
 L 57.5 165.985
 L 58.5 165.957
 L 59.5 165.981
 L 60.5 166.079
 L 61.5 166.308
 L 62.0769 166.5
 L 62.5 166.606
 L 63.5 166.668
 L 64.5 166.658
 L 65.5 166.658
 L 66.5 166.813
 L 67.5 167.092
 L 68.2582 167.5
 L 68.5 167.621
 L 69.5 168.058
 L 70.5 168.469
 L 70.6026 168.5
 L 71.5 168.745
 L 72.5 168.91
 L 73.5 168.91
 L 75.5 168.688
 L 76.5 168.688
 L 78.5 168.91
 L 79.5 169.087
 L 80.5 169.212
 L 81.6538 169.5
 L 82.5 169.782
 L 83.5 170.038
 L 84.2692 170.5
 L 84.5 170.615
 L 85.5 170.782
 L 86.5 170.885
 L 88.5 171.17
 L 89.2692 171.5
 L 89.5 171.615
 L 90.5 172.038
 L 91.5 172.115
 L 92.5 171.782
 L 92.9231 171.5
 L 94.6731 170.5
 L 95.5 170.087
 L 96.5 169.837
 L 97.5 169.962
 L 98.5 170.132
 L 100.154 170.5
 L 100.5 170.587
 L 101.5 171.212
 L 101.83 171.5
 L 102.5 172.282
 L 102.631 172.5
 L 103.073 173.5
 L 103.359 174.5
 L 103.692 175.5
 L 104.073 176.5
 L 104.5 177.438
 L 104.531 177.5
 L 105.073 178.5
 L 106.437 181.5
 L 106.5 181.615
 L 107.37 183.5
 L 107.908 184.5
 L 108.379 185.5
 L 108.736 186.5
 L 109.054 187.5
 L 109.332 188.5
 L 109.5 189.038
 L 109.654 189.5
 L 110.457 191.5
 L 110.5 191.599
 L 110.951 192.5
 L 111.808 194.5
 L 112.054 195.5
 L 112.254 196.5
 L 112.321 197.5
 L 112.321 198.5
 L 112.269 199.5
 L 112.321 200.5
 L 112.394 201.5
 L 112.457 202.5
 L 112.4 203.5
 L 112.184 205.5
 L 112.128 206.5
 L 112.128 208.5
 L 112.184 209.5
 L 112.283 210.5
 L 112.342 211.5
 L 112.459 212.5
 L 112.521 213.5
 L 112.521 214.5
 L 112.459 215.5
 L 112.342 216.5
 L 112.283 217.5
 L 112.283 218.5
 L 112.295 219.5
 L 112.411 221.5
 L 112.5 223.192
 L 112.519 223.5
 L 112.4 225.5
 L 112.144 227.5
 L 112.054 228.5
 L 111.987 229.5
 L 111.879 230.5
 L 111.736 231.5
 L 111.121 234.5
 L 110.985 235.5
 L 110.678 237.5
 L 110.5 237.962
 L 110.255 238.5
 L 109.731 239.5
 L 109.5 239.885
 L 109.038 240.5
 L 108.413 241.5
 L 107.868 242.5
 L 107.5 243.327
 L 107.437 243.5
 L 107.164 244.5
 L 106.931 245.5
 L 106.859 246.5
 L 106.859 247.5
 L 106.692 249.5
 L 106.619 250.5
 L 106.692 251.5
 L 106.801 252.5
 L 106.983 253.5
 L 107.192 254.5
 L 107.447 255.5
 L 107.5 255.673
 L 107.801 256.5
 L 108.192 257.5
 L 108.526 258.5
 L 108.808 259.5
 L 109.522 261.5
 L 110.5 263.949
 L 110.754 264.5
 L 111.276 265.5
 L 111.5 265.885
 L 111.931 266.5
 L 112.5 267.449
 L 113.5 268.615
 L 114.5 269.456
 L 114.562 269.5
 L 115.5 270.282
 L 117.5 271.615
 L 118.5 272.115
 L 119.077 272.5
 L 119.5 272.742
 L 120.5 273.449
 L 120.562 273.5
 L 121.5 274.17
 L 121.885 274.5
 L 122.5 275.115
 L 122.788 275.5
 L 123.423 276.5
 L 123.5 276.638
 L 124.346 278.5
 L 124.5 278.782
 L 124.931 279.5
 L 125.831 280.5
 L 126.5 281.108
 L 127.038 281.5
 L 127.5 281.91
 L 128.385 282.5
 L 128.5 282.599
 L 129.5 283.282
 L 129.827 283.5
 L 130.577 284.5
 L 130.827 285.5
 L 130.936 286.5
 L 131.269 287.5
 L 131.5 287.731
 L 132.077 288.5
 L 134.077 290.5
 L 134.5 291.346
 L 134.603 291.5
 L 134.5 291.577
 L 133.5 292.162
 L 132.936 292.5
 L 132.5 292.609
 L 131.5 292.754
 L 129.5 292.908
 L 128.5 293.062
 L 127.5 293.254
 L 126.5 293.457
 L 126.327 293.5
 L 125.5 293.674
 L 124.5 293.779
 L 123.5 293.865
 L 120.5 293.715
 L 119.5 293.705
 L 116.5 293.848
 L 115.5 293.923
 L 114.5 293.992
 L 113.5 294.096
 L 112.5 294.232
 L 111.5 294.435
 L 111.218 294.5
 L 110.5 294.739
 L 109.5 295.115
 L 108.645 295.5
 L 108.5 295.619
 L 107.5 296.293
 L 107.163 296.5
 L 106.718 297.5
 L 107.5 298.438
 L 107.603 298.5
 L 108.5 298.769
 L 109.5 299.017
 L 111.5 299.563
 L 112.5 299.869
 L 113.5 300.199
 L 114.327 300.5
 L 114.5 300.577
 L 115.5 300.91
 L 116.5 301.132
 L 117.5 301.369
 L 117.936 301.5
 L 118.5 301.712
 L 119.5 302.17
 L 119.962 302.5
 L 121.162 303.5
 L 121.5 303.923
 L 122.551 305.5
 L 122.962 306.5
 L 123.5 307.397
 L 124.327 308.5
 L 124.5 308.846
 L 125.5 310.346
 L 125.654 310.5
 L 126.5 310.782
 L 127.5 311.027
 L 129.5 311.244
 L 130.5 311.469
 L 130.577 311.5
 L 131.5 311.836
 L 132.5 312.269
 L 132.885 312.5
 L 133.385 313.5
 L 132.5 314.09
 L 131.762 314.5
 L 130.5 314.871
 L 129.5 315.121
 L 128.5 315.321
 L 127.5 315.451
 L 126.5 315.454
 L 125.5 315.332
 L 124.5 315.283
 L 123.5 315.342
 L 122.603 315.5
 L 122.5 315.513
 L 121.5 315.787
 L 120.5 316.196
 L 119.5 316.741
 L 118.5 317.315
 L 118.164 317.5
 L 117.5 317.957
 L 116.776 318.5
 L 116.5 318.801
 L 115.908 319.5
 L 115.526 320.5
 L 115.5 320.654
 L 115.312 321.5
 L 115.218 322.5
 L 114.936 323.5
 L 114.5 323.762
 L 114.173 323.5
 L 113.5 323.115
 L 112.5 322.531
 L 112.423 322.5
 L 111.5 322.164
 L 110.5 322.276
 L 110.051 322.5
 L 109.5 322.736
 L 108.312 323.5
 L 107.5 324.109
 L 107.109 324.5
 L 106.524 325.5
 L 106.216 326.5
 L 105.985 327.5
 L 105.859 328.5
 L 105.859 329.5
 L 105.942 330.5
 L 105.983 331.5
 L 106.131 332.5
 L 106.201 333.5
 L 106.413 334.5
 L 106.5 334.673
 L 106.831 335.5
 L 107.5 336.244
 L 107.788 336.5
 L 108.5 336.759
 L 109.5 337.029
 L 110.5 337.168
 L 111.5 337.218
 L 112.5 337.097
 L 113.5 336.792
 L 114.085 336.5
 L 114.5 336.232
 L 115.487 335.5
 L 115.5 335.485
 L 116.5 334.785
 L 117.5 334.946
 L 117.962 335.5
 L 118.5 336.192
 L 118.696 336.5
 L 119.5 337.385
 L 119.636 337.5
 L 120.5 337.92
 L 121.5 338.194
 L 122.5 338.36
 L 123.5 338.492
 L 125.5 338.579
 L 126.5 338.577
 L 127.5 338.514
 L 128.5 338.371
 L 129.5 338.2
 L 130.5 337.925
 L 131.5 337.515
 L 131.53 337.5
 L 132.5 336.969
 L 133.5 336.545
 L 134.5 336.573
 L 136.5 337.469
 L 136.609 337.5
 L 137.5 337.714
 L 138.5 337.821
 L 139.5 337.853
 L 140.5 337.865
 L 143.5 337.809
 L 144.5 337.803
 L 145.5 337.78
 L 146.5 337.645
 L 146.981 337.5
 L 147.5 337.352
 L 148.5 336.848
 L 148.964 336.5
 L 149.5 336.017
 L 150.091 335.5
 L 150.5 335.113
 L 151.5 334.826
 L 152.5 335.014
 L 153.5 335.306
 L 154.359 335.5
 L 154.5 335.535
 L 155.5 335.721
 L 156.5 335.822
 L 157.5 335.852
 L 158.5 335.798
 L 159.5 335.609
 L 159.816 335.5
 L 160.5 335.272
 L 161.5 334.689
 L 161.729 334.5
 L 162.5 333.708
 L 162.708 333.5
 L 163.5 332.584
 L 163.692 332.5
 L 164.5 332.167
 L 165.5 332.52
 L 166.5 333.285
 L 166.736 333.5
 L 167.5 334.218
 L 167.81 334.5
 L 168.5 335.031
 L 169.263 335.5
 L 169.5 335.626
 L 170.5 336.004
 L 171.5 336.293
 L 172.5 336.492
 L 173.5 336.519
 L 173.587 336.5
 L 174.5 336.229
 L 175.5 335.688
 L 175.861 335.5
 L 176.5 335.154
 L 177.5 334.965
 L 178.5 335.313
 L 178.769 335.5
 L 179.5 335.987
 L 180.224 336.5
 L 180.5 336.662
 L 181.5 336.959
 L 182.5 336.932
 L 183.5 336.726
 L 184.355 336.5
 L 185.5 336.234
 L 186.5 336.084
 L 187.5 336.05
 L 188.5 336.071
 L 189.5 336.112
 L 190.5 336.182
 L 191.5 336.293
 L 192.5 336.492
 L 192.526 336.5
 L 193.426 337.5
 L 193.178 338.5
 L 192.4 339.5
 L 191.5 340.368
 L 191.352 340.5
 L 190.5 341.21
 L 190.105 341.5
 L 189.5 341.916
 L 188.5 342.454
 L 186.5 343.427
 L 186.365 343.5
 L 185.5 344.009
 L 184.573 344.5
 L 184.5 344.542
 L 183.5 344.98
 L 182.5 345.28
 L 181.645 345.5
 L 181.5 345.545
 L 180.5 345.734
 L 179.5 345.846
 L 178.5 345.779
 L 177.615 345.5
 L 176.5 344.879
 L 175.5 344.582
 L 175.064 344.5
 L 174.5 344.429
 L 173.5 344.289
 L 172.5 344.177
 L 171.5 344.11
 L 170.5 344.058
 L 169.5 344.058
 L 168.5 344.072
 L 167.5 344.177
 L 166.5 344.373
 L 166.09 344.5
 L 165.5 344.704
 L 164.5 345.104
 L 163.528 345.5
 L 163.5 345.512
 L 162.5 345.896
 L 160.756 346.5
 L 160.5 346.6
 L 159.5 346.861
 L 158.5 346.943
 L 157.5 346.915
 L 156.5 346.815
 L 154.5 346.715
 L 153.5 346.621
 L 152.731 346.5
 L 152.5 346.472
 L 151.5 346.435
 L 150.5 346.44
 L 150.218 346.5
 L 149.5 346.696
 L 148.5 347.096
 L 147.754 347.5
 L 147.5 347.684
 L 146.5 348.365
 L 146.308 348.5
 L 145.5 349.095
 L 144.859 349.5
 L 144.5 349.739
 L 143.5 350.315
 L 143.131 350.5
 L 142.5 350.832
 L 141.5 351.241
 L 140.551 351.5
 L 140.5 351.517
 L 139.5 351.815
 L 138.5 352.065
 L 137.5 352.265
 L 136.5 352.406
 L 135.5 352.358
 L 134.5 352.2
 L 133.5 352.017
 L 132.5 351.795
 L 131.5 351.582
 L 131.173 351.5
 L 130.5 351.358
 L 129.5 351.239
 L 128.5 351.224
 L 127.5 351.394
 L 127.162 351.5
 L 126.5 351.776
 L 125.5 352.293
 L 125.051 352.5
 L 124.5 352.736
 L 123.5 353.048
 L 121.5 353.464
 L 121.269 353.5
 L 120.5 353.644
 L 118.5 354.144
 L 117.5 354.457
 L 117.385 354.5
 L 116.5 354.983
 L 115.5 355.293
 L 114.603 355.5
 L 114.5 355.534
 L 113.5 355.538
 L 113.346 355.5
 L 112.5 355.406
 L 111.5 355.332
 L 110.5 355.236
 L 109.5 355.276
 L 108.5 355.423
 L 108.154 355.5
 L 107.936 356.5
 L 108.603 357.5
 L 108.577 358.5
 L 108.5 358.603
 L 107.5 359.269
 L 106.808 359.5
 L 105.808 360.5
 L 106.5 361.192
 L 106.577 361.5
 L 107.077 362.5
 L 108.5 364.397
 L 108.551 364.5
 L 109.162 365.5
 L 110.5 366.838
 L 112.5 368.438
 L 112.551 368.5
 L 113.218 369.5
 L 113.718 370.5
 L 114.051 371.5
 L 114.362 372.5
 L 114.5 373.192
 L 114.827 374.5
 L 114.962 375.5
 L 114.762 376.5
 L 113.962 378.5
 L 113.762 379.5
 L 113.962 380.5
 L 114.5 381.846
 L 114.827 382.5
 L 115.077 383.5
 L 115.162 384.5
 L 115.077 385.5
 L 114.827 386.5
 L 114.5 387.154
 L 114.269 387.5
 L 112.5 388.827
 L 111.5 389.827
 L 110.962 390.5
 L 110.5 391.269
 L 110.327 391.5
 L 109.762 392.5
 L 109.5 393.154
 L 109.327 393.5
 L 108.962 394.5
 L 108.762 395.5
 L 108.577 396.5
 L 107.827 399.5
 L 107.936 400.5
 L 108.327 401.5
 L 108.5 401.846
 L 109.5 403.346
 L 111.5 404.346
 L 111.603 404.5
 L 111.936 405.5
 L 112.162 406.5
 L 112.327 407.5
 L 112.5 408.192
 L 112.551 408.5
 L 112.562 409.5
 L 112.562 411.5
 L 112.5 411.654
 L 112.077 412.5
 L 111.5 413.269
 L 110.5 414.269
 L 109.5 414.936
 L 108.936 415.5
 L 108.269 416.5
 L 107.936 417.5
 L 108.162 418.5
 L 108.562 420.5
 L 108.962 421.5
 L 109.327 422.5
 L 109.5 422.846
 L 110.162 424.5
 L 111.5 426.731
 L 113.5 429.397
 L 113.562 429.5
 L 115.218 431.5
 L 115.5 431.923
 L 116.762 433.5
 L 117.5 434.238
 L 120.5 436.638
 L 121.936 437.5
 L 123.5 438.673
 L 124.327 439.5
 L 124.5 439.638
 L 125.5 440.173
 L 126.154 440.5
 L 126.5 440.731
 L 127.5 441.173
 L 128.808 441.5
 L 129.5 441.846
 L 130.5 442.397
 L 131.5 442.423
 L 131.808 442.5
 L 132.5 442.731
 L 133.5 443.346
 L 134.5 443.397
 L 134.808 443.5
 L 137.5 444.846
 L 138.5 444.846
 L 139.808 445.5
 L 140.5 446.192
 L 141.5 446.192
 L 142.808 447.5
 L 143.5 447.846
 L 145.5 447.846
 L 146.5 448.346
 L 148.5 448.346
 L 148.808 448.5
 L 149.5 448.673
 L 150.5 448.673
 L 151.5 448.731
 L 152.5 448.923
 L 153.5 448.923
 L 154.5 448.731
 L 155.5 448.923
 L 156.5 448.923
 L 157.5 449.064
 L 158.154 449.5
 L 158.154 450.5
 L 157.154 451.5
 L 155.654 452.5
 L 154.654 453.5
 L 154.5 453.603
 L 152.603 455.5
 L 152.5 455.654
 L 151.654 456.5
 L 151.154 457.5
 L 150.154 458.5
 L 150.154 464.5
 L 149.808 465.5
 L 149.808 469.5
 L 152.5 472.192
 L 152.654 472.5
 L 152.808 473.5
 L 153.5 474.192
 L 153.654 474.5
 L 153.808 475.5
 L 154.154 476.5
 L 154.654 477.5
 L 154.808 478.5
 L 155.154 479.5
 L 155.654 480.5
 L 155.808 481.5
 L 156.154 482.5
 L 156.654 483.5
 L 156.5 483.654
 L 155.269 485.5
 L 154.654 486.5
 L 154.154 487.5
 L 153.603 488.5
 L 153.5 488.654
 L 152.654 489.5
 L 152.154 490.5
 L 151.603 491.5
 L 150.5 493.154
 L 148.5 495.154
 L 147.603 496.5
 L 146.5 497.603
 L 145.5 498.269
 L 144.269 499.5
 L 143.5 500.654
 L 142.5 501.654
 L 141.5 503.154
 L 141.154 503.5
 L 140.603 504.5
 L 140.5 504.808
 L 140.154 505.5
 L 139.603 506.5
 L 139.269 507.5
 L 139.269 512
 L 231.836 512
 L 231.836 511.5
 L 231.745 510.5
 L 231.724 509.5
 L 231.784 508.5
 L 231.978 507.5
 L 232.146 506.5
 L 232.356 505.5
 L 232.606 504.5
 L 233.188 502.5
 L 233.541 501.5
 L 234.478 498.5
 L 234.679 497.5
 L 234.784 496.5
 L 234.563 495.5
 L 234.5 495.362
 L 233.5 494.538
 L 232.5 494.528
 L 231.5 494.736
 L 230.5 494.987
 L 229.5 495.379
 L 228.5 495.736
 L 227.5 496.165
 L 226.562 496.5
 L 226.5 496.524
 L 225.5 496.951
 L 224.5 497.321
 L 224.115 497.5
 L 222.5 498.308
 L 221.5 498.736
 L 220.5 499.187
 L 219.83 499.5
 L 219.5 499.665
 L 218.5 500.207
 L 217.5 500.769
 L 216.5 501.321
 L 215.5 501.787
 L 214.5 502.269
 L 213.885 502.5
 L 213.5 502.665
 L 212.5 503.022
 L 211.5 503.255
 L 210.5 503.231
 L 209.5 502.687
 L 209.381 502.5
 L 209.246 501.5
 L 209.478 500.5
 L 209.907 499.5
 L 210.5 498.462
 L 211.013 497.5
 L 211.613 496.5
 L 212.146 495.5
 L 212.5 494.91
 L 212.731 494.5
 L 213.264 493.5
 L 213.764 492.5
 L 214.399 491.5
 L 215.015 490.5
 L 215.784 489.5
 L 216.391 488.5
 L 216.974 487.5
 L 217.381 486.5
 L 217.5 486.064
 L 217.669 485.5
 L 218.058 484.5
 L 218.391 483.5
 L 218.808 482.5
 L 219.322 481.5
 L 219.5 481.038
 L 219.745 480.5
 L 220.246 479.5
 L 220.5 478.949
 L 220.692 478.5
 L 221.413 476.5
 L 221.5 476.282
 L 221.835 475.5
 L 222.213 474.5
 L 222.613 473.5
 L 223.346 471.5
 L 223.5 471.17
 L 223.793 470.5
 L 224.213 469.5
 L 224.5 468.885
 L 224.658 468.5
 L 225.106 467.5
 L 225.5 466.712
 L 225.594 466.5
 L 226.07 465.5
 L 226.5 464.688
 L 226.594 464.5
 L 226.983 463.5
 L 227.481 462.5
 L 227.5 462.466
 L 228.011 461.5
 L 228.5 460.745
 L 228.642 460.5
 L 229.188 459.5
 L 229.5 459.017
 L 229.816 458.5
 L 230.479 457.5
 L 230.5 457.472
 L 231.129 456.5
 L 232.5 454.558
 L 234.479 451.5
 L 234.5 451.466
 L 236.168 448.5
 L 237.5 445.837
 L 237.679 445.5
 L 238.279 444.5
 L 238.5 444.199
 L 238.981 443.5
 L 239.856 442.5
 L 240.5 441.813
 L 240.776 441.5
 L 241.717 440.5
 L 242.5 439.717
 L 242.731 439.5
 L 243.5 438.731
 L 243.717 438.5
 L 244.5 437.549
 L 244.543 437.5
 L 245.356 436.5
 L 245.5 436.308
 L 246.146 435.5
 L 246.813 434.5
 L 247.413 433.5
 L 247.5 433.313
 L 247.856 432.5
 L 248.106 431.5
 L 248.213 430.5
 L 248.168 429.5
 L 248.043 428.5
 L 248.011 427.5
 L 248.106 426.5
 L 248.231 425.5
 L 248.418 424.5
 L 248.5 424.238
 L 248.746 423.5
 L 249.049 422.5
 L 249.246 421.5
 L 249.092 419.5
 L 249.121 418.5
 L 249.322 417.5
 L 249.5 417.17
 L 250.17 416.5
 L 250.5 416.115
 L 251.5 416.238
 L 251.936 416.5
 L 253.5 416.927
 L 254.5 417.108
 L 255.5 416.869
 L 256 416.869
 L 256 413.544
 L 255.5 413.544
 L 255.397 413.5
 L 255.173 412.5
 L 255.5 412.369
 L 256 412.369
 L 256 122.687
 L 255.5 122.687
 L 253.5 120.687
 L 253.369 120.5
 L 252.5 119.534
 L 252.474 119.5
 L 251.5 118.288
 L 250.199 116.5
 L 249.688 115.5
 L 249.5 115.077
 L 249.17 114.5
 L 248.838 113.5
 L 248.438 112.5
 L 247.962 111.5
 L 247.641 110.5
 L 246.974 109.5
 L 246.5 108.868
 L 246.246 108.5
 L 245.589 107.5
 L 245.5 107.379
 L 244.816 106.5
 L 243.872 105.5
 L 243.5 105.128
 L 242.793 104.5
 L 242.5 104.277
 L 241.541 103.5
 L 240.5 102.684
 L 240.279 102.5
 L 239.013 101.5
 L 238.5 101.073
 L 237.764 100.5
 L 237.5 100.283
 L 236.5 99.522
 L 236.469 99.5
 L 235.5 98.8538
 L 234.5 97.9872
 L 233.891 97.5
 L 232.724 96.5
 L 231.641 95.5
 L 231.5 95.359
 L 230.563 94.5
 L 230.5 94.4467
 L 229.5 93.7756
 L 228.5 93.0256
 L 227.5 92.1923
 L 226.808 91.5
 L 226.5 91.216
 L 225.5 90.216
 L 224.724 89.5
 L 224.5 89.2756
 L 223.654 88.5
 L 223.5 88.3308
 L 222.577 87.5
 L 221.577 86.5
 L 219.391 84.5
 L 218.5 83.609
 L 217.5 82.6923
 L 217.244 82.5
 L 216.5 81.8308
 L 216.027 81.5
 L 215.5 81.0897
 L 214.615 80.5
 L 214.5 80.4011
 L 213.5 79.6308
 L 213.282 79.5
 L 212.5 78.9135
 L 211.838 78.5
 L 211.5 78.2582
 L 210.5 77.7308
 L 210.038 77.5
 L 209.5 77.1635
 L 208.5 76.4135
 L 207.5 75.6189
 L 206.132 74.5
 L 204.799 73.5
 L 204.5 73.2308
 L 203.587 72.5
 L 203.5 72.4231
 L 202.5 71.6006
 L 202.355 71.5
 L 201.021 70.5
 L 200.5 70.0734
 L 199.599 69.5
 L 199.5 69.4308
 L 198.5 68.8314
 L 197.5 68.2929
 L 196.5 67.7692
 L 196.021 67.5
 L 194.472 66.5
 L 193.017 65.5
 L 192.5 65.0934
 L 191.669 64.5
 L 190.569 63.5
 L 189.669 62.5
 L 189.5 62.3462
 L 188.5 61.6006
 L 188.337 61.5
 L 187.5 60.9423
 L 186.5 60.4423
 L 185.5 59.8791
 L 184.742 59.5
 L 183.5 58.7872
 L 182.962 58.5
 L 182.5 58.216
 L 181.5 57.6442
 L 181.212 57.5
 L 179.5 56.5817
 L 179.313 56.5
 L 178.5 56.1205
 L 177.5 55.5817
 L 177.337 55.5
 L 175.587 54.5
 L 175.5 54.4467
 L 173.5 53.1648
 L 172.5 52.5872
 L 172.313 52.5
 L 171.5 52.0934
 L 170.5 51.5205
 L 168.5 50.5817
 L 168.313 50.5
 L 166.5 49.5872
 L 166.313 49.5
 L 165.5 49.0621
 L 164.5 48.5934
 L 164.313 48.5
 L 163.5 48.0256
 L 162.5 47.5237
 L 162.449 47.5
 L 160.5 46.5237
 L 159.5 46.0621
 L 158.5 45.6648
 L 158.115 45.5
 L 156.5 44.7544
 L 155.673 44.5
 L 155.5 44.4423
 L 154.5 43.9423
 L 153.173 43.5
 L 151.5 42.8916
 L 150.5 42.6189
 L 149.5 42.4371
 L 145.731 41.5
 L 145.5 41.4371
 L 144.5 41.0734
 L 143.5 40.7308
 L 142.923 40.5
 L 142.5 40.3462
 L 141.5 40.0308
 L 140.173 39.5
 L 139.5 39.2552
 L 137.5 38.7098
 L 136.346 38.5
 L 134.5 38.1308
 L 133.5 37.9786
 L 131.5 37.5342
 L 131.192 37.5
 L 130.5 37.3846
 L 129.5 37.2582
 L 125.5 37.2582
 L 124.5 37.3846
 L 123.5 37.3846
 L 122.5 37.5513
 L 121.5 37.5615
 L 120.5 37.7179
 L 119.5 37.8269
 L 118.154 38.5
 L 117.5 38.9359
 L 115.936 40.5
 L 115.5 40.7615
 L 114.5 41.1615
 L 113.5 41.3269
 L 111.5 40.8269
 L 110.846 40.5
 L 110.5 40.2692
 L 109.5 39.6538
 L 109.192 39.5
 L 108.5 38.8077
 L 108.346 38.5
 L 108.192 37.5
 L 108.192 36.5
 L 108.5 36.1923
 L 108.846 35.5
 L 109.846 34.5
 L 110.346 33.5
 L 111.346 32.5
 L 112.346 30.5
 L 112.192 29.5
 L 108.5 25.8077
 L 108.397 25.5
 L 107.5 24.6026
 L 107.346 24.5
 L 106.731 23.5
 L 106.064 22.5
 L 105.5 21.9359
 L 104.5 21.6026
 L 103.5 21.6026
 L 102.5 21.9359
 z
 M 248.5 68.3615
 L 247.5 68.5615
 L 246.5 69.2692
 L 246.327 69.5
 L 246.051 70.5
 L 245.885 71.5
 L 245.5 72.2692
 L 245.327 72.5
 L 244.5 73.0513
 L 243.5 72.9615
 L 242.5 72.6868
 L 240.5 71.5385
 L 240.346 71.5
 L 239.5 71.3308
 L 238.5 71.2308
 L 237.5 71.4135
 L 237.154 71.5
 L 236.5 71.9359
 L 236.162 72.5
 L 236.115 73.5
 L 236.115 74.5
 L 236.077 75.5
 L 236.269 76.5
 L 235.5 77.2692
 L 234.5 77.2692
 L 233.5 76.8269
 L 232.846 76.5
 L 232.5 76.3846
 L 230.731 75.5
 L 230.5 75.3615
 L 229.5 74.9615
 L 228.5 74.5769
 L 227.5 74.5769
 L 226.5 74.5513
 L 226.192 74.5
 L 225.5 74.4011
 L 224.5 74.1635
 L 223.5 73.6868
 L 223.173 73.5
 L 222.5 73.0513
 L 221.5 72.5615
 L 221.346 72.5
 L 220.5 72.0769
 L 219.5 71.8269
 L 218.5 71.3269
 L 217.5 70.9359
 L 215.5 70.2692
 L 214.5 70.0769
 L 213.5 70.2692
 L 213.269 70.5
 L 212.936 71.5
 L 213.077 72.5
 L 213.5 73.3462
 L 214.654 74.5
 L 216.5 75.7308
 L 217.5 76.7308
 L 219.5 78.0641
 L 220.5 78.4231
 L 220.654 78.5
 L 222.5 79.1154
 L 223.5 79.3132
 L 224.5 79.5989
 L 225.5 80.1154
 L 226.269 80.5
 L 227.5 81.2385
 L 228.5 81.6385
 L 229.5 81.6731
 L 230.5 82.0641
 L 230.936 82.5
 L 231.5 82.8385
 L 232.162 83.5
 L 232.5 83.9231
 L 232.885 84.5
 L 233.5 85.1154
 L 233.83 85.5
 L 234.973 86.5
 L 235.5 86.9103
 L 236.5 87.7991
 L 237.401 88.5
 L 237.5 88.5629
 L 238.5 88.9103
 L 239.5 89.1325
 L 240.5 89.3132
 L 241.154 89.5
 L 241.5 89.5865
 L 242.5 89.9487
 L 243.5 90.4231
 L 243.654 90.5
 L 244.5 90.8385
 L 245.5 90.6385
 L 245.638 90.5
 L 246.173 89.5
 L 246.173 88.5
 L 245.923 87.5
 L 245.731 86.5
 L 246.192 85.5
 L 246.5 85.4385
 L 247.5 85.6385
 L 248.5 85.5989
 L 249.5 85.5865
 L 250.192 85.5
 L 250.5 85.456
 L 251.5 85.1154
 L 252.423 84.5
 L 252.5 84.4385
 L 253.5 83.6731
 L 253.846 83.5
 L 254.5 83.2385
 L 255.5 83.1154
 L 256 83.1154
 L 256 74.5513
 L 255.5 74.5513
 L 254.587 73.5
 L 254.5 73.3615
 L 253.5 71.5615
 L 253.456 71.5
 L 252.638 70.5
 L 252.5 70.3269
 L 251.5 69.5615
 L 251.346 69.5
 L 249.846 68.5
 L 249.5 68.3615
 z
 M 178.5 152.438
 L 178.173 152.5
 L 177.5 152.65
 L 176.5 152.852
 L 175.5 153.063
 L 173.5 153.385
 L 172.923 153.5
 L 172.5 153.594
 L 171.5 153.785
 L 170.5 153.935
 L 169.5 154.104
 L 167.5 154.486
 L 167.438 154.5
 L 166.5 154.793
 L 165.5 155.043
 L 164.5 155.247
 L 163.5 155.481
 L 163.397 155.5
 L 162.5 155.769
 L 160.673 156.5
 L 160.5 156.731
 L 159.731 157.5
 L 160.346 158.5
 L 160.5 158.551
 L 161.5 158.544
 L 162.5 158.756
 L 163.5 159.038
 L 164.238 159.5
 L 164.5 159.718
 L 165.5 160.288
 L 166.346 160.5
 L 166.5 160.534
 L 168.5 160.756
 L 169.5 160.913
 L 170.5 161.163
 L 171.5 161.423
 L 172.5 161.442
 L 173.5 161.308
 L 175.5 160.906
 L 176.5 160.727
 L 177.5 160.569
 L 178.154 160.5
 L 178.5 160.467
 L 180.5 160.209
 L 181.5 160.059
 L 182.5 159.896
 L 183.5 159.715
 L 184.5 159.517
 L 185.5 159.295
 L 186.5 159.106
 L 187.5 158.957
 L 188.5 158.769
 L 189.5 158.695
 L 190.5 158.577
 L 191.5 158.517
 L 191.577 158.5
 L 192.5 158.216
 L 193.5 157.801
 L 193.973 157.5
 L 194.5 156.762
 L 194.718 156.5
 L 194.562 155.5
 L 194.5 155.438
 L 193.718 154.5
 L 193.5 154.282
 L 192.562 153.5
 L 192.5 153.397
 L 191.5 152.638
 L 190.808 152.5
 L 190.5 152.462
 L 189.5 152.269
 L 188.5 152.224
 L 187.5 152.224
 L 185.5 152.264
 L 184.5 152.231
 L 183.5 152.247
 L 182.5 152.221
 L 181.5 152.221
 L 180.5 152.235
 L 179.5 152.285
 z
 M 54.5 176.411
 L 53.5 176.621
 L 52.5 176.85
 L 51.5 177.073
 L 50.5 177.239
 L 49.5 177.462
 L 48.5 177.621
 L 47.5 177.865
 L 46.5 178.065
 L 45.5 178.306
 L 44.5 178.517
 L 43.5 178.695
 L 40.7615 179.5
 L 40.5 179.593
 L 39.5 180.093
 L 38.7885 180.5
 L 38.5 180.756
 L 37.7564 181.5
 L 37.0897 182.5
 L 36.7885 183.5
 L 36.5385 184.5
 L 36.5342 185.5
 L 36.5 185.808
 L 36.4135 186.5
 L 36.5 187.192
 L 36.544 187.5
 L 36.7179 188.5
 L 36.9615 189.5
 L 37.5 192.192
 L 37.5769 192.5
 L 38.0769 193.5
 L 39.0769 194.5
 L 39.5 194.838
 L 40.5 195.282
 L 40.9359 195.5
 L 41.5 195.838
 L 43.1538 196.5
 L 43.5 196.599
 L 44.5 196.742
 L 45.5 197.027
 L 46.5 197.449
 L 46.6026 197.5
 L 47.5 198.173
 L 48.5 199.173
 L 48.9359 199.5
 L 49.5 199.838
 L 50.5 200.456
 L 50.6026 200.5
 L 51.5 200.679
 L 52.5 200.705
 L 53.5 200.771
 L 54.5 200.804
 L 55.5 200.747
 L 57.5 200.574
 L 58.0641 200.5
 L 59.5 200.34
 L 61.5 200.132
 L 62.5 200.096
 L 63.5 200.096
 L 64.5 200.168
 L 65.5 200.275
 L 66.5 200.452
 L 66.6868 200.5
 L 67.5 200.879
 L 68.1648 201.5
 L 67.7336 202.5
 L 67.5 202.985
 L 67.2841 203.5
 L 67.1267 204.5
 L 67.3037 205.5
 L 67.5 206.132
 L 67.7067 206.5
 L 67.9825 207.5
 L 67.5 208.385
 L 67.4505 208.5
 L 66.6453 209.5
 L 66.5 209.619
 L 65.5 210.342
 L 65.1154 210.5
 L 64.5 210.739
 L 63.5 210.943
 L 62.5 210.943
 L 61.5 210.779
 L 60.6154 210.5
 L 60.5 210.467
 L 59.5 210.022
 L 58.7692 209.5
 L 58.5 209.231
 L 57.5 208.663
 L 56.5 208.973
 L 55.9725 209.5
 L 55.5 210.327
 L 55.4135 210.5
 L 55.1154 211.5
 L 55.0513 212.5
 L 54.9615 213.5
 L 54.8269 214.5
 L 55.8269 215.5
 L 56.5 215.885
 L 57.3615 216.5
 L 57.5 216.673
 L 57.9135 217.5
 L 57.9135 218.5
 L 57.5385 219.5
 L 57.5 219.562
 L 56.5615 220.5
 L 56.5 220.577
 L 55.5769 221.5
 L 55.5 221.808
 L 55.3615 222.5
 L 55.5 222.731
 L 56.2692 223.5
 L 56.5 223.673
 L 57.5 224.173
 L 58.5 224.438
 L 59.5 224.456
 L 60.5 224.599
 L 61.5 224.587
 L 62.1923 224.5
 L 62.5 224.466
 L 63.5 224.141
 L 64.5 223.764
 L 65.5 223.335
 L 66.5 222.776
 L 68.472 221.5
 L 68.5 221.483
 L 69.5 220.819
 L 70.5 220.057
 L 71.1496 219.5
 L 71.5 219.185
 L 72.5 218.135
 L 73.0769 217.5
 L 73.5 217.01
 L 73.9038 216.5
 L 74.5 215.658
 L 74.6036 215.5
 L 75.0442 214.5
 L 75.4077 213.5
 L 75.5 213.17
 L 75.6805 212.5
 L 75.8077 211.5
 L 75.5806 210.5
 L 75.5 210.394
 L 74.5 209.565
 L 74.3365 209.5
 L 73.5 209.232
 L 72.5 209.014
 L 71.5 208.832
 L 70.6154 208.5
 L 70.5 208.269
 L 70.2115 207.5
 L 70.5 207.269
 L 71.0495 206.5
 L 71.5 206.129
 L 72.0346 205.5
 L 72.5 204.569
 L 72.5301 204.5
 L 72.7372 203.5
 L 72.8348 202.5
 L 73.5 201.835
 L 74.5 201.661
 L 75.5 201.527
 L 76.5 201.18
 L 77.4312 200.5
 L 77.5 200.418
 L 78.0651 199.5
 L 78.2477 198.5
 L 78.2733 197.5
 L 78.5 196.638
 L 78.5577 196.5
 L 80.0577 195.5
 L 80.5 195.188
 L 81.1496 194.5
 L 81.5 193.869
 L 81.6758 193.5
 L 81.986 192.5
 L 82.1678 191.5
 L 82.3425 190.5
 L 82.4406 189.5
 L 82.5315 188.5
 L 82.533 187.5
 L 82.5806 186.5
 L 82.5891 185.5
 L 82.5385 184.5
 L 82.5 184.269
 L 82.3462 183.5
 L 81.9379 182.5
 L 81.5 181.687
 L 81.3692 181.5
 L 80.5 180.631
 L 80.3365 180.5
 L 79.5 179.892
 L 78.6385 179.5
 L 78.5 179.442
 L 77.5 179.062
 L 76.5 178.808
 L 75.5 178.587
 L 73.5 178.048
 L 71.5 177.459
 L 70.5 177.2
 L 69.5 177.065
 L 68.5 176.896
 L 67.5 176.741
 L 66.5 176.6
 L 65.5 176.513
 L 63.5 176.423
 L 61.5 176.241
 L 59.5 176.15
 L 58.5 176.134
 L 57.5 176.105
 L 56.5 176.15
 L 55.5 176.229
 z
 M 180.5 181.391
 L 179.846 181.5
 L 179.5 181.577
 L 178.5 181.769
 L 177.5 182.108
 L 176.638 182.5
 L 176.5 182.577
 L 174.638 183.5
 L 172.838 184.5
 L 172.5 184.712
 L 171.5 185.313
 L 170.5 186.17
 L 169.5 186.885
 L 168.5 187.742
 L 167.5 188.456
 L 167.456 188.5
 L 166.599 189.5
 L 166.5 189.638
 L 165.782 190.5
 L 165.115 191.5
 L 163.449 193.5
 L 162.782 194.5
 L 162.282 195.5
 L 161.885 196.5
 L 161.5 197.173
 L 161.337 197.5
 L 160.724 198.5
 L 160.5 198.799
 L 159.5 200.355
 L 159.423 200.5
 L 159.013 201.5
 L 159.017 202.5
 L 159.5 203.031
 L 160.438 203.5
 L 160.5 203.522
 L 161.5 203.721
 L 162.5 203.894
 L 163.5 204.144
 L 164.5 204.321
 L 165.397 204.5
 L 165.5 204.528
 L 167.5 204.731
 L 168.5 204.868
 L 169.5 204.913
 L 170.5 204.973
 L 171.5 204.962
 L 172.5 205.269
 L 172.846 205.5
 L 173.5 205.762
 L 174.5 205.962
 L 175.5 205.962
 L 176.5 205.762
 L 177.5 205.827
 L 178.5 205.936
 L 179.5 206.603
 L 180.5 206.936
 L 181.5 206.936
 L 182.5 207.154
 L 183.5 207.269
 L 184.5 206.827
 L 185.154 206.5
 L 185.654 205.5
 L 185.5 205.346
 L 184.5 204.846
 L 183.5 204.731
 L 182.5 204.397
 L 181.5 204.173
 L 180.5 204.038
 L 179.5 204.064
 L 178.654 203.5
 L 176.654 202.5
 L 176.5 202.397
 L 175.5 201.846
 L 175.269 201.5
 L 175.5 200.808
 L 175.654 200.5
 L 176.5 200.218
 L 177.5 200.258
 L 178.5 200.423
 L 178.846 200.5
 L 179.5 200.687
 L 180.5 200.868
 L 181.5 201.073
 L 182.5 201.164
 L 183.5 201.201
 L 184.5 201.115
 L 186.5 201.115
 L 187.5 201.288
 L 188.5 201.413
 L 189.5 201.312
 L 190.5 201.163
 L 191.5 200.973
 L 192.5 201.038
 L 193.5 201.346
 L 193.923 201.5
 L 194.5 201.644
 L 195.5 201.85
 L 196.5 201.962
 L 197.5 202.048
 L 198.5 201.985
 L 199.5 201.892
 L 201.5 201.776
 L 202.5 201.522
 L 202.562 201.5
 L 203.5 201.253
 L 204.5 200.848
 L 205.231 200.5
 L 205.5 200.332
 L 206.5 199.609
 L 206.687 199.5
 L 207.431 198.5
 L 207.5 198.401
 L 208.5 198.115
 L 209.173 198.5
 L 209.5 198.718
 L 210.5 199.423
 L 210.673 199.5
 L 211.5 199.913
 L 212.5 200.255
 L 213.397 200.5
 L 213.5 200.521
 L 214.5 200.795
 L 215.5 201.043
 L 216.5 201.2
 L 217.5 201.239
 L 218.5 201.239
 L 219.5 201.342
 L 220.5 201.459
 L 221.5 201.518
 L 222.5 201.519
 L 222.603 201.5
 L 223.5 201.201
 L 224.131 200.5
 L 224.026 199.5
 L 223.5 198.712
 L 223.37 198.5
 L 222.5 197.63
 L 222.359 197.5
 L 221.5 196.894
 L 220.892 196.5
 L 220.5 196.273
 L 219.5 195.885
 L 218.645 195.5
 L 217.5 194.935
 L 216.5 194.485
 L 215.5 194.077
 L 214.5 193.759
 L 213.788 193.5
 L 213.5 193.379
 L 211.5 192.326
 L 210.5 191.885
 L 209.538 191.5
 L 209.5 191.486
 L 208.5 191.154
 L 207.5 190.911
 L 206.5 190.637
 L 206.038 190.5
 L 205.5 190.321
 L 204.5 190.008
 L 202.5 189.448
 L 201.5 189.18
 L 200.5 188.95
 L 197.5 188.368
 L 194.5 187.617
 L 193.827 187.5
 L 193.5 187.431
 L 192.5 187.261
 L 191.5 187.129
 L 190.5 186.981
 L 189.5 186.813
 L 188.5 186.692
 L 187.5 186.558
 L 186.808 186.5
 L 186.5 186.466
 L 185.5 186.313
 L 184.5 185.673
 L 184.327 185.5
 L 183.962 184.5
 L 184.327 183.5
 L 185.327 182.5
 L 186.077 181.5
 L 185.5 181.17
 L 184.5 180.962
 L 183.5 180.969
 L 182.5 181.069
 L 181.5 181.29
 z
 M 49.5 230.442
 L 49.2692 230.5
 L 48.5 230.628
 L 47.5 230.832
 L 46.5 230.99
 L 45.5 231.095
 L 44.5 231.184
 L 42.5 231.295
 L 41.5 231.411
 L 40.9359 231.5
 L 40.5 231.559
 L 39.5 231.731
 L 37.5 231.965
 L 36.5 232.095
 L 34.5 232.306
 L 33.5 232.465
 L 33.3615 232.5
 L 32.5 232.787
 L 31.5 233.269
 L 31.0385 233.5
 L 29.5385 234.5
 L 29.5 234.544
 L 28.7564 235.5
 L 28.544 236.5
 L 29.1154 237.5
 L 29.8297 238.5
 L 30.0897 239.5
 L 30.2009 240.5
 L 30.4135 241.5
 L 30.5 241.673
 L 31.5 243.423
 L 31.5385 243.5
 L 31.9786 244.5
 L 32.5 246.397
 L 32.8308 247.5
 L 33.2009 248.5
 L 33.5 249.173
 L 33.6868 249.5
 L 34.2885 250.5
 L 34.5 250.923
 L 35.4011 252.5
 L 35.6868 253.5
 L 35.9135 254.5
 L 36.0385 255.5
 L 36.0897 256.5
 L 36.2308 257.5
 L 36.4231 258.5
 L 36.5 258.846
 L 36.6868 259.5
 L 36.8297 260.5
 L 36.8846 261.5
 L 36.9615 262.5
 L 36.9615 265.5
 L 37.5 266.846
 L 37.8269 267.5
 L 38.5 268.397
 L 38.6026 268.5
 L 39.5 269.173
 L 40.5 269.282
 L 41.5 269.212
 L 42.5 268.91
 L 43.5 268.563
 L 43.6385 268.5
 L 44.5 268.141
 L 45.5 267.63
 L 45.7115 267.5
 L 46.5 267.049
 L 47.5 266.407
 L 48.5 265.692
 L 49.5 264.907
 L 49.9744 264.5
 L 50.5 264.079
 L 53.5 261.479
 L 54.5 260.543
 L 54.5407 260.5
 L 56.5 258.264
 L 58.5 255.835
 L 59.5 254.549
 L 59.5364 254.5
 L 60.2051 253.5
 L 60.8162 252.5
 L 61.3558 251.5
 L 61.5 251.244
 L 61.8937 250.5
 L 62.5 249.212
 L 62.7996 248.5
 L 63.094 247.5
 L 63.3259 246.5
 L 63.4829 245.5
 L 63.5891 244.5
 L 63.6417 243.5
 L 63.5891 242.5
 L 63.5 242.077
 L 63.3558 241.5
 L 62.9462 240.5
 L 62.5 239.831
 L 62.2456 239.5
 L 61.5 238.692
 L 61.2902 238.5
 L 59.9266 237.5
 L 59.5 237.224
 L 58.5 236.644
 L 58.3077 236.5
 L 57.5 235.808
 L 57.1923 235.5
 L 56.5 234.619
 L 56.4128 234.5
 L 56.0128 233.5
 L 55.9379 232.5
 L 55.9266 231.5
 L 55.5 230.562
 L 55.4385 230.5
 L 54.5 229.979
 L 53.5 229.831
 L 52.5 229.892
 L 51.5 230.031
 L 50.5 230.255
 z
 M 173.5 257.212
 L 172.731 257.5
 L 172.5 258.192
 L 172.481 258.5
 L 172.5 258.808
 L 172.558 259.5
 L 172.918 260.5
 L 173.235 261.5
 L 173.5 262.258
 L 173.594 262.5
 L 173.962 263.5
 L 174.395 264.5
 L 174.5 264.71
 L 174.914 265.5
 L 175.487 266.5
 L 175.5 266.521
 L 176.2 267.5
 L 177.009 268.5
 L 177.5 269.073
 L 177.885 269.5
 L 178.5 270.224
 L 178.723 270.5
 L 180.5 272.85
 L 181.5 274.128
 L 181.804 274.5
 L 182.5 275.306
 L 183.5 276.411
 L 183.577 276.5
 L 184.404 277.5
 L 185.5 278.885
 L 186.031 279.5
 L 186.5 280.073
 L 186.866 280.5
 L 187.5 281.283
 L 187.685 281.5
 L 188.485 282.5
 L 189.342 283.5
 L 190.152 284.5
 L 191.009 285.5
 L 191.5 286.043
 L 191.895 286.5
 L 192.5 287.239
 L 194.5 289.665
 L 195.196 290.5
 L 195.5 290.906
 L 195.928 291.5
 L 196.5 292.394
 L 197.248 293.5
 L 197.5 293.85
 L 197.987 294.5
 L 198.5 295.148
 L 198.791 295.5
 L 199.574 296.5
 L 201.5 299.073
 L 201.834 299.5
 L 202.5 300.4
 L 202.577 300.5
 L 203.269 301.5
 L 203.5 301.854
 L 203.904 302.5
 L 204.987 304.5
 L 205.986 306.5
 L 206.438 307.5
 L 206.771 308.5
 L 207.052 309.5
 L 207.304 310.5
 L 207.486 311.5
 L 207.531 312.5
 L 207.484 313.5
 L 207.379 314.5
 L 207.305 315.5
 L 207.106 316.5
 L 206.692 317.5
 L 206.5 317.769
 L 205.5 318.169
 L 204.5 317.879
 L 203.868 317.5
 L 203.5 317.246
 L 202.531 316.5
 L 202.5 316.481
 L 201.5 315.927
 L 199.5 315.057
 L 198.5 314.713
 L 197.83 314.5
 L 197.5 314.39
 L 196.5 314.168
 L 195.5 313.986
 L 194.5 313.85
 L 193.5 313.747
 L 192.5 313.668
 L 191.5 313.641
 L 190.5 313.587
 L 189.5 313.923
 L 189.115 314.5
 L 189.5 314.692
 L 190.5 315.312
 L 190.688 315.5
 L 191.5 315.906
 L 192.264 316.5
 L 192.5 316.665
 L 193.5 317.516
 L 194.5 318.517
 L 195.342 319.5
 L 195.5 319.736
 L 195.965 320.5
 L 196.448 321.5
 L 196.848 322.5
 L 197.237 323.5
 L 197.5 324.201
 L 197.635 324.5
 L 198.221 325.5
 L 198.5 325.942
 L 198.804 326.5
 L 199.279 327.5
 L 199.5 328.031
 L 199.704 328.5
 L 200.2 329.5
 L 200.5 329.951
 L 201.462 330.5
 L 201.5 330.513
 L 203.5 330.752
 L 204.5 330.792
 L 205.5 330.752
 L 206.5 330.896
 L 207.205 331.5
 L 207.5 331.908
 L 207.756 332.5
 L 208.022 333.5
 L 208.188 334.5
 L 208.256 335.5
 L 208.339 336.5
 L 208.4 337.5
 L 208.593 339.5
 L 208.703 340.5
 L 208.834 341.5
 L 209.145 344.5
 L 209.282 345.5
 L 209.5 346.551
 L 209.759 347.5
 L 210.095 348.5
 L 210.446 349.5
 L 210.5 349.687
 L 210.816 350.5
 L 211.135 351.5
 L 211.342 352.5
 L 211.5 353.327
 L 211.569 353.5
 L 211.891 354.5
 L 212.199 355.5
 L 212.5 356.162
 L 213.5 356.362
 L 214.038 355.5
 L 214.288 354.5
 L 214.423 353.5
 L 214.5 353.154
 L 214.601 352.5
 L 214.678 351.5
 L 214.808 350.5
 L 214.908 349.5
 L 214.985 348.5
 L 215.139 347.5
 L 215.293 345.5
 L 215.442 344.5
 L 215.5 343.808
 L 215.665 341.5
 L 215.808 340.5
 L 215.985 339.5
 L 216.216 338.5
 L 216.5 337.577
 L 216.522 337.5
 L 216.754 336.5
 L 216.951 335.5
 L 217.139 334.5
 L 217.359 333.5
 L 217.5 332.654
 L 217.522 332.5
 L 217.665 330.5
 L 217.787 329.5
 L 217.951 328.5
 L 218.121 327.5
 L 218.521 325.5
 L 218.654 324.5
 L 218.808 323.5
 L 218.987 322.5
 L 219.387 320.5
 L 219.522 319.5
 L 219.593 318.5
 L 219.601 317.5
 L 219.665 316.5
 L 219.808 314.5
 L 219.808 313.5
 L 219.736 312.5
 L 219.678 311.5
 L 219.526 309.5
 L 219.359 308.5
 L 219.164 307.5
 L 218.931 306.5
 L 218.631 305.5
 L 218.231 304.5
 L 217.5 303.038
 L 216.645 301.5
 L 216.5 301.282
 L 215.913 300.5
 L 215.5 299.838
 L 214.538 298.5
 L 213.5 296.838
 L 212.544 295.5
 L 211.687 294.5
 L 210.687 293.5
 L 208.973 291.5
 L 208.258 290.5
 L 207.663 289.5
 L 207.5 289.238
 L 206.5 287.838
 L 205.385 286.5
 L 204.687 285.5
 L 204.5 285.238
 L 203.5 284.038
 L 202.962 283.5
 L 202.5 283.115
 L 200.885 281.5
 L 199.5 279.838
 L 198.5 278.838
 L 196.551 276.5
 L 196.5 276.449
 L 194.5 274.782
 L 193.218 273.5
 L 192.5 272.638
 L 190.5 270.638
 L 190.327 270.5
 L 189.5 269.949
 L 188.051 268.5
 L 186.5 266.638
 L 186.362 266.5
 L 184.5 264.949
 L 183.827 264.5
 L 183.5 264.313
 L 182.5 263.712
 L 182.218 263.5
 L 180.5 262.355
 L 178.115 260.5
 L 177.5 260.069
 L 176.788 259.5
 L 176.5 259.29
 L 175.5 258.472
 L 174.5 257.799
 L 173.962 257.5
 z
 M 137.5 266.393
 L 137.264 266.5
 L 136.5 266.856
 L 135.481 267.5
 L 134.538 268.5
 L 134.5 268.846
 L 134.369 269.5
 L 134.5 269.619
 L 135.5 270.2
 L 136.212 270.5
 L 136.5 270.6
 L 137.5 270.993
 L 138.5 271.41
 L 138.692 271.5
 L 139.5 271.992
 L 140.474 272.5
 L 140.5 272.516
 L 141.5 273.032
 L 142.5 273.368
 L 143.423 273.5
 L 143.5 273.514
 L 144.5 273.592
 L 146.5 273.511
 L 148.5 273.373
 L 149.5 273.312
 L 150.5 273.165
 L 151.5 272.854
 L 152.258 272.5
 L 152.437 271.5
 L 152.026 270.5
 L 151.5 269.799
 L 151.321 269.5
 L 150.454 268.5
 L 149.5 267.785
 L 149.093 267.5
 L 148.5 267.168
 L 147.5 266.69
 L 146.5 266.29
 L 145.5 265.977
 L 144.5 265.774
 L 143.5 265.639
 L 142.5 265.586
 L 141.5 265.584
 L 140.5 265.671
 L 139.5 265.826
 L 138.5 266.059
 z
 M 52.5 312.401
 L 51.5 312.687
 L 50.5 313.115
 L 49.5 313.687
 L 48.5 314.385
 L 47.5 315.385
 L 47.4011 315.5
 L 45.9725 317.5
 L 45.4011 318.5
 L 45.0385 319.5
 L 44.7885 320.5
 L 44.7564 321.5
 L 44.7308 322.5
 L 44.8007 323.5
 L 44.8007 324.5
 L 44.859 325.5
 L 44.9423 326.5
 L 44.9423 327.5
 L 45.0256 328.5
 L 45.1391 329.5
 L 45.5 331.064
 L 45.609 331.5
 L 45.9083 332.5
 L 46.5 335.064
 L 46.5934 335.5
 L 46.7363 336.5
 L 46.9506 337.5
 L 47.2929 338.5
 L 47.5 339.173
 L 47.5872 339.5
 L 47.7872 340.5
 L 48.3205 342.5
 L 48.9872 344.5
 L 49.3077 345.5
 L 49.5 346.038
 L 49.6538 346.5
 L 50.0192 347.5
 L 50.5 348.615
 L 50.8317 349.5
 L 51.2538 350.5
 L 51.5 351.238
 L 51.5769 351.5
 L 51.9299 352.5
 L 52.3205 353.5
 L 52.5 353.949
 L 52.7067 354.5
 L 53.5817 356.5
 L 54.5 358.456
 L 54.522 358.5
 L 55.0934 359.5
 L 55.5 360.313
 L 55.6006 360.5
 L 56.8314 362.5
 L 58.4506 365.5
 L 58.9506 366.5
 L 59.8317 368.5
 L 60.2828 369.5
 L 60.7534 370.5
 L 61.2067 371.5
 L 61.7692 372.5
 L 62.3416 373.5
 L 62.9887 374.5
 L 63.5 375.224
 L 63.7363 375.5
 L 64.5 376.322
 L 64.7885 376.5
 L 65.5 376.856
 L 66.5 376.776
 L 67.5 376.247
 L 68.2466 375.5
 L 68.5 375.213
 L 68.986 374.5
 L 69.5 373.63
 L 69.5651 373.5
 L 70.0071 372.5
 L 70.4145 371.5
 L 70.5 371.244
 L 70.739 370.5
 L 70.9377 369.5
 L 71.0071 368.5
 L 70.8877 367.5
 L 70.5769 366.5
 L 70.5 366.346
 L 69.9525 365.5
 L 69.5 364.859
 L 69.2308 364.5
 L 68.6128 363.5
 L 68.5 363.258
 L 68.1209 362.5
 L 67.6302 361.5
 L 67.5 361.218
 L 67.141 360.5
 L 66.5 359.645
 L 66.3692 359.5
 L 65.688 358.5
 L 65.5 358.162
 L 65.1993 357.5
 L 64.9744 356.5
 L 64.8609 355.5
 L 64.7244 354.5
 L 64.6302 353.5
 L 64.5 352.936
 L 64.4183 352.5
 L 64.1878 350.5
 L 64.0385 349.5
 L 63.8522 348.5
 L 63.7346 347.5
 L 63.5846 346.5
 L 63.533 345.5
 L 63.5 345.154
 L 63.3728 343.5
 L 63.2877 342.5
 L 63.1677 341.5
 L 63.0077 340.5
 L 62.7475 339.5
 L 62.5 338.868
 L 62.3497 338.5
 L 61.8846 337.5
 L 61.5 336.801
 L 61.3259 336.5
 L 60.8162 335.5
 L 60.5 334.868
 L 59.776 333.5
 L 59.5 333.031
 L 58.5 331.531
 L 58.4763 331.5
 L 57.8609 330.5
 L 57.3225 329.5
 L 57.0148 328.5
 L 56.8352 327.5
 L 56.8128 326.5
 L 56.8937 324.5
 L 57.0628 323.5
 L 57.2473 322.5
 L 57.486 321.5
 L 57.7475 320.5
 L 57.9649 319.5
 L 58.1678 318.5
 L 58.3425 317.5
 L 58.4829 316.5
 L 58.5846 315.5
 L 58.5385 314.5
 L 58.5 314.327
 L 58.1325 313.5
 L 57.5 312.687
 L 57.1731 312.5
 L 56.5 312.163
 L 55.5 311.979
 L 54.5 311.979
 L 53.5 312.09
 z
 M 98.5 324.801
 L 97.5385 325.5
 L 97.5 325.562
 L 97.0734 326.5
 L 96.8916 327.5
 L 96.9825 328.5
 L 97.1643 329.5
 L 97.5 330.423
 L 97.544 330.5
 L 98.2179 331.5
 L 98.5 331.782
 L 99.5 331.782
 L 100.5 331.115
 L 101.5 329.782
 L 101.669 329.5
 L 101.974 328.5
 L 102.092 327.5
 L 101.808 326.5
 L 101.5 326.038
 L 101.069 325.5
 L 100.5 325.026
 L 99.5 324.692
 z
 M 240.5 507.154
 L 240.327 507.5
 L 239.5 508.327
 L 239.385 508.5
 L 238.762 509.5
 L 238.5 509.827
 L 238.051 510.5
 L 237.562 511.5
 L 237.562 512
 L 241.558 512
 L 241.563 510.5
 L 241.5 509.808
 L 241.438 509.5
 L 241.173 508.5
 L 241.192 507.5
 z
M 256 0   L 512 0   L 512 512   L 256 512 z
 M 371.5 5.32692
 L 371.154 5.5
 L 370.5 5.9359
 L 369.936 6.5
 L 369.654 7.5
 L 370.154 8.5
 L 370.5 8.84615
 L 371.808 9.5
 L 372.808 10.5
 L 373.154 11.5
 L 373.154 12.5
 L 373.5 12.7308
 L 374.5 12.8462
 L 375.192 12.5
 L 375.5 12.1923
 L 375.846 11.5
 L 376.192 10.5
 L 376.5 10.1923
 L 377.846 7.5
 L 378.192 6.5
 L 377.192 5.5
 L 374.5 4.82692
 L 373.5 4.82692
 L 372.5 4.96154
 z
 M 357.5 22.3269
 L 357.154 22.5
 L 356.654 23.5
 L 356.654 24.5
 L 356.603 25.5
 L 356.654 26.5
 L 357.5 27.3462
 L 357.808 27.5
 L 358.5 27.7308
 L 359.5 28.3462
 L 359.808 28.5
 L 360.808 29.5
 L 359.5 30.8077
 L 358.654 32.5
 L 358.654 33.5
 L 359.154 34.5
 L 360.154 35.5
 L 360.154 36.5
 L 359.654 37.5
 L 357.654 39.5
 L 357.5 39.8077
 L 357.269 40.5
 L 357.162 41.5
 L 357.162 42.5
 L 357.077 43.5
 L 356.327 44.5
 L 355.5 45.1615
 L 354.936 45.5
 L 353.603 46.5
 L 353.5 46.6026
 L 352.827 47.5
 L 352.327 48.5
 L 351.5 49.3269
 L 351.362 49.5
 L 349.5 50.8297
 L 348.5 51.4011
 L 348.269 51.5
 L 346.5 52.3846
 L 346.327 52.5
 L 345.5 53.1615
 L 344.5 53.7615
 L 343.5 54.1615
 L 342.5 54.3846
 L 342.269 54.5
 L 341.5 54.9615
 L 340.5 55.3846
 L 340.327 55.5
 L 338.5 56.9615
 L 337.5 57.5615
 L 336.5 58.0513
 L 335.5 58.3846
 L 335.269 58.5
 L 332.5 60.1615
 L 330.827 61.5
 L 330.5 61.8269
 L 329.5 62.5769
 L 327.5 64.1615
 L 326.654 64.5
 L 326.5 64.5769
 L 325.5 65.1615
 L 325.077 65.5
 L 324.077 66.5
 L 323.327 67.5
 L 322.603 68.5
 L 322.269 69.5
 L 321.827 70.5
 L 321.327 71.5
 L 320.936 72.5
 L 320.5 73.8077
 L 320.327 74.5
 L 319.962 75.5
 L 319.5 77.8077
 L 319.327 78.5
 L 319.162 79.5
 L 319.327 80.5
 L 319.577 81.5
 L 319.077 83.5
 L 318.577 84.5
 L 318.5 84.6026
 L 318.051 85.5
 L 317.5 86.3269
 L 317.362 86.5
 L 316.885 87.5
 L 316.385 88.5
 L 316.162 89.5
 L 315.362 91.5
 L 315.077 92.5
 L 314.827 93.5
 L 314.762 94.5
 L 314.762 98.5
 L 314.577 99.5
 L 314.327 100.5
 L 314.327 101.5
 L 314.5 102.192
 L 314.654 102.5
 L 314.654 103.5
 L 314.827 104.5
 L 314.827 107.5
 L 314.577 108.5
 L 314.5 108.654
 L 313.5 110.154
 L 313.362 110.5
 L 312.962 112.5
 L 312.962 113.5
 L 313.162 114.5
 L 313.385 115.5
 L 313.5 116.192
 L 313.577 116.5
 L 313.603 117.5
 L 313.936 118.5
 L 314.5 119.346
 L 314.577 119.5
 L 314.827 120.5
 L 314.936 121.5
 L 314.827 122.5
 L 314.827 123.5
 L 314.962 124.5
 L 315.051 125.5
 L 315.051 127.5
 L 314.885 128.5
 L 314.885 129.5
 L 314.385 132.5
 L 314.115 133.5
 L 313.973 134.5
 L 313.718 135.5
 L 313.5 136.154
 L 313.362 136.5
 L 312.577 137.5
 L 311.827 138.5
 L 310.827 139.5
 L 310.577 140.5
 L 310.827 141.5
 L 310.885 142.5
 L 310.83 143.5
 L 310.663 144.5
 L 310.413 145.5
 L 309.913 146.5
 L 309.5 147.162
 L 309.258 147.5
 L 308.5 148.385
 L 307.162 149.5
 L 306.5 150.162
 L 306.258 150.5
 L 305.687 151.5
 L 305.258 152.5
 L 304.5 153.385
 L 304.327 153.5
 L 303.5 153.973
 L 302.5 154.288
 L 301.654 154.5
 L 301.5 154.551
 L 300.5 154.962
 L 299.5 155.327
 L 298.5 155.827
 L 297.827 156.5
 L 297.5 156.936
 L 297.162 157.5
 L 296.762 158.5
 L 296.562 159.5
 L 296.562 160.5
 L 296.5 160.808
 L 296.077 162.5
 L 296.5 163.346
 L 296.603 163.5
 L 298.269 164.5
 L 298.5 164.615
 L 299.5 164.949
 L 300.5 165.17
 L 301.5 165.337
 L 302.5 165.462
 L 303.5 165.466
 L 304.5 165.462
 L 305.5 165.355
 L 306.5 165.337
 L 307.5 165.355
 L 308.154 165.5
 L 308.5 165.546
 L 309.5 165.668
 L 310.5 165.816
 L 311.5 165.935
 L 312.5 165.985
 L 313.5 165.985
 L 314.5 165.957
 L 315.5 165.981
 L 316.5 166.079
 L 317.5 166.308
 L 318.077 166.5
 L 318.5 166.606
 L 319.5 166.668
 L 320.5 166.658
 L 321.5 166.658
 L 322.5 166.813
 L 323.5 167.092
 L 324.258 167.5
 L 324.5 167.621
 L 325.5 168.058
 L 326.5 168.469
 L 326.603 168.5
 L 327.5 168.745
 L 328.5 168.91
 L 329.5 168.91
 L 331.5 168.688
 L 332.5 168.688
 L 334.5 168.91
 L 335.5 169.087
 L 336.5 169.212
 L 337.654 169.5
 L 338.5 169.782
 L 339.5 170.038
 L 340.269 170.5
 L 340.5 170.615
 L 341.5 170.782
 L 342.5 170.885
 L 344.5 171.17
 L 345.269 171.5
 L 345.5 171.615
 L 346.5 172.038
 L 347.5 172.115
 L 348.5 171.782
 L 348.923 171.5
 L 350.673 170.5
 L 351.5 170.087
 L 352.5 169.837
 L 353.5 169.962
 L 354.5 170.132
 L 356.154 170.5
 L 356.5 170.587
 L 357.5 171.212
 L 357.83 171.5
 L 358.5 172.282
 L 358.631 172.5
 L 359.073 173.5
 L 359.359 174.5
 L 359.692 175.5
 L 360.073 176.5
 L 360.5 177.438
 L 360.531 177.5
 L 361.073 178.5
 L 362.437 181.5
 L 362.5 181.615
 L 363.37 183.5
 L 363.908 184.5
 L 364.379 185.5
 L 364.736 186.5
 L 365.054 187.5
 L 365.332 188.5
 L 365.5 189.038
 L 365.654 189.5
 L 366.457 191.5
 L 366.5 191.599
 L 366.951 192.5
 L 367.808 194.5
 L 368.054 195.5
 L 368.254 196.5
 L 368.32 197.5
 L 368.32 198.5
 L 368.269 199.5
 L 368.32 200.5
 L 368.394 201.5
 L 368.457 202.5
 L 368.4 203.5
 L 368.184 205.5
 L 368.128 206.5
 L 368.128 208.5
 L 368.184 209.5
 L 368.283 210.5
 L 368.342 211.5
 L 368.459 212.5
 L 368.521 213.5
 L 368.521 214.5
 L 368.459 215.5
 L 368.342 216.5
 L 368.283 217.5
 L 368.283 218.5
 L 368.295 219.5
 L 368.411 221.5
 L 368.5 223.192
 L 368.519 223.5
 L 368.4 225.5
 L 368.144 227.5
 L 368.054 228.5
 L 367.987 229.5
 L 367.879 230.5
 L 367.736 231.5
 L 367.121 234.5
 L 366.985 235.5
 L 366.678 237.5
 L 366.5 237.962
 L 366.255 238.5
 L 365.731 239.5
 L 365.5 239.885
 L 365.038 240.5
 L 364.413 241.5
 L 363.868 242.5
 L 363.5 243.327
 L 363.437 243.5
 L 363.164 244.5
 L 362.931 245.5
 L 362.859 246.5
 L 362.859 247.5
 L 362.692 249.5
 L 362.619 250.5
 L 362.692 251.5
 L 362.801 252.5
 L 362.983 253.5
 L 363.192 254.5
 L 363.447 255.5
 L 363.5 255.673
 L 363.801 256.5
 L 364.192 257.5
 L 364.526 258.5
 L 364.808 259.5
 L 365.522 261.5
 L 366.5 263.949
 L 366.754 264.5
 L 367.276 265.5
 L 367.5 265.885
 L 367.931 266.5
 L 368.5 267.449
 L 369.5 268.615
 L 370.5 269.456
 L 370.562 269.5
 L 371.5 270.282
 L 373.5 271.615
 L 374.5 272.115
 L 375.077 272.5
 L 375.5 272.742
 L 376.5 273.449
 L 376.562 273.5
 L 377.5 274.17
 L 377.885 274.5
 L 378.5 275.115
 L 378.788 275.5
 L 379.423 276.5
 L 379.5 276.638
 L 380.346 278.5
 L 380.5 278.782
 L 380.931 279.5
 L 381.831 280.5
 L 382.5 281.108
 L 383.038 281.5
 L 383.5 281.91
 L 384.385 282.5
 L 384.5 282.599
 L 385.5 283.282
 L 385.827 283.5
 L 386.577 284.5
 L 386.827 285.5
 L 386.936 286.5
 L 387.269 287.5
 L 387.5 287.731
 L 388.077 288.5
 L 390.077 290.5
 L 390.5 291.346
 L 390.603 291.5
 L 390.5 291.577
 L 389.5 292.162
 L 388.936 292.5
 L 388.5 292.609
 L 387.5 292.754
 L 385.5 292.908
 L 384.5 293.062
 L 383.5 293.254
 L 382.5 293.457
 L 382.327 293.5
 L 381.5 293.674
 L 380.5 293.779
 L 379.5 293.865
 L 376.5 293.715
 L 375.5 293.705
 L 372.5 293.848
 L 371.5 293.923
 L 370.5 293.992
 L 369.5 294.096
 L 368.5 294.232
 L 367.5 294.435
 L 367.218 294.5
 L 366.5 294.739
 L 365.5 295.115
 L 364.645 295.5
 L 364.5 295.619
 L 363.5 296.293
 L 363.163 296.5
 L 362.718 297.5
 L 363.5 298.438
 L 363.603 298.5
 L 364.5 298.769
 L 365.5 299.017
 L 367.5 299.563
 L 368.5 299.869
 L 369.5 300.199
 L 370.327 300.5
 L 370.5 300.577
 L 371.5 300.91
 L 372.5 301.132
 L 373.5 301.369
 L 373.936 301.5
 L 374.5 301.712
 L 375.5 302.17
 L 375.962 302.5
 L 377.162 303.5
 L 377.5 303.923
 L 378.551 305.5
 L 378.962 306.5
 L 379.5 307.397
 L 380.327 308.5
 L 380.5 308.846
 L 381.5 310.346
 L 381.654 310.5
 L 382.5 310.782
 L 383.5 311.027
 L 385.5 311.244
 L 386.5 311.469
 L 386.577 311.5
 L 387.5 311.836
 L 388.5 312.269
 L 388.885 312.5
 L 389.385 313.5
 L 388.5 314.09
 L 387.762 314.5
 L 386.5 314.871
 L 385.5 315.121
 L 384.5 315.321
 L 383.5 315.451
 L 382.5 315.454
 L 381.5 315.332
 L 380.5 315.283
 L 379.5 315.342
 L 378.603 315.5
 L 378.5 315.513
 L 377.5 315.787
 L 376.5 316.196
 L 375.5 316.741
 L 374.5 317.315
 L 374.164 317.5
 L 373.5 317.957
 L 372.776 318.5
 L 372.5 318.801
 L 371.908 319.5
 L 371.526 320.5
 L 371.5 320.654
 L 371.312 321.5
 L 371.218 322.5
 L 370.936 323.5
 L 370.5 323.762
 L 370.173 323.5
 L 369.5 323.115
 L 368.5 322.531
 L 368.423 322.5
 L 367.5 322.164
 L 366.5 322.276
 L 366.051 322.5
 L 365.5 322.736
 L 364.312 323.5
 L 363.5 324.109
 L 363.109 324.5
 L 362.524 325.5
 L 362.216 326.5
 L 361.985 327.5
 L 361.859 328.5
 L 361.859 329.5
 L 361.942 330.5
 L 361.983 331.5
 L 362.131 332.5
 L 362.201 333.5
 L 362.413 334.5
 L 362.5 334.673
 L 362.831 335.5
 L 363.5 336.244
 L 363.788 336.5
 L 364.5 336.759
 L 365.5 337.029
 L 366.5 337.168
 L 367.5 337.218
 L 368.5 337.097
 L 369.5 336.792
 L 370.085 336.5
 L 370.5 336.232
 L 371.487 335.5
 L 371.5 335.485
 L 372.5 334.785
 L 373.5 334.946
 L 373.962 335.5
 L 374.5 336.192
 L 374.696 336.5
 L 375.5 337.385
 L 375.636 337.5
 L 376.5 337.92
 L 377.5 338.194
 L 378.5 338.36
 L 379.5 338.492
 L 381.5 338.579
 L 382.5 338.577
 L 383.5 338.514
 L 384.5 338.371
 L 385.5 338.2
 L 386.5 337.925
 L 387.5 337.515
 L 387.53 337.5
 L 388.5 336.969
 L 389.5 336.545
 L 390.5 336.573
 L 392.5 337.469
 L 392.609 337.5
 L 393.5 337.714
 L 394.5 337.821
 L 395.5 337.853
 L 396.5 337.865
 L 399.5 337.809
 L 400.5 337.803
 L 401.5 337.78
 L 402.5 337.645
 L 402.981 337.5
 L 403.5 337.352
 L 404.5 336.848
 L 404.964 336.5
 L 405.5 336.017
 L 406.091 335.5
 L 406.5 335.113
 L 407.5 334.826
 L 408.5 335.014
 L 409.5 335.306
 L 410.359 335.5
 L 410.5 335.535
 L 411.5 335.721
 L 412.5 335.822
 L 413.5 335.852
 L 414.5 335.798
 L 415.5 335.609
 L 415.816 335.5
 L 416.5 335.272
 L 417.5 334.689
 L 417.729 334.5
 L 418.5 333.708
 L 418.708 333.5
 L 419.5 332.584
 L 419.692 332.5
 L 420.5 332.167
 L 421.5 332.52
 L 422.5 333.285
 L 422.736 333.5
 L 423.5 334.218
 L 423.81 334.5
 L 424.5 335.031
 L 425.263 335.5
 L 425.5 335.626
 L 426.5 336.004
 L 427.5 336.293
 L 428.5 336.492
 L 429.5 336.519
 L 429.587 336.5
 L 430.5 336.229
 L 431.5 335.688
 L 431.861 335.5
 L 432.5 335.154
 L 433.5 334.965
 L 434.5 335.313
 L 434.769 335.5
 L 435.5 335.987
 L 436.224 336.5
 L 436.5 336.662
 L 437.5 336.959
 L 438.5 336.932
 L 439.5 336.726
 L 440.355 336.5
 L 441.5 336.234
 L 442.5 336.084
 L 443.5 336.05
 L 444.5 336.071
 L 445.5 336.112
 L 446.5 336.182
 L 447.5 336.293
 L 448.5 336.492
 L 448.526 336.5
 L 449.426 337.5
 L 449.178 338.5
 L 448.4 339.5
 L 447.5 340.368
 L 447.352 340.5
 L 446.5 341.21
 L 446.105 341.5
 L 445.5 341.916
 L 444.5 342.454
 L 442.5 343.427
 L 442.365 343.5
 L 441.5 344.009
 L 440.573 344.5
 L 440.5 344.542
 L 439.5 344.98
 L 438.5 345.28
 L 437.645 345.5
 L 437.5 345.545
 L 436.5 345.734
 L 435.5 345.846
 L 434.5 345.779
 L 433.615 345.5
 L 432.5 344.879
 L 431.5 344.582
 L 431.064 344.5
 L 430.5 344.429
 L 429.5 344.289
 L 428.5 344.177
 L 427.5 344.11
 L 426.5 344.058
 L 425.5 344.058
 L 424.5 344.072
 L 423.5 344.177
 L 422.5 344.373
 L 422.09 344.5
 L 421.5 344.704
 L 420.5 345.104
 L 419.528 345.5
 L 419.5 345.512
 L 418.5 345.896
 L 416.756 346.5
 L 416.5 346.6
 L 415.5 346.861
 L 414.5 346.943
 L 413.5 346.915
 L 412.5 346.815
 L 410.5 346.715
 L 409.5 346.621
 L 408.731 346.5
 L 408.5 346.472
 L 407.5 346.435
 L 406.5 346.44
 L 406.218 346.5
 L 405.5 346.696
 L 404.5 347.096
 L 403.754 347.5
 L 403.5 347.684
 L 402.5 348.365
 L 402.308 348.5
 L 401.5 349.095
 L 400.859 349.5
 L 400.5 349.739
 L 399.5 350.315
 L 399.131 350.5
 L 398.5 350.832
 L 397.5 351.241
 L 396.551 351.5
 L 396.5 351.517
 L 395.5 351.815
 L 394.5 352.065
 L 393.5 352.265
 L 392.5 352.406
 L 391.5 352.358
 L 390.5 352.2
 L 389.5 352.017
 L 388.5 351.795
 L 387.5 351.582
 L 387.173 351.5
 L 386.5 351.358
 L 385.5 351.239
 L 384.5 351.224
 L 383.5 351.394
 L 383.162 351.5
 L 382.5 351.776
 L 381.5 352.293
 L 381.051 352.5
 L 380.5 352.736
 L 379.5 353.048
 L 377.5 353.464
 L 377.269 353.5
 L 376.5 353.644
 L 374.5 354.144
 L 373.5 354.457
 L 373.385 354.5
 L 372.5 354.983
 L 371.5 355.293
 L 370.603 355.5
 L 370.5 355.534
 L 369.5 355.538
 L 369.346 355.5
 L 368.5 355.406
 L 367.5 355.332
 L 366.5 355.236
 L 365.5 355.276
 L 364.5 355.423
 L 364.154 355.5
 L 363.936 356.5
 L 364.603 357.5
 L 364.577 358.5
 L 364.5 358.603
 L 363.5 359.269
 L 362.808 359.5
 L 361.808 360.5
 L 362.5 361.192
 L 362.577 361.5
 L 363.077 362.5
 L 364.5 364.397
 L 364.551 364.5
 L 365.162 365.5
 L 366.5 366.838
 L 368.5 368.438
 L 368.551 368.5
 L 369.218 369.5
 L 369.718 370.5
 L 370.051 371.5
 L 370.362 372.5
 L 370.5 373.192
 L 370.827 374.5
 L 370.962 375.5
 L 370.762 376.5
 L 369.962 378.5
 L 369.762 379.5
 L 369.962 380.5
 L 370.5 381.846
 L 370.827 382.5
 L 371.077 383.5
 L 371.162 384.5
 L 371.077 385.5
 L 370.827 386.5
 L 370.5 387.154
 L 370.269 387.5
 L 368.5 388.827
 L 367.5 389.827
 L 366.962 390.5
 L 366.5 391.269
 L 366.327 391.5
 L 365.762 392.5
 L 365.5 393.154
 L 365.327 393.5
 L 364.962 394.5
 L 364.762 395.5
 L 364.577 396.5
 L 363.827 399.5
 L 363.936 400.5
 L 364.327 401.5
 L 364.5 401.846
 L 365.5 403.346
 L 367.5 404.346
 L 367.603 404.5
 L 367.936 405.5
 L 368.162 406.5
 L 368.327 407.5
 L 368.5 408.192
 L 368.551 408.5
 L 368.562 409.5
 L 368.562 411.5
 L 368.5 411.654
 L 368.077 412.5
 L 367.5 413.269
 L 366.5 414.269
 L 365.5 414.936
 L 364.936 415.5
 L 364.269 416.5
 L 363.936 417.5
 L 364.162 418.5
 L 364.562 420.5
 L 364.962 421.5
 L 365.327 422.5
 L 365.5 422.846
 L 366.162 424.5
 L 367.5 426.731
 L 369.5 429.397
 L 369.562 429.5
 L 371.218 431.5
 L 371.5 431.923
 L 372.762 433.5
 L 373.5 434.238
 L 376.5 436.638
 L 377.936 437.5
 L 379.5 438.673
 L 380.327 439.5
 L 380.5 439.638
 L 381.5 440.173
 L 382.154 440.5
 L 382.5 440.731
 L 383.5 441.173
 L 384.808 441.5
 L 385.5 441.846
 L 386.5 442.397
 L 387.5 442.423
 L 387.808 442.5
 L 388.5 442.731
 L 389.5 443.346
 L 390.5 443.397
 L 390.808 443.5
 L 393.5 444.846
 L 394.5 444.846
 L 395.808 445.5
 L 396.5 446.192
 L 397.5 446.192
 L 398.808 447.5
 L 399.5 447.846
 L 401.5 447.846
 L 402.5 448.346
 L 404.5 448.346
 L 404.808 448.5
 L 405.5 448.673
 L 406.5 448.673
 L 407.5 448.731
 L 408.5 448.923
 L 409.5 448.923
 L 410.5 448.731
 L 411.5 448.923
 L 412.5 448.923
 L 413.5 449.064
 L 414.154 449.5
 L 414.154 450.5
 L 413.154 451.5
 L 411.654 452.5
 L 410.654 453.5
 L 410.5 453.603
 L 408.603 455.5
 L 408.5 455.654
 L 407.654 456.5
 L 407.154 457.5
 L 406.154 458.5
 L 406.154 464.5
 L 405.808 465.5
 L 405.808 469.5
 L 408.5 472.192
 L 408.654 472.5
 L 408.808 473.5
 L 409.5 474.192
 L 409.654 474.5
 L 409.808 475.5
 L 410.154 476.5
 L 410.654 477.5
 L 410.808 478.5
 L 411.154 479.5
 L 411.654 480.5
 L 411.808 481.5
 L 412.154 482.5
 L 412.654 483.5
 L 412.5 483.654
 L 411.269 485.5
 L 410.654 486.5
 L 410.154 487.5
 L 409.603 488.5
 L 409.5 488.654
 L 408.654 489.5
 L 408.154 490.5
 L 407.603 491.5
 L 406.5 493.154
 L 404.5 495.154
 L 403.603 496.5
 L 402.5 497.603
 L 401.5 498.269
 L 400.269 499.5
 L 399.5 500.654
 L 398.5 501.654
 L 397.5 503.154
 L 397.154 503.5
 L 396.603 504.5
 L 396.5 504.808
 L 396.154 505.5
 L 395.603 506.5
 L 395.269 507.5
 L 395.269 512
 L 487.836 512
 L 487.836 511.5
 L 487.745 510.5
 L 487.724 509.5
 L 487.784 508.5
 L 487.978 507.5
 L 488.146 506.5
 L 488.356 505.5
 L 488.606 504.5
 L 489.188 502.5
 L 489.541 501.5
 L 490.478 498.5
 L 490.68 497.5
 L 490.784 496.5
 L 490.563 495.5
 L 490.5 495.362
 L 489.5 494.538
 L 488.5 494.528
 L 487.5 494.736
 L 486.5 494.987
 L 485.5 495.379
 L 484.5 495.736
 L 483.5 496.165
 L 482.562 496.5
 L 482.5 496.524
 L 481.5 496.951
 L 480.5 497.321
 L 480.115 497.5
 L 478.5 498.308
 L 477.5 498.736
 L 476.5 499.187
 L 475.83 499.5
 L 475.5 499.665
 L 474.5 500.207
 L 473.5 500.769
 L 472.5 501.321
 L 471.5 501.787
 L 470.5 502.269
 L 469.885 502.5
 L 469.5 502.665
 L 468.5 503.022
 L 467.5 503.255
 L 466.5 503.231
 L 465.5 502.687
 L 465.381 502.5
 L 465.246 501.5
 L 465.478 500.5
 L 465.907 499.5
 L 466.5 498.462
 L 467.013 497.5
 L 467.613 496.5
 L 468.146 495.5
 L 468.5 494.91
 L 468.731 494.5
 L 469.264 493.5
 L 469.764 492.5
 L 470.399 491.5
 L 471.015 490.5
 L 471.784 489.5
 L 472.391 488.5
 L 472.974 487.5
 L 473.381 486.5
 L 473.5 486.064
 L 473.669 485.5
 L 474.058 484.5
 L 474.391 483.5
 L 474.808 482.5
 L 475.322 481.5
 L 475.5 481.038
 L 475.745 480.5
 L 476.246 479.5
 L 476.5 478.949
 L 476.692 478.5
 L 477.413 476.5
 L 477.5 476.282
 L 477.835 475.5
 L 478.213 474.5
 L 478.613 473.5
 L 479.346 471.5
 L 479.5 471.17
 L 479.793 470.5
 L 480.213 469.5
 L 480.5 468.885
 L 480.658 468.5
 L 481.106 467.5
 L 481.5 466.712
 L 481.594 466.5
 L 482.07 465.5
 L 482.5 464.688
 L 482.594 464.5
 L 482.983 463.5
 L 483.481 462.5
 L 483.5 462.466
 L 484.011 461.5
 L 484.5 460.745
 L 484.642 460.5
 L 485.188 459.5
 L 485.5 459.017
 L 485.816 458.5
 L 486.479 457.5
 L 486.5 457.472
 L 487.129 456.5
 L 488.5 454.558
 L 490.479 451.5
 L 490.5 451.466
 L 492.168 448.5
 L 493.5 445.837
 L 493.68 445.5
 L 494.279 444.5
 L 494.5 444.199
 L 494.981 443.5
 L 495.856 442.5
 L 496.5 441.813
 L 496.776 441.5
 L 497.717 440.5
 L 498.5 439.717
 L 498.731 439.5
 L 499.5 438.731
 L 499.717 438.5
 L 500.5 437.549
 L 500.543 437.5
 L 501.356 436.5
 L 501.5 436.308
 L 502.146 435.5
 L 502.813 434.5
 L 503.413 433.5
 L 503.5 433.313
 L 503.856 432.5
 L 504.106 431.5
 L 504.213 430.5
 L 504.168 429.5
 L 504.043 428.5
 L 504.011 427.5
 L 504.106 426.5
 L 504.231 425.5
 L 504.418 424.5
 L 504.5 424.238
 L 504.746 423.5
 L 505.049 422.5
 L 505.246 421.5
 L 505.092 419.5
 L 505.121 418.5
 L 505.322 417.5
 L 505.5 417.17
 L 506.17 416.5
 L 506.5 416.115
 L 507.5 416.238
 L 507.936 416.5
 L 509.5 416.927
 L 510.5 417.108
 L 511.5 416.869
 L 512 416.869
 L 512 413.544
 L 511.5 413.544
 L 511.397 413.5
 L 511.173 412.5
 L 511.5 412.369
 L 512 412.369
 L 512 122.687
 L 511.5 122.687
 L 509.5 120.687
 L 509.369 120.5
 L 508.5 119.534
 L 508.474 119.5
 L 507.5 118.288
 L 506.199 116.5
 L 505.688 115.5
 L 505.5 115.077
 L 505.17 114.5
 L 504.838 113.5
 L 504.438 112.5
 L 503.962 111.5
 L 503.641 110.5
 L 502.974 109.5
 L 502.5 108.868
 L 502.246 108.5
 L 501.589 107.5
 L 501.5 107.379
 L 500.816 106.5
 L 499.872 105.5
 L 499.5 105.128
 L 498.793 104.5
 L 498.5 104.277
 L 497.541 103.5
 L 496.5 102.684
 L 496.279 102.5
 L 495.013 101.5
 L 494.5 101.073
 L 493.764 100.5
 L 493.5 100.283
 L 492.5 99.522
 L 492.469 99.5
 L 491.5 98.8538
 L 490.5 97.9872
 L 489.891 97.5
 L 488.724 96.5
 L 487.641 95.5
 L 487.5 95.359
 L 486.563 94.5
 L 486.5 94.4467
 L 485.5 93.7756
 L 484.5 93.0256
 L 483.5 92.1923
 L 482.808 91.5
 L 482.5 91.216
 L 481.5 90.216
 L 480.724 89.5
 L 480.5 89.2756
 L 479.654 88.5
 L 479.5 88.3308
 L 478.577 87.5
 L 477.577 86.5
 L 475.391 84.5
 L 474.5 83.609
 L 473.5 82.6923
 L 473.244 82.5
 L 472.5 81.8308
 L 472.027 81.5
 L 471.5 81.0897
 L 470.615 80.5
 L 470.5 80.4011
 L 469.5 79.6308
 L 469.282 79.5
 L 468.5 78.9135
 L 467.838 78.5
 L 467.5 78.2582
 L 466.5 77.7308
 L 466.038 77.5
 L 465.5 77.1635
 L 464.5 76.4135
 L 463.5 75.6189
 L 462.132 74.5
 L 460.799 73.5
 L 460.5 73.2308
 L 459.587 72.5
 L 459.5 72.4231
 L 458.5 71.6006
 L 458.355 71.5
 L 457.021 70.5
 L 456.5 70.0734
 L 455.599 69.5
 L 455.5 69.4308
 L 454.5 68.8314
 L 453.5 68.2929
 L 452.5 67.7692
 L 452.021 67.5
 L 450.472 66.5
 L 449.017 65.5
 L 448.5 65.0934
 L 447.669 64.5
 L 446.569 63.5
 L 445.669 62.5
 L 445.5 62.3462
 L 444.5 61.6006
 L 444.337 61.5
 L 443.5 60.9423
 L 442.5 60.4423
 L 441.5 59.8791
 L 440.742 59.5
 L 439.5 58.7872
 L 438.962 58.5
 L 438.5 58.216
 L 437.5 57.6442
 L 437.212 57.5
 L 435.5 56.5817
 L 435.313 56.5
 L 434.5 56.1205
 L 433.5 55.5817
 L 433.337 55.5
 L 431.587 54.5
 L 431.5 54.4467
 L 429.5 53.1648
 L 428.5 52.5872
 L 428.313 52.5
 L 427.5 52.0934
 L 426.5 51.5205
 L 424.5 50.5817
 L 424.313 50.5
 L 422.5 49.5872
 L 422.313 49.5
 L 421.5 49.0621
 L 420.5 48.5934
 L 420.313 48.5
 L 419.5 48.0256
 L 418.5 47.5237
 L 418.449 47.5
 L 416.5 46.5237
 L 415.5 46.0621
 L 414.5 45.6648
 L 414.115 45.5
 L 412.5 44.7544
 L 411.673 44.5
 L 411.5 44.4423
 L 410.5 43.9423
 L 409.173 43.5
 L 407.5 42.8916
 L 406.5 42.6189
 L 405.5 42.4371
 L 401.731 41.5
 L 401.5 41.4371
 L 400.5 41.0734
 L 399.5 40.7308
 L 398.923 40.5
 L 398.5 40.3462
 L 397.5 40.0308
 L 396.173 39.5
 L 395.5 39.2552
 L 393.5 38.7098
 L 392.346 38.5
 L 390.5 38.1308
 L 389.5 37.9786
 L 387.5 37.5342
 L 387.192 37.5
 L 386.5 37.3846
 L 385.5 37.2582
 L 381.5 37.2582
 L 380.5 37.3846
 L 379.5 37.3846
 L 378.5 37.5513
 L 377.5 37.5615
 L 376.5 37.7179
 L 375.5 37.8269
 L 374.154 38.5
 L 373.5 38.9359
 L 371.936 40.5
 L 371.5 40.7615
 L 370.5 41.1615
 L 369.5 41.3269
 L 367.5 40.8269
 L 366.846 40.5
 L 366.5 40.2692
 L 365.5 39.6538
 L 365.192 39.5
 L 364.5 38.8077
 L 364.346 38.5
 L 364.192 37.5
 L 364.192 36.5
 L 364.5 36.1923
 L 364.846 35.5
 L 365.846 34.5
 L 366.346 33.5
 L 367.346 32.5
 L 368.346 30.5
 L 368.192 29.5
 L 364.5 25.8077
 L 364.397 25.5
 L 363.5 24.6026
 L 363.346 24.5
 L 362.731 23.5
 L 362.064 22.5
 L 361.5 21.9359
 L 360.5 21.6026
 L 359.5 21.6026
 L 358.5 21.9359
 z
 M 504.5 68.3615
 L 503.5 68.5615
 L 502.5 69.2692
 L 502.327 69.5
 L 502.051 70.5
 L 501.885 71.5
 L 501.5 72.2692
 L 501.327 72.5
 L 500.5 73.0513
 L 499.5 72.9615
 L 498.5 72.6868
 L 496.5 71.5385
 L 496.346 71.5
 L 495.5 71.3308
 L 494.5 71.2308
 L 493.5 71.4135
 L 493.154 71.5
 L 492.5 71.9359
 L 492.162 72.5
 L 492.115 73.5
 L 492.115 74.5
 L 492.077 75.5
 L 492.269 76.5
 L 491.5 77.2692
 L 490.5 77.2692
 L 489.5 76.8269
 L 488.846 76.5
 L 488.5 76.3846
 L 486.731 75.5
 L 486.5 75.3615
 L 485.5 74.9615
 L 484.5 74.5769
 L 483.5 74.5769
 L 482.5 74.5513
 L 482.192 74.5
 L 481.5 74.4011
 L 480.5 74.1635
 L 479.5 73.6868
 L 479.173 73.5
 L 478.5 73.0513
 L 477.5 72.5615
 L 477.346 72.5
 L 476.5 72.0769
 L 475.5 71.8269
 L 474.5 71.3269
 L 473.5 70.9359
 L 471.5 70.2692
 L 470.5 70.0769
 L 469.5 70.2692
 L 469.269 70.5
 L 468.936 71.5
 L 469.077 72.5
 L 469.5 73.3462
 L 470.654 74.5
 L 472.5 75.7308
 L 473.5 76.7308
 L 475.5 78.0641
 L 476.5 78.4231
 L 476.654 78.5
 L 478.5 79.1154
 L 479.5 79.3132
 L 480.5 79.5989
 L 481.5 80.1154
 L 482.269 80.5
 L 483.5 81.2385
 L 484.5 81.6385
 L 485.5 81.6731
 L 486.5 82.0641
 L 486.936 82.5
 L 487.5 82.8385
 L 488.162 83.5
 L 488.5 83.9231
 L 488.885 84.5
 L 489.5 85.1154
 L 489.83 85.5
 L 490.973 86.5
 L 491.5 86.9103
 L 492.5 87.7991
 L 493.401 88.5
 L 493.5 88.5629
 L 494.5 88.9103
 L 495.5 89.1325
 L 496.5 89.3132
 L 497.154 89.5
 L 497.5 89.5865
 L 498.5 89.9487
 L 499.5 90.4231
 L 499.654 90.5
 L 500.5 90.8385
 L 501.5 90.6385
 L 501.638 90.5
 L 502.173 89.5
 L 502.173 88.5
 L 501.923 87.5
 L 501.731 86.5
 L 502.192 85.5
 L 502.5 85.4385
 L 503.5 85.6385
 L 504.5 85.5989
 L 505.5 85.5865
 L 506.192 85.5
 L 506.5 85.456
 L 507.5 85.1154
 L 508.423 84.5
 L 508.5 84.4385
 L 509.5 83.6731
 L 509.846 83.5
 L 510.5 83.2385
 L 511.5 83.1154
 L 512 83.1154
 L 512 74.5513
 L 511.5 74.5513
 L 510.587 73.5
 L 510.5 73.3615
 L 509.5 71.5615
 L 509.456 71.5
 L 508.638 70.5
 L 508.5 70.3269
 L 507.5 69.5615
 L 507.346 69.5
 L 505.846 68.5
 L 505.5 68.3615
 z
 M 434.5 152.438
 L 434.173 152.5
 L 433.5 152.65
 L 432.5 152.852
 L 431.5 153.063
 L 429.5 153.385
 L 428.923 153.5
 L 428.5 153.594
 L 427.5 153.785
 L 426.5 153.935
 L 425.5 154.104
 L 423.5 154.486
 L 423.438 154.5
 L 422.5 154.793
 L 421.5 155.043
 L 420.5 155.247
 L 419.5 155.481
 L 419.397 155.5
 L 418.5 155.769
 L 416.673 156.5
 L 416.5 156.731
 L 415.731 157.5
 L 416.346 158.5
 L 416.5 158.551
 L 417.5 158.544
 L 418.5 158.756
 L 419.5 159.038
 L 420.238 159.5
 L 420.5 159.718
 L 421.5 160.288
 L 422.346 160.5
 L 422.5 160.534
 L 424.5 160.756
 L 425.5 160.913
 L 426.5 161.163
 L 427.5 161.423
 L 428.5 161.442
 L 429.5 161.308
 L 431.5 160.906
 L 432.5 160.727
 L 433.5 160.569
 L 434.154 160.5
 L 434.5 160.467
 L 436.5 160.209
 L 437.5 160.059
 L 438.5 159.896
 L 439.5 159.715
 L 440.5 159.517
 L 441.5 159.295
 L 442.5 159.106
 L 443.5 158.957
 L 444.5 158.769
 L 445.5 158.695
 L 446.5 158.577
 L 447.5 158.517
 L 447.577 158.5
 L 448.5 158.216
 L 449.5 157.801
 L 449.973 157.5
 L 450.5 156.762
 L 450.718 156.5
 L 450.562 155.5
 L 450.5 155.438
 L 449.718 154.5
 L 449.5 154.282
 L 448.562 153.5
 L 448.5 153.397
 L 447.5 152.638
 L 446.808 152.5
 L 446.5 152.462
 L 445.5 152.269
 L 444.5 152.224
 L 443.5 152.224
 L 441.5 152.264
 L 440.5 152.231
 L 439.5 152.247
 L 438.5 152.221
 L 437.5 152.221
 L 436.5 152.235
 L 435.5 152.285
 z
 M 310.5 176.411
 L 309.5 176.621
 L 308.5 176.85
 L 307.5 177.073
 L 306.5 177.239
 L 305.5 177.462
 L 304.5 177.621
 L 303.5 177.865
 L 302.5 178.065
 L 301.5 178.306
 L 300.5 178.517
 L 299.5 178.695
 L 296.762 179.5
 L 296.5 179.593
 L 295.5 180.093
 L 294.788 180.5
 L 294.5 180.756
 L 293.756 181.5
 L 293.09 182.5
 L 292.788 183.5
 L 292.538 184.5
 L 292.534 185.5
 L 292.5 185.808
 L 292.413 186.5
 L 292.5 187.192
 L 292.544 187.5
 L 292.718 188.5
 L 292.962 189.5
 L 293.5 192.192
 L 293.577 192.5
 L 294.077 193.5
 L 295.077 194.5
 L 295.5 194.838
 L 296.5 195.282
 L 296.936 195.5
 L 297.5 195.838
 L 299.154 196.5
 L 299.5 196.599
 L 300.5 196.742
 L 301.5 197.027
 L 302.5 197.449
 L 302.603 197.5
 L 303.5 198.173
 L 304.5 199.173
 L 304.936 199.5
 L 305.5 199.838
 L 306.5 200.456
 L 306.603 200.5
 L 307.5 200.679
 L 308.5 200.705
 L 309.5 200.771
 L 310.5 200.804
 L 311.5 200.747
 L 313.5 200.574
 L 314.064 200.5
 L 315.5 200.34
 L 317.5 200.132
 L 318.5 200.096
 L 319.5 200.096
 L 320.5 200.168
 L 321.5 200.275
 L 322.5 200.452
 L 322.687 200.5
 L 323.5 200.879
 L 324.165 201.5
 L 323.734 202.5
 L 323.5 202.985
 L 323.284 203.5
 L 323.127 204.5
 L 323.304 205.5
 L 323.5 206.132
 L 323.707 206.5
 L 323.983 207.5
 L 323.5 208.385
 L 323.451 208.5
 L 322.645 209.5
 L 322.5 209.619
 L 321.5 210.342
 L 321.115 210.5
 L 320.5 210.739
 L 319.5 210.943
 L 318.5 210.943
 L 317.5 210.779
 L 316.615 210.5
 L 316.5 210.467
 L 315.5 210.022
 L 314.769 209.5
 L 314.5 209.231
 L 313.5 208.663
 L 312.5 208.973
 L 311.973 209.5
 L 311.5 210.327
 L 311.413 210.5
 L 311.115 211.5
 L 311.051 212.5
 L 310.962 213.5
 L 310.827 214.5
 L 311.827 215.5
 L 312.5 215.885
 L 313.362 216.5
 L 313.5 216.673
 L 313.913 217.5
 L 313.913 218.5
 L 313.538 219.5
 L 313.5 219.562
 L 312.562 220.5
 L 312.5 220.577
 L 311.577 221.5
 L 311.5 221.808
 L 311.362 222.5
 L 311.5 222.731
 L 312.269 223.5
 L 312.5 223.673
 L 313.5 224.173
 L 314.5 224.438
 L 315.5 224.456
 L 316.5 224.599
 L 317.5 224.587
 L 318.192 224.5
 L 318.5 224.466
 L 319.5 224.141
 L 320.5 223.764
 L 321.5 223.335
 L 322.5 222.776
 L 324.472 221.5
 L 324.5 221.483
 L 325.5 220.819
 L 326.5 220.057
 L 327.15 219.5
 L 327.5 219.185
 L 328.5 218.135
 L 329.077 217.5
 L 329.5 217.01
 L 329.904 216.5
 L 330.5 215.658
 L 330.604 215.5
 L 331.044 214.5
 L 331.408 213.5
 L 331.5 213.17
 L 331.68 212.5
 L 331.808 211.5
 L 331.581 210.5
 L 331.5 210.394
 L 330.5 209.565
 L 330.337 209.5
 L 329.5 209.232
 L 328.5 209.014
 L 327.5 208.832
 L 326.615 208.5
 L 326.5 208.269
 L 326.212 207.5
 L 326.5 207.269
 L 327.049 206.5
 L 327.5 206.129
 L 328.035 205.5
 L 328.5 204.569
 L 328.53 204.5
 L 328.737 203.5
 L 328.835 202.5
 L 329.5 201.835
 L 330.5 201.661
 L 331.5 201.527
 L 332.5 201.18
 L 333.431 200.5
 L 333.5 200.418
 L 334.065 199.5
 L 334.248 198.5
 L 334.273 197.5
 L 334.5 196.638
 L 334.558 196.5
 L 336.058 195.5
 L 336.5 195.188
 L 337.15 194.5
 L 337.5 193.869
 L 337.676 193.5
 L 337.986 192.5
 L 338.168 191.5
 L 338.342 190.5
 L 338.441 189.5
 L 338.531 188.5
 L 338.533 187.5
 L 338.581 186.5
 L 338.589 185.5
 L 338.538 184.5
 L 338.5 184.269
 L 338.346 183.5
 L 337.938 182.5
 L 337.5 181.687
 L 337.369 181.5
 L 336.5 180.631
 L 336.337 180.5
 L 335.5 179.892
 L 334.638 179.5
 L 334.5 179.442
 L 333.5 179.062
 L 332.5 178.808
 L 331.5 178.587
 L 329.5 178.048
 L 327.5 177.459
 L 326.5 177.2
 L 325.5 177.065
 L 324.5 176.896
 L 323.5 176.741
 L 322.5 176.6
 L 321.5 176.513
 L 319.5 176.423
 L 317.5 176.241
 L 315.5 176.15
 L 314.5 176.134
 L 313.5 176.105
 L 312.5 176.15
 L 311.5 176.229
 z
 M 436.5 181.391
 L 435.846 181.5
 L 435.5 181.577
 L 434.5 181.769
 L 433.5 182.108
 L 432.638 182.5
 L 432.5 182.577
 L 430.638 183.5
 L 428.838 184.5
 L 428.5 184.712
 L 427.5 185.313
 L 426.5 186.17
 L 425.5 186.885
 L 424.5 187.742
 L 423.5 188.456
 L 423.456 188.5
 L 422.599 189.5
 L 422.5 189.638
 L 421.782 190.5
 L 421.115 191.5
 L 419.449 193.5
 L 418.782 194.5
 L 418.282 195.5
 L 417.885 196.5
 L 417.5 197.173
 L 417.337 197.5
 L 416.724 198.5
 L 416.5 198.799
 L 415.5 200.355
 L 415.423 200.5
 L 415.013 201.5
 L 415.017 202.5
 L 415.5 203.031
 L 416.438 203.5
 L 416.5 203.522
 L 417.5 203.721
 L 418.5 203.894
 L 419.5 204.144
 L 420.5 204.321
 L 421.397 204.5
 L 421.5 204.528
 L 423.5 204.731
 L 424.5 204.868
 L 425.5 204.913
 L 426.5 204.973
 L 427.5 204.962
 L 428.5 205.269
 L 428.846 205.5
 L 429.5 205.762
 L 430.5 205.962
 L 431.5 205.962
 L 432.5 205.762
 L 433.5 205.827
 L 434.5 205.936
 L 435.5 206.603
 L 436.5 206.936
 L 437.5 206.936
 L 438.5 207.154
 L 439.5 207.269
 L 440.5 206.827
 L 441.154 206.5
 L 441.654 205.5
 L 441.5 205.346
 L 440.5 204.846
 L 439.5 204.731
 L 438.5 204.397
 L 437.5 204.173
 L 436.5 204.038
 L 435.5 204.064
 L 434.654 203.5
 L 432.654 202.5
 L 432.5 202.397
 L 431.5 201.846
 L 431.269 201.5
 L 431.5 200.808
 L 431.654 200.5
 L 432.5 200.218
 L 433.5 200.258
 L 434.5 200.423
 L 434.846 200.5
 L 435.5 200.687
 L 436.5 200.868
 L 437.5 201.073
 L 438.5 201.164
 L 439.5 201.201
 L 440.5 201.115
 L 442.5 201.115
 L 443.5 201.288
 L 444.5 201.413
 L 445.5 201.312
 L 446.5 201.163
 L 447.5 200.973
 L 448.5 201.038
 L 449.5 201.346
 L 449.923 201.5
 L 450.5 201.644
 L 451.5 201.85
 L 452.5 201.962
 L 453.5 202.048
 L 454.5 201.985
 L 455.5 201.892
 L 457.5 201.776
 L 458.5 201.522
 L 458.562 201.5
 L 459.5 201.253
 L 460.5 200.848
 L 461.231 200.5
 L 461.5 200.332
 L 462.5 199.609
 L 462.687 199.5
 L 463.431 198.5
 L 463.5 198.401
 L 464.5 198.115
 L 465.173 198.5
 L 465.5 198.718
 L 466.5 199.423
 L 466.673 199.5
 L 467.5 199.913
 L 468.5 200.255
 L 469.397 200.5
 L 469.5 200.521
 L 470.5 200.795
 L 471.5 201.043
 L 472.5 201.2
 L 473.5 201.239
 L 474.5 201.239
 L 475.5 201.342
 L 476.5 201.459
 L 477.5 201.518
 L 478.5 201.519
 L 478.603 201.5
 L 479.5 201.201
 L 480.131 200.5
 L 480.026 199.5
 L 479.5 198.712
 L 479.37 198.5
 L 478.5 197.63
 L 478.359 197.5
 L 477.5 196.894
 L 476.892 196.5
 L 476.5 196.273
 L 475.5 195.885
 L 474.645 195.5
 L 473.5 194.935
 L 472.5 194.485
 L 471.5 194.077
 L 470.5 193.759
 L 469.788 193.5
 L 469.5 193.379
 L 467.5 192.326
 L 466.5 191.885
 L 465.538 191.5
 L 465.5 191.486
 L 464.5 191.154
 L 463.5 190.911
 L 462.5 190.637
 L 462.038 190.5
 L 461.5 190.321
 L 460.5 190.008
 L 458.5 189.448
 L 457.5 189.18
 L 456.5 188.95
 L 453.5 188.368
 L 450.5 187.617
 L 449.827 187.5
 L 449.5 187.431
 L 448.5 187.261
 L 447.5 187.129
 L 446.5 186.981
 L 445.5 186.813
 L 444.5 186.692
 L 443.5 186.558
 L 442.808 186.5
 L 442.5 186.466
 L 441.5 186.313
 L 440.5 185.673
 L 440.327 185.5
 L 439.962 184.5
 L 440.327 183.5
 L 441.327 182.5
 L 442.077 181.5
 L 441.5 181.17
 L 440.5 180.962
 L 439.5 180.969
 L 438.5 181.069
 L 437.5 181.29
 z
 M 305.5 230.442
 L 305.269 230.5
 L 304.5 230.628
 L 303.5 230.832
 L 302.5 230.99
 L 301.5 231.095
 L 300.5 231.184
 L 298.5 231.295
 L 297.5 231.411
 L 296.936 231.5
 L 296.5 231.559
 L 295.5 231.731
 L 293.5 231.965
 L 292.5 232.095
 L 290.5 232.306
 L 289.5 232.465
 L 289.362 232.5
 L 288.5 232.787
 L 287.5 233.269
 L 287.038 233.5
 L 285.538 234.5
 L 285.5 234.544
 L 284.756 235.5
 L 284.544 236.5
 L 285.115 237.5
 L 285.83 238.5
 L 286.09 239.5
 L 286.201 240.5
 L 286.413 241.5
 L 286.5 241.673
 L 287.5 243.423
 L 287.538 243.5
 L 287.979 244.5
 L 288.5 246.397
 L 288.831 247.5
 L 289.201 248.5
 L 289.5 249.173
 L 289.687 249.5
 L 290.288 250.5
 L 290.5 250.923
 L 291.401 252.5
 L 291.687 253.5
 L 291.913 254.5
 L 292.038 255.5
 L 292.09 256.5
 L 292.231 257.5
 L 292.423 258.5
 L 292.5 258.846
 L 292.687 259.5
 L 292.83 260.5
 L 292.885 261.5
 L 292.962 262.5
 L 292.962 265.5
 L 293.5 266.846
 L 293.827 267.5
 L 294.5 268.397
 L 294.603 268.5
 L 295.5 269.173
 L 296.5 269.282
 L 297.5 269.212
 L 298.5 268.91
 L 299.5 268.563
 L 299.638 268.5
 L 300.5 268.141
 L 301.5 267.63
 L 301.712 267.5
 L 302.5 267.049
 L 303.5 266.407
 L 304.5 265.692
 L 305.5 264.907
 L 305.974 264.5
 L 306.5 264.079
 L 309.5 261.479
 L 310.5 260.543
 L 310.541 260.5
 L 312.5 258.264
 L 314.5 255.835
 L 315.5 254.549
 L 315.536 254.5
 L 316.205 253.5
 L 316.816 252.5
 L 317.356 251.5
 L 317.5 251.244
 L 317.894 250.5
 L 318.5 249.212
 L 318.8 248.5
 L 319.094 247.5
 L 319.326 246.5
 L 319.483 245.5
 L 319.589 244.5
 L 319.642 243.5
 L 319.589 242.5
 L 319.5 242.077
 L 319.356 241.5
 L 318.946 240.5
 L 318.5 239.831
 L 318.246 239.5
 L 317.5 238.692
 L 317.29 238.5
 L 315.927 237.5
 L 315.5 237.224
 L 314.5 236.644
 L 314.308 236.5
 L 313.5 235.808
 L 313.192 235.5
 L 312.5 234.619
 L 312.413 234.5
 L 312.013 233.5
 L 311.938 232.5
 L 311.927 231.5
 L 311.5 230.562
 L 311.438 230.5
 L 310.5 229.979
 L 309.5 229.831
 L 308.5 229.892
 L 307.5 230.031
 L 306.5 230.255
 z
 M 429.5 257.212
 L 428.731 257.5
 L 428.5 258.192
 L 428.481 258.5
 L 428.5 258.808
 L 428.558 259.5
 L 428.918 260.5
 L 429.235 261.5
 L 429.5 262.258
 L 429.594 262.5
 L 429.962 263.5
 L 430.395 264.5
 L 430.5 264.71
 L 430.914 265.5
 L 431.487 266.5
 L 431.5 266.521
 L 432.2 267.5
 L 433.009 268.5
 L 433.5 269.073
 L 433.885 269.5
 L 434.5 270.224
 L 434.723 270.5
 L 436.5 272.85
 L 437.5 274.128
 L 437.804 274.5
 L 438.5 275.306
 L 439.5 276.411
 L 439.577 276.5
 L 440.404 277.5
 L 441.5 278.885
 L 442.031 279.5
 L 442.5 280.073
 L 442.866 280.5
 L 443.5 281.283
 L 443.685 281.5
 L 444.485 282.5
 L 445.342 283.5
 L 446.152 284.5
 L 447.009 285.5
 L 447.5 286.043
 L 447.895 286.5
 L 448.5 287.239
 L 450.5 289.665
 L 451.195 290.5
 L 451.5 290.906
 L 451.928 291.5
 L 452.5 292.394
 L 453.248 293.5
 L 453.5 293.85
 L 453.987 294.5
 L 454.5 295.148
 L 454.791 295.5
 L 455.574 296.5
 L 457.5 299.073
 L 457.834 299.5
 L 458.5 300.4
 L 458.577 300.5
 L 459.269 301.5
 L 459.5 301.854
 L 459.904 302.5
 L 460.987 304.5
 L 461.986 306.5
 L 462.438 307.5
 L 462.771 308.5
 L 463.052 309.5
 L 463.304 310.5
 L 463.486 311.5
 L 463.531 312.5
 L 463.484 313.5
 L 463.379 314.5
 L 463.305 315.5
 L 463.106 316.5
 L 462.692 317.5
 L 462.5 317.769
 L 461.5 318.169
 L 460.5 317.879
 L 459.868 317.5
 L 459.5 317.246
 L 458.531 316.5
 L 458.5 316.481
 L 457.5 315.927
 L 455.5 315.057
 L 454.5 314.713
 L 453.83 314.5
 L 453.5 314.39
 L 452.5 314.168
 L 451.5 313.986
 L 450.5 313.85
 L 449.5 313.747
 L 448.5 313.668
 L 447.5 313.641
 L 446.5 313.587
 L 445.5 313.923
 L 445.115 314.5
 L 445.5 314.692
 L 446.5 315.312
 L 446.688 315.5
 L 447.5 315.906
 L 448.264 316.5
 L 448.5 316.665
 L 449.5 317.516
 L 450.5 318.517
 L 451.342 319.5
 L 451.5 319.736
 L 451.965 320.5
 L 452.448 321.5
 L 452.848 322.5
 L 453.237 323.5
 L 453.5 324.201
 L 453.635 324.5
 L 454.221 325.5
 L 454.5 325.942
 L 454.804 326.5
 L 455.279 327.5
 L 455.5 328.031
 L 455.704 328.5
 L 456.2 329.5
 L 456.5 329.951
 L 457.462 330.5
 L 457.5 330.513
 L 459.5 330.752
 L 460.5 330.792
 L 461.5 330.752
 L 462.5 330.896
 L 463.205 331.5
 L 463.5 331.908
 L 463.756 332.5
 L 464.022 333.5
 L 464.188 334.5
 L 464.256 335.5
 L 464.339 336.5
 L 464.4 337.5
 L 464.593 339.5
 L 464.703 340.5
 L 464.834 341.5
 L 465.145 344.5
 L 465.282 345.5
 L 465.5 346.551
 L 465.759 347.5
 L 466.095 348.5
 L 466.445 349.5
 L 466.5 349.687
 L 466.816 350.5
 L 467.135 351.5
 L 467.342 352.5
 L 467.5 353.327
 L 467.569 353.5
 L 467.891 354.5
 L 468.199 355.5
 L 468.5 356.162
 L 469.5 356.362
 L 470.038 355.5
 L 470.288 354.5
 L 470.423 353.5
 L 470.5 353.154
 L 470.601 352.5
 L 470.678 351.5
 L 470.808 350.5
 L 470.908 349.5
 L 470.985 348.5
 L 471.139 347.5
 L 471.293 345.5
 L 471.442 344.5
 L 471.5 343.808
 L 471.665 341.5
 L 471.808 340.5
 L 471.985 339.5
 L 472.216 338.5
 L 472.5 337.577
 L 472.522 337.5
 L 472.754 336.5
 L 472.951 335.5
 L 473.139 334.5
 L 473.359 333.5
 L 473.5 332.654
 L 473.522 332.5
 L 473.665 330.5
 L 473.787 329.5
 L 473.951 328.5
 L 474.121 327.5
 L 474.521 325.5
 L 474.654 324.5
 L 474.808 323.5
 L 474.987 322.5
 L 475.387 320.5
 L 475.522 319.5
 L 475.593 318.5
 L 475.601 317.5
 L 475.665 316.5
 L 475.808 314.5
 L 475.808 313.5
 L 475.736 312.5
 L 475.678 311.5
 L 475.526 309.5
 L 475.359 308.5
 L 475.164 307.5
 L 474.931 306.5
 L 474.631 305.5
 L 474.231 304.5
 L 473.5 303.038
 L 472.645 301.5
 L 472.5 301.282
 L 471.913 300.5
 L 471.5 299.838
 L 470.538 298.5
 L 469.5 296.838
 L 468.544 295.5
 L 467.687 294.5
 L 466.687 293.5
 L 464.973 291.5
 L 464.258 290.5
 L 463.663 289.5
 L 463.5 289.238
 L 462.5 287.838
 L 461.385 286.5
 L 460.687 285.5
 L 460.5 285.238
 L 459.5 284.038
 L 458.962 283.5
 L 458.5 283.115
 L 456.885 281.5
 L 455.5 279.838
 L 454.5 278.838
 L 452.551 276.5
 L 452.5 276.449
 L 450.5 274.782
 L 449.218 273.5
 L 448.5 272.638
 L 446.5 270.638
 L 446.327 270.5
 L 445.5 269.949
 L 444.051 268.5
 L 442.5 266.638
 L 442.362 266.5
 L 440.5 264.949
 L 439.827 264.5
 L 439.5 264.313
 L 438.5 263.712
 L 438.218 263.5
 L 436.5 262.355
 L 434.115 260.5
 L 433.5 260.069
 L 432.788 259.5
 L 432.5 259.29
 L 431.5 258.472
 L 430.5 257.799
 L 429.962 257.5
 z
 M 393.5 266.393
 L 393.264 266.5
 L 392.5 266.856
 L 391.481 267.5
 L 390.538 268.5
 L 390.5 268.846
 L 390.369 269.5
 L 390.5 269.619
 L 391.5 270.2
 L 392.212 270.5
 L 392.5 270.6
 L 393.5 270.993
 L 394.5 271.41
 L 394.692 271.5
 L 395.5 271.992
 L 396.474 272.5
 L 396.5 272.516
 L 397.5 273.032
 L 398.5 273.368
 L 399.423 273.5
 L 399.5 273.514
 L 400.5 273.592
 L 402.5 273.511
 L 404.5 273.373
 L 405.5 273.312
 L 406.5 273.165
 L 407.5 272.854
 L 408.258 272.5
 L 408.437 271.5
 L 408.026 270.5
 L 407.5 269.799
 L 407.32 269.5
 L 406.454 268.5
 L 405.5 267.785
 L 405.093 267.5
 L 404.5 267.168
 L 403.5 266.69
 L 402.5 266.29
 L 401.5 265.977
 L 400.5 265.774
 L 399.5 265.639
 L 398.5 265.586
 L 397.5 265.584
 L 396.5 265.671
 L 395.5 265.826
 L 394.5 266.059
 z
 M 308.5 312.401
 L 307.5 312.687
 L 306.5 313.115
 L 305.5 313.687
 L 304.5 314.385
 L 303.5 315.385
 L 303.401 315.5
 L 301.973 317.5
 L 301.401 318.5
 L 301.038 319.5
 L 300.788 320.5
 L 300.756 321.5
 L 300.731 322.5
 L 300.801 323.5
 L 300.801 324.5
 L 300.859 325.5
 L 300.942 326.5
 L 300.942 327.5
 L 301.026 328.5
 L 301.139 329.5
 L 301.5 331.064
 L 301.609 331.5
 L 301.908 332.5
 L 302.5 335.064
 L 302.593 335.5
 L 302.736 336.5
 L 302.951 337.5
 L 303.293 338.5
 L 303.5 339.173
 L 303.587 339.5
 L 303.787 340.5
 L 304.321 342.5
 L 304.987 344.5
 L 305.308 345.5
 L 305.5 346.038
 L 305.654 346.5
 L 306.019 347.5
 L 306.5 348.615
 L 306.832 349.5
 L 307.254 350.5
 L 307.5 351.238
 L 307.577 351.5
 L 307.93 352.5
 L 308.321 353.5
 L 308.5 353.949
 L 308.707 354.5
 L 309.582 356.5
 L 310.5 358.456
 L 310.522 358.5
 L 311.093 359.5
 L 311.5 360.313
 L 311.601 360.5
 L 312.831 362.5
 L 314.451 365.5
 L 314.951 366.5
 L 315.832 368.5
 L 316.283 369.5
 L 316.753 370.5
 L 317.207 371.5
 L 317.769 372.5
 L 318.342 373.5
 L 318.989 374.5
 L 319.5 375.224
 L 319.736 375.5
 L 320.5 376.322
 L 320.788 376.5
 L 321.5 376.856
 L 322.5 376.776
 L 323.5 376.247
 L 324.247 375.5
 L 324.5 375.213
 L 324.986 374.5
 L 325.5 373.63
 L 325.565 373.5
 L 326.007 372.5
 L 326.415 371.5
 L 326.5 371.244
 L 326.739 370.5
 L 326.938 369.5
 L 327.007 368.5
 L 326.888 367.5
 L 326.577 366.5
 L 326.5 366.346
 L 325.952 365.5
 L 325.5 364.859
 L 325.231 364.5
 L 324.613 363.5
 L 324.5 363.258
 L 324.121 362.5
 L 323.63 361.5
 L 323.5 361.218
 L 323.141 360.5
 L 322.5 359.645
 L 322.369 359.5
 L 321.688 358.5
 L 321.5 358.162
 L 321.199 357.5
 L 320.974 356.5
 L 320.861 355.5
 L 320.724 354.5
 L 320.63 353.5
 L 320.5 352.936
 L 320.418 352.5
 L 320.188 350.5
 L 320.038 349.5
 L 319.852 348.5
 L 319.735 347.5
 L 319.585 346.5
 L 319.533 345.5
 L 319.5 345.154
 L 319.373 343.5
 L 319.288 342.5
 L 319.168 341.5
 L 319.008 340.5
 L 318.747 339.5
 L 318.5 338.868
 L 318.35 338.5
 L 317.885 337.5
 L 317.5 336.801
 L 317.326 336.5
 L 316.816 335.5
 L 316.5 334.868
 L 315.776 333.5
 L 315.5 333.031
 L 314.5 331.531
 L 314.476 331.5
 L 313.861 330.5
 L 313.322 329.5
 L 313.015 328.5
 L 312.835 327.5
 L 312.813 326.5
 L 312.894 324.5
 L 313.063 323.5
 L 313.247 322.5
 L 313.486 321.5
 L 313.747 320.5
 L 313.965 319.5
 L 314.168 318.5
 L 314.342 317.5
 L 314.483 316.5
 L 314.585 315.5
 L 314.538 314.5
 L 314.5 314.327
 L 314.132 313.5
 L 313.5 312.687
 L 313.173 312.5
 L 312.5 312.163
 L 311.5 311.979
 L 310.5 311.979
 L 309.5 312.09
 z
 M 354.5 324.801
 L 353.538 325.5
 L 353.5 325.562
 L 353.073 326.5
 L 352.892 327.5
 L 352.983 328.5
 L 353.164 329.5
 L 353.5 330.423
 L 353.544 330.5
 L 354.218 331.5
 L 354.5 331.782
 L 355.5 331.782
 L 356.5 331.115
 L 357.5 329.782
 L 357.669 329.5
 L 357.974 328.5
 L 358.092 327.5
 L 357.808 326.5
 L 357.5 326.038
 L 357.069 325.5
 L 356.5 325.026
 L 355.5 324.692
 z
 M 496.5 507.154
 L 496.327 507.5
 L 495.5 508.327
 L 495.385 508.5
 L 494.762 509.5
 L 494.5 509.827
 L 494.051 510.5
 L 493.562 511.5
 L 493.562 512
 L 497.558 512
 L 497.563 510.5
 L 497.5 509.808
 L 497.438 509.5
 L 497.173 508.5
 L 497.192 507.5
 z
"/>
</svg>
