<svg id="fblmSvg" xmlns="http://www.w3.org/2000/svg" version="1.1"
width="512pt" height="512pt"
viewBox="0 0 512 512">
<path id="fblmBackground" fill="#102030"
d="M 0 0   L 512 0   L 512 512   L 0 512 z"/>
<path id="fblmForeground" fill="#f0e0d0"
fill-rule="evenodd"
d=" M 46.5 1.00584
 L 46.1047 1.5
 L 45.1047 2.5
 L 44.5 2.93191
 L 43.5 3.50292
 L 42.5 3.87792
 L 41.5 4.16926
 L 40.5078 4.5
 L 40.5 4.50334
 L 39.5 5.00292
 L 38.2558 5.5
 L 37.5 5.87792
 L 36.5 6.30234
 L 36.0058 6.5
 L 35.5 6.72482
 L 34.5 7.10234
 L 33.5 7.41121
 L 33.1744 7.5
 L 32.5 7.78905
 L 31.5 8.16926
 L 30.7558 8.5
 L 30.5 8.64619
 L 29.5 9.25292
 L 29.1047 9.5
 L 28.5 9.93191
 L 26.6706 11.5
 L 26.5 11.7047
 L 25.7047 12.5
 L 25.5 12.6706
 L 24.5 13.6706
 L 22.5 16.0039
 L 22.0039 16.5
 L 21.5 17.1047
 L 21.2176 17.5
 L 20.5 18.2176
 L 19.5039 19.5
 L 19.5 19.5058
 L 18.3605 21.5
 L 17.9047 22.5
 L 17.5 23.0058
 L 16.5058 24.5
 L 16.5 24.5058
 L 15.5 26.0058
 L 15.2176 26.5
 L 14.5039 27.5
 L 13.5047 29.5
 L 13.5047 31.5
 L 13.7891 32.5
 L 14.0582 33.5
 L 14.1023 34.5
 L 13.9023 36.5
 L 13.6137 37.5
 L 13.5 38.0117
 L 13.4186 38.5
 L 13.0476 39.5
 L 12.7248 40.5
 L 12.5 41.0058
 L 12.3203 41.5
 L 11.8779 42.5
 L 11.3779 43.5
 L 10.9047 44.5
 L 10.5 45.0058
 L 10.2176 45.5
 L 10.0058 46.5
 L 9.50778 48.5
 L 9.50778 49.5
 L 9.75584 50.5
 L 9.70467 51.5
 L 9.50389 52.5
 L 9.5 52.5117
 L 9.25292 53.5
 L 8.87792 54.5
 L 8.25292 55.5
 L 7.5 56.3605
 L 7.40234 56.5
 L 6.62792 57.5
 L 6.5 57.6706
 L 6.00234 58.5
 L 5.10234 59.5
 L 2.80234 62.5
 L 1.60234 64.5
 L 1.5 64.6462
 L 0.835928 65.5
 L 0.5 65.8779
 L 0 65.8779
 L 0 0
 L 46.8372 0
 L 46.8372 0.5
 z
 M 230.365 0.5
 L 230.432 1.5
 L 230.5 1.70467
 L 230.784 2.5
 L 231.498 3.5
 L 231.5 3.50389
 L 232.247 4.5
 L 232.497 5.5
 L 232.622 6.5
 L 232.64 7.5
 L 232.996 8.5
 L 233.5 9.00389
 L 234.492 9.5
 L 234.5 9.50334
 L 237.5 10.5026
 L 238.5 11.0582
 L 239.5 11.8359
 L 240.5 12.7248
 L 241.275 13.5
 L 241.5 13.7023
 L 242.225 14.5
 L 242.5 14.7519
 L 243.5 15.5853
 L 244.665 16.5
 L 245.5 17.216
 L 246.5 18.0017
 L 247.081 18.5
 L 247.5 18.9186
 L 248.037 19.5
 L 248.5 20.0476
 L 248.811 20.5
 L 249.5 21.3479
 L 250.5 22.271
 L 250.798 22.5
 L 251.5 23.0853
 L 252.5 23.8353
 L 253.5 24.6686
 L 254.5 25.4023
 L 254.64 25.5
 L 255.5 26.1693
 L 256 26.1693
 L 256 18.4971
 L 255.5 18.4971
 L 254.614 17.5
 L 254.5 17.2953
 L 254.194 16.5
 L 253.886 15.5
 L 253.684 14.5
 L 253.614 13.5
 L 253.503 12.5
 L 253.003 10.5
 L 253.105 9.5
 L 253.5 9.28037
 L 254.5 9.3203
 L 255.5 9.50259
 L 256 9.50259
 L 256 0
 L 230.365 0
 z
 M 195.5 11.2953
 L 195.244 11.5
 L 195.095 12.5
 L 195.497 13.5
 L 196.211 14.5
 L 198.211 16.5
 L 199.354 17.5
 L 200.5 18.4023
 L 201.5 19.3023
 L 201.747 19.5
 L 203.247 20.5
 L 203.5 20.6556
 L 204.5 21.1682
 L 205.053 21.5
 L 205.5 21.7874
 L 206.5 22.3682
 L 206.829 22.5
 L 207.5 22.7515
 L 208.5 23.0569
 L 210.244 23.5
 L 210.5 23.5731
 L 211.5 23.8864
 L 212.5 24.3353
 L 212.829 24.5
 L 213.5 24.8658
 L 214.5 25.593
 L 215.5 26.1385
 L 216.5 26.593
 L 217.5 26.9567
 L 218.5 27.0023
 L 219.5 27.0029
 L 220.5 26.947
 L 221.5 26.8779
 L 222.5 26.947
 L 223.5 27.2176
 L 225.5 27.5039
 L 226.5 27.5047
 L 227.5 27.3047
 L 228.5 26.8411
 L 228.841 26.5
 L 229.5 26.1047
 L 230.256 25.5
 L 230.5 25.1745
 L 230.905 24.5
 L 230.503 23.5
 L 230.5 23.4971
 L 229.503 22.5
 L 228.5 21.7196
 L 228.302 21.5
 L 227.5 20.8314
 L 227.169 20.5
 L 226.5 19.8828
 L 225.5 19.0367
 L 224.5 18.2674
 L 223.391 17.5
 L 222.5 16.8314
 L 221.932 16.5
 L 221.5 16.1641
 L 220.504 15.5
 L 220.5 15.4961
 L 219.646 14.5
 L 219.5 14.2442
 L 218.5 13.4942
 L 217.5 13.4922
 L 217.477 13.5
 L 216.5 13.7442
 L 215.5 14.1589
 L 214.988 14.5
 L 214.5 14.7442
 L 213.5 15.2953
 L 212.5 15.4967
 L 211.5 15.3863
 L 210.5 15.0977
 L 209.5 14.7706
 L 208.5 14.4977
 L 207.5 14.0814
 L 206.5 13.7481
 L 205.905 13.5
 L 205.5 13.3161
 L 204.5 12.9981
 L 203.5 12.6647
 L 202.841 12.5
 L 202.5 12.407
 L 201.5 12.0977
 L 200.5 11.7706
 L 199.5 11.407
 L 198.5 11.0977
 L 197.5 10.9971
 L 196.5 11.0681
 z
 M 252.5 69.4269
 L 252.244 69.5
 L 251.5 69.8307
 L 250.5 70.3977
 L 250.295 70.5
 L 249.5 71.2953
 L 249.244 71.5
 L 248.5 72.4922
 L 247.5 72.4942
 L 246.5 71.6628
 L 246.256 71.5
 L 245.5 71.1221
 L 244.5 70.7196
 L 243.5 70.4974
 L 242.5 70.407
 L 241.5 70.4982
 L 240.5 70.6647
 L 239.5 70.8059
 L 238.5 70.8314
 L 237.5 70.9147
 L 236.5 71.0367
 L 235.5 71.4147
 L 235.354 71.5
 L 234.5 72.0977
 L 234.053 72.5
 L 233.5 73.211
 L 233.298 73.5
 L 232.5 75.4942
 L 232.495 75.5
 L 231.5 76.1221
 L 230.5 76.1641
 L 228.5 76.2252
 L 227.5 76.3314
 L 225.5 76.6318
 L 224.5 76.686
 L 223.5 76.5698
 L 223.256 76.5
 L 222.5 76.2481
 L 221.5 75.9269
 L 220.5 75.7651
 L 219.5 75.6984
 L 218.5 75.6647
 L 217.5 75.5977
 L 216.5 75.7196
 L 215.5 76.053
 L 214.5 76.4974
 L 213.5 76.8721
 L 212.5 77.1221
 L 211.5 77.2471
 L 210.5 77.1641
 L 209.5 77.1641
 L 208.5 77.2752
 L 207.5 77.407
 L 206.5 77.4147
 L 205.5 77.407
 L 204.5 77.2674
 L 203.5 77.2674
 L 202.5 77.284
 L 201.5 77.3444
 L 200.5 77.4147
 L 199.5 77.3161
 L 198.5 77.1342
 L 197.5 77.0433
 L 196.5 77.0433
 L 195.5 76.9981
 L 193.5 77.0698
 L 192.5 77.0698
 L 191.5 77.0367
 L 188.5 76.8059
 L 187.5 76.784
 L 186.5 76.6647
 L 185.5 76.5751
 L 185.012 76.5
 L 184.5 76.407
 L 183.5 76.2481
 L 182.5 76.1342
 L 181.5 76.0977
 L 180.5 75.9977
 L 179.5 75.7471
 L 178.5 75.6085
 L 176.5 75.407
 L 175.5 75.2752
 L 174.5 75.1221
 L 173.5 74.9971
 L 172.5 74.8294
 L 171.5 74.6953
 L 170.523 74.5
 L 169.5 74.3538
 L 168.5 74.3294
 L 167.5 74.2953
 L 166.5 74.2953
 L 165.5 73.9942
 L 164.5 73.8953
 L 162.5 73.4953
 L 161.5 73.0953
 L 160.5 72.7442
 L 158.5 72.7442
 L 157.523 72.5
 L 156.5 72.2953
 L 155.5 72.2953
 L 154.5 72.4942
 L 154.477 72.5
 L 153.5 72.8255
 L 152.5 72.9942
 L 151.5 72.9883
 L 150.5 73.4883
 L 148.5 73.4922
 L 147.5 73.8255
 L 146.5 73.9883
 L 145.5 73.9883
 L 144.5 73.8255
 L 143.523 73.5
 L 143.5 73.4883
 L 142.5 73.2442
 L 141.5 73.2442
 L 140.5 73.2953
 L 139.5 73.4942
 L 139.477 73.5
 L 138.5 73.8255
 L 137.5 74.4922
 L 137.477 74.5
 L 136.5 74.9883
 L 135.5 74.9883
 L 134.523 74.5
 L 134.5 74.4922
 L 133.5 74.4883
 L 132.5 74.4942
 L 132.488 74.5
 L 131.488 75.5
 L 129.988 76.5
 L 129.5 76.7442
 L 128.5 77.1589
 L 126.488 78.5
 L 124.5 80.4883
 L 124.492 80.5
 L 123.5 81.4922
 L 123.488 81.5
 L 122.5 82.4883
 L 122.477 82.5
 L 121.5 82.8255
 L 120.5 82.8255
 L 119.5 82.9942
 L 118.5 83.4922
 L 118.477 83.5
 L 117.5 83.6953
 L 116.5 84.1589
 L 116.159 84.5
 L 115.5 85.4883
 L 114.5 87.4883
 L 114.492 87.5
 L 112.492 89.5
 L 111.5 91.4766
 L 111.492 91.5
 L 111.488 92.5
 L 110.5 93.4883
 L 110.492 93.5
 L 109.5 95.4766
 L 109.477 95.5
 L 107.5 96.4883
 L 106.5 96.4883
 L 106.488 96.5
 L 104.988 97.5
 L 103.5 98.9883
 L 100.477 100.5
 L 100.477 102.5
 L 99.4766 103.5
 L 100.477 104.5
 L 99.5 105.477
 L 98.5 105.477
 L 97.5 106.477
 L 96.5 106.477
 L 95.5 106.488
 L 95.4766 106.5
 L 94.5 107.477
 L 93.5 106.988
 L 92.5 106.988
 L 91.5 106.826
 L 89.5 105.492
 L 88.5 104.492
 L 87.5 104.492
 L 87.4883 104.5
 L 86.5 105.488
 L 86.4766 105.5
 L 85.5 106.477
 L 85.4922 106.5
 L 85.5 106.523
 L 85.9883 107.5
 L 86.4766 108.5
 L 86.4766 109.5
 L 86.5 109.523
 L 86.9883 110.5
 L 86.5 111.477
 L 86.4766 111.5
 L 85.9883 112.5
 L 85.9883 114.5
 L 86.5 115.523
 L 87.1589 117.5
 L 87.4766 118.5
 L 86.4766 119.5
 L 85.5 119.826
 L 83.5 119.159
 L 82.5 119.488
 L 81.5 119.988
 L 80.4922 121.5
 L 79.4922 122.5
 L 78.5 124.477
 L 78.4766 124.5
 L 78.4766 126.5
 L 78.4883 127.5
 L 78.5 127.523
 L 80.4766 129.5
 L 80.5 129.512
 L 81.5 129.523
 L 82.4766 130.5
 L 82.5 130.512
 L 83.5 130.512
 L 85.4766 131.5
 L 86.5 132.523
 L 86.9883 133.5
 L 86.9883 135.5
 L 87.4766 136.5
 L 87.4766 137.5
 L 86.5 138.477
 L 85.5 138.477
 L 85.4766 138.5
 L 85.4766 139.5
 L 84.5 139.988
 L 82.5 139.988
 L 81.5 140.477
 L 79.5 142.477
 L 79.4883 142.5
 L 78.4883 143.5
 L 78.4766 144.5
 L 77.9883 145.5
 L 77.5 146.477
 L 76.5 147.477
 L 75.5 147.477
 L 74.5 148.477
 L 73.5 148.477
 L 72.5 148.488
 L 72.4766 148.5
 L 70.5 150.477
 L 69.5 149.477
 L 68.5 149.488
 L 67.5 149.492
 L 67.4766 149.5
 L 66.5 149.988
 L 64.5 149.988
 L 63.5 149.826
 L 62.5 150.159
 L 62.2442 150.5
 L 61.8256 151.5
 L 61.5 152.477
 L 61.4883 152.5
 L 61.4883 153.5
 L 61.1589 154.5
 L 60.9883 155.5
 L 58.9883 159.5
 L 58.5 159.988
 L 57.5 160.488
 L 56.5 159.988
 L 55.5 159.988
 L 54.5 161.488
 L 54.4942 161.5
 L 54.1589 162.5
 L 54.2442 163.5
 L 54.2442 164.5
 L 54.4922 165.5
 L 54.5 165.523
 L 55.5 166.523
 L 55.9883 167.5
 L 55.5 167.988
 L 54.5 168.477
 L 54.4883 168.5
 L 54.4766 169.5
 L 55.4766 170.5
 L 55.5 170.512
 L 56.4883 171.5
 L 56.9883 172.5
 L 56.9883 173.5
 L 57.4766 174.5
 L 57.4766 175.5
 L 57.5 175.523
 L 59.5 175.523
 L 60.5 174.523
 L 61.5 174.523
 L 62.5 175.012
 L 63.5 175.012
 L 64.4766 175.5
 L 64.5 175.523
 L 65.5 176.012
 L 66.5 176.012
 L 67.4766 176.5
 L 69.4766 178.5
 L 71.4766 179.5
 L 71.5 179.523
 L 72.5 179.512
 L 73.5 179.012
 L 74.5 179.012
 L 75.4766 179.5
 L 75.5 179.523
 L 75.9883 180.5
 L 76.5 181.012
 L 77.5 181.174
 L 78.5 181.256
 L 79.4766 181.5
 L 80.5 182.523
 L 82.5 182.523
 L 82.5234 182.5
 L 84.5 181.512
 L 85.5 181.508
 L 87.0117 180.5
 L 87.5 180.256
 L 88.5 180.006
 L 90.5 180.012
 L 91.5 179.512
 L 92.5 179.512
 L 94.5 180.174
 L 94.9883 180.5
 L 96.9883 182.5
 L 97.4883 183.5
 L 97.5 183.512
 L 98.5 184.012
 L 99.5 185.012
 L 99.8255 185.5
 L 99.8255 186.5
 L 100.5 188.523
 L 102.477 190.5
 L 104.477 191.5
 L 104.5 191.523
 L 104.523 191.5
 L 105.012 190.5
 L 105.012 189.5
 L 105.5 189.012
 L 106.5 188.841
 L 107.5 188.841
 L 108.5 189.006
 L 109.5 189.006
 L 110.5 188.508
 L 110.523 188.5
 L 112.5 188.006
 L 113.5 188.006
 L 114.5 188.174
 L 115.477 188.5
 L 115.5 188.506
 L 116.5 188.705
 L 117.5 188.756
 L 118.5 188.756
 L 119.5 188.905
 L 121.5 189.105
 L 123.477 189.5
 L 123.5 189.506
 L 124.5 189.705
 L 125.5 189.756
 L 126.5 189.905
 L 127.5 190.105
 L 128.488 190.5
 L 128.5 190.504
 L 131.5 191.004
 L 132.5 191.218
 L 133.5 191.36
 L 133.988 191.5
 L 134.5 191.628
 L 135.5 191.753
 L 136.5 191.932
 L 137.5 192.169
 L 138.5 192.502
 L 141.5 193.169
 L 142.5 193.402
 L 142.988 193.5
 L 143.5 193.593
 L 144.5 193.835
 L 145.5 193.963
 L 146.5 193.963
 L 147.5 193.919
 L 148.5 193.963
 L 149.5 194.085
 L 151.988 194.5
 L 152.5 194.579
 L 154.5 195.04
 L 155.5 195.085
 L 156.5 194.919
 L 157.5 194.585
 L 157.841 194.5
 L 159.5 194.002
 L 160.5 193.866
 L 161.5 193.752
 L 163.5 193.419
 L 165.5 193.585
 L 166.5 193.585
 L 167.012 193.5
 L 167.5 193.402
 L 168.5 193.085
 L 169.5 193.085
 L 170.5 193.229
 L 171.5 193.402
 L 172.5 193.391
 L 173.5 193.302
 L 175.5 193.302
 L 176.5 193.169
 L 177.5 193.002
 L 178.5 193.04
 L 181.5 193.502
 L 182.5 193.593
 L 183.5 193.835
 L 185.5 194.335
 L 185.994 194.5
 L 186.5 194.684
 L 187.5 195.229
 L 188.5 195.593
 L 189.5 195.809
 L 190.5 195.809
 L 191.5 195.859
 L 192.5 196.04
 L 193.5 196.335
 L 194.5 196.669
 L 195.5 196.957
 L 196.5 197.28
 L 198.5 197.725
 L 199.5 198.003
 L 200.5 198.128
 L 201.5 198.128
 L 202.5 198.075
 L 203.5 198.128
 L 204.5 198.003
 L 205.5 198.002
 L 206.5 197.902
 L 207.5 197.902
 L 208.5 198.002
 L 209.5 198.169
 L 210.5 198.391
 L 210.826 198.5
 L 211.5 198.905
 L 212.244 199.5
 L 212.244 200.5
 L 211.494 201.5
 L 210.5 202.494
 L 210.492 202.5
 L 209.5 203.492
 L 209.488 203.5
 L 207.5 205.488
 L 207.492 205.5
 L 206.5 206.095
 L 206.095 206.5
 L 204.895 207.5
 L 204.5 207.782
 L 203.5 208.247
 L 202.994 208.5
 L 202.5 208.698
 L 200.5 209.298
 L 198.5 209.498
 L 196.5 209.498
 L 195.5 209.698
 L 194.5 209.997
 L 192.5 210.942
 L 191.5 211.298
 L 190.826 211.5
 L 190.5 211.581
 L 189.5 211.748
 L 187.5 212.248
 L 186.5 212.407
 L 186.159 212.5
 L 185.5 212.72
 L 184.5 212.997
 L 182.5 213.497
 L 181.5 213.798
 L 180.5 213.998
 L 179.5 214.316
 L 178.994 214.5
 L 178.5 214.698
 L 177.5 214.942
 L 176.5 215.098
 L 175.5 215.198
 L 174.5 215.407
 L 174.244 215.5
 L 173.5 215.872
 L 172.5 216.298
 L 171.826 216.5
 L 171.5 216.622
 L 170.5 217.068
 L 170.068 217.5
 L 169.782 218.5
 L 170.163 219.5
 L 170.5 219.905
 L 171.492 220.5
 L 171.5 220.503
 L 172.5 220.837
 L 173.5 221.337
 L 173.988 221.5
 L 175.5 221.878
 L 176.5 222.003
 L 177.5 222.218
 L 178.5 222.253
 L 179.5 222.28
 L 180.5 222.229
 L 181.5 222.271
 L 182.5 222.419
 L 183.5 222.502
 L 184.5 222.635
 L 185.5 222.814
 L 186.5 222.939
 L 187.5 223.031
 L 188.5 223.189
 L 189.5 223.439
 L 189.826 223.5
 L 190.5 223.619
 L 191.5 223.659
 L 192.5 223.751
 L 193.5 223.87
 L 194.5 224.133
 L 195.5 224.343
 L 196.5 224.451
 L 197.5 224.501
 L 198.5 224.644
 L 199.5 224.774
 L 200.5 224.882
 L 201.5 225.051
 L 202.5 225.251
 L 204.5 225.801
 L 205.5 226.151
 L 206.5 226.446
 L 206.695 226.5
 L 207.5 226.692
 L 209.5 227.112
 L 211.244 227.5
 L 211.5 227.551
 L 212.5 227.724
 L 213.5 227.972
 L 215.095 228.5
 L 215.5 228.619
 L 216.5 228.902
 L 217.5 229.194
 L 219.5 229.752
 L 222.5 230.218
 L 223.5 230.503
 L 224.5 230.504
 L 225.5 230.337
 L 226.477 230.5
 L 226.5 230.505
 L 227.5 230.841
 L 228.488 231.5
 L 228.5 231.506
 L 230.5 231.508
 L 232.5 231.905
 L 233.5 232.337
 L 233.744 232.5
 L 234.744 233.5
 L 235.295 234.5
 L 235.5 234.756
 L 236.5 236.256
 L 236.64 236.5
 L 237.068 237.5
 L 237.5 238.105
 L 237.829 238.5
 L 238.496 239.5
 L 238.829 240.5
 L 238.782 241.5
 L 238.5 242.159
 L 238.372 242.5
 L 237.64 243.5
 L 237.5 243.622
 L 236.622 244.5
 L 236.5 244.589
 L 235.5 245.198
 L 234.744 245.5
 L 234.5 245.589
 L 233.5 245.862
 L 232.5 245.998
 L 231.5 246.07
 L 230.5 246.07
 L 229.5 245.999
 L 228.5 245.793
 L 227.5 245.61
 L 225.5 245.404
 L 224.5 245.261
 L 223.5 245.07
 L 221.105 244.5
 L 220.5 244.374
 L 218.5 243.899
 L 217.218 243.5
 L 216.5 243.299
 L 215.5 242.999
 L 214.5 242.681
 L 213.705 242.5
 L 213.5 242.461
 L 212.5 242.384
 L 211.5 242.422
 L 211.095 242.5
 L 210.5 242.642
 L 209.5 242.803
 L 208.5 242.859
 L 207.5 242.922
 L 206.5 243.018
 L 204.5 243.384
 L 203.5 243.419
 L 202.5 243.213
 L 201.5 242.721
 L 201.138 242.5
 L 200.5 242.13
 L 199.5 241.709
 L 198.5 241.557
 L 197.5 242.032
 L 196.5 243.032
 L 196.149 243.5
 L 195.5 244.311
 L 195.363 244.5
 L 194.604 245.5
 L 194.5 245.61
 L 193.61 246.5
 L 193.5 246.604
 L 191.5 248.308
 L 191.165 248.5
 L 190.5 248.92
 L 189.5 249.349
 L 188.996 249.5
 L 188.5 249.665
 L 187.5 249.867
 L 185.5 250.183
 L 184.5 250.446
 L 184.244 250.5
 L 183.5 250.713
 L 182.5 250.855
 L 181.5 250.883
 L 180.5 250.806
 L 179.5 250.862
 L 178.5 251.134
 L 177.5 251.275
 L 176.5 251.354
 L 175.5 251.329
 L 174.5 251.295
 L 173.5 250.994
 L 172.841 250.5
 L 172.5 249.988
 L 172.256 249.5
 L 172.305 248.5
 L 172.218 247.5
 L 172.102 246.5
 L 171.957 245.5
 L 171.669 244.5
 L 171.5 243.994
 L 171.359 243.5
 L 170.768 241.5
 L 170.5 240.829
 L 170.401 240.5
 L 170.064 239.5
 L 169.716 238.5
 L 169.5 237.744
 L 169.435 237.5
 L 169.048 236.5
 L 168.5 235.898
 L 167.5 235.57
 L 166.5 235.765
 L 165.5 236.284
 L 164.5 237.141
 L 164.043 237.5
 L 163.5 237.898
 L 162.5 238.415
 L 162.329 238.5
 L 161.5 239.053
 L 161.053 239.5
 L 160.497 240.5
 L 159.997 241.5
 L 159.831 242.5
 L 160.043 243.5
 L 160.407 244.5
 L 160.5 244.671
 L 161.053 245.5
 L 161.5 245.947
 L 162.122 246.5
 L 162.5 246.878
 L 163.495 247.5
 L 163.5 247.504
 L 164.5 248.218
 L 165.159 248.5
 L 166.492 249.5
 L 166.5 249.512
 L 168.5 249.512
 L 169.5 250.012
 L 169.988 250.5
 L 170.488 251.5
 L 170.5 251.508
 L 171.5 252.508
 L 172.988 253.5
 L 173.5 253.756
 L 174.5 253.841
 L 175.5 253.508
 L 176.5 253.512
 L 177.5 254.256
 L 178.5 254.337
 L 179.5 254.36
 L 180.477 254.5
 L 180.5 254.508
 L 181.5 254.523
 L 181.826 255.5
 L 181.5 255.988
 L 180.988 256.5
 L 179.5 257.492
 L 179.492 257.5
 L 179.492 258.5
 L 179.5 258.505
 L 180.5 258.905
 L 181.5 259.171
 L 182.5 259.218
 L 183.488 259.5
 L 184.5 259.684
 L 185.5 259.919
 L 186.5 260.194
 L 188.5 260.724
 L 189.5 260.764
 L 190.5 260.712
 L 191.5 260.668
 L 192.5 260.724
 L 193.5 260.835
 L 196.5 260.902
 L 197.5 260.963
 L 198.5 261.169
 L 199.5 261.402
 L 199.988 261.5
 L 200.5 261.646
 L 201.5 262.171
 L 201.895 262.5
 L 202.495 263.5
 L 202.329 264.5
 L 201.5 265.495
 L 201.497 265.5
 L 200.497 266.5
 L 199.5 267.275
 L 199.163 267.5
 L 198.5 267.898
 L 197.5 268.316
 L 197.095 268.5
 L 196.5 268.798
 L 195.5 269.275
 L 195.095 269.5
 L 193.695 270.5
 L 192.895 271.5
 L 192.5 272.488
 L 192.496 272.5
 L 192.244 273.5
 L 191.826 274.5
 L 191.5 274.826
 L 190.488 275.5
 L 189.488 276.5
 L 189.492 282.5
 L 189.826 283.5
 L 189.826 284.5
 L 190.492 285.5
 L 190.492 286.5
 L 190.159 287.5
 L 189.5 288.159
 L 188.5 288.492
 L 183.5 288.492
 L 182.5 288.244
 L 181.5 288.095
 L 180.5 287.744
 L 178.5 286.744
 L 177.5 286.494
 L 176.5 286.744
 L 175.5 287.159
 L 174.5 287.488
 L 173.5 287.492
 L 172.5 287.244
 L 171.5 287.244
 L 170.5 287.159
 L 169.5 286.492
 L 168.5 285.895
 L 166.523 285.5
 L 166.5 285.494
 L 164.5 284.826
 L 164.012 284.5
 L 163.5 284.244
 L 162.5 283.826
 L 162.012 283.5
 L 161.5 282.988
 L 161.174 282.5
 L 160.5 281.826
 L 160.012 281.5
 L 159.5 281.295
 L 158.5 280.994
 L 156.523 280.5
 L 156.5 280.495
 L 155.5 280.244
 L 154.5 279.744
 L 154.256 279.5
 L 153.506 278.5
 L 153.5 278.494
 L 152.5 276.994
 L 152.253 276.5
 L 151.614 275.5
 L 150.947 274.5
 L 150.5 273.997
 L 149.5 272.997
 L 149.058 272.5
 L 148.28 271.5
 L 147.725 270.5
 L 147.28 269.5
 L 145.5 267.247
 L 144.957 266.5
 L 144.5 265.942
 L 143.5 264.831
 L 142.5 263.831
 L 142.128 263.5
 L 141.5 262.872
 L 141.075 262.5
 L 140.5 262.053
 L 139.671 261.5
 L 139.5 261.354
 L 138.5 260.663
 L 138.256 260.5
 L 137.006 259.5
 L 136.5 258.994
 L 136.105 258.5
 L 135.671 257.5
 L 135.503 256.5
 L 135.128 253.5
 L 134.725 252.5
 L 134.5 251.826
 L 134.378 251.5
 L 134.058 250.5
 L 133.725 249.5
 L 133.5 248.994
 L 132.646 247.5
 L 131.932 246.5
 L 131.5 245.744
 L 131.337 245.5
 L 130.5 244.663
 L 130.305 244.5
 L 129.5 243.695
 L 128.504 242.5
 L 128.5 242.496
 L 127.5 241.663
 L 127.337 241.5
 L 126.504 240.5
 L 126.5 240.492
 L 125.905 239.5
 L 125.5 238.488
 L 124.837 236.5
 L 124.5 235.994
 L 123.646 234.5
 L 123.5 233.988
 L 123.378 233.5
 L 123.128 231.5
 L 122.932 230.5
 L 122.671 229.5
 L 122.5 229.244
 L 120.5 227.744
 L 119.5 226.744
 L 117.5 225.244
 L 115.756 223.5
 L 114.5 222.495
 L 113.012 221.5
 L 112.5 221.244
 L 111.508 220.5
 L 111.5 220.495
 L 110.5 219.994
 L 108.523 219.5
 L 108.5 219.492
 L 107.5 219.492
 L 106.5 218.988
 L 105.5 218.988
 L 104.5 219.477
 L 104.488 219.5
 L 104.488 220.5
 L 104.477 221.5
 L 103.5 221.988
 L 103.159 222.5
 L 102.5 224.477
 L 102.494 224.5
 L 101.5 225.494
 L 101.495 225.5
 L 100.5 227.159
 L 99.5 228.492
 L 99.4953 228.5
 L 99.1628 229.5
 L 98.8294 231.5
 L 98.5 232.488
 L 98.4971 232.5
 L 98.3721 233.5
 L 98.3538 234.5
 L 98.211 235.5
 L 97.9961 236.5
 L 97.6395 237.5
 L 97.5 237.988
 L 97.3863 238.5
 L 97.3721 239.5
 L 97.2471 240.5
 L 97.1641 241.5
 L 97.0977 242.5
 L 97.2252 243.5
 L 97.4147 244.5
 L 97.5 245.012
 L 97.5977 245.5
 L 97.4981 246.5
 L 97.2481 247.5
 L 96.9147 248.5
 L 96.6797 249.5
 L 96.5 250.159
 L 96.4147 250.5
 L 96.3161 251.5
 L 96.1977 252.5
 L 96.0977 253.5
 L 95.9418 254.5
 L 95.7977 255.5
 L 95.6085 256.5
 L 95.3863 257.5
 L 95.1977 258.5
 L 95.0977 259.5
 L 94.8977 260.5
 L 94.6085 261.5
 L 94.1641 263.5
 L 94.2471 264.5
 L 94.4967 266.5
 L 94.4961 268.5
 L 94.1628 269.5
 L 93.6953 270.5
 L 93.5 270.826
 L 93.1628 271.5
 L 92.5 273.488
 L 91.6395 276.5
 L 91.211 277.5
 L 90.8294 278.5
 L 90.5 279.159
 L 90.3538 279.5
 L 90.1628 280.5
 L 89.7442 281.5
 L 89.5 281.988
 L 88.9961 283.5
 L 88.5 284.492
 L 88.4971 284.5
 L 88.211 285.5
 L 87.7824 286.5
 L 87.4967 287.5
 L 87.3538 288.5
 L 87.0681 289.5
 L 86.7471 290.5
 L 86.3721 291.5
 L 85.9252 292.5
 L 85.5 293.244
 L 84.5 295.244
 L 84.3863 295.5
 L 83.9977 296.5
 L 83.0977 299.5
 L 82.6977 300.5
 L 82.5 300.829
 L 81.9971 301.5
 L 81.5 302.068
 L 81.1641 302.5
 L 80.6085 303.5
 L 80.1641 304.5
 L 79.8307 305.5
 L 79.5 306.244
 L 78.8721 307.5
 L 78.1221 309.5
 L 77.8721 310.5
 L 77.6395 311.5
 L 77.6221 312.5
 L 77.5 312.988
 L 77.3538 313.5
 L 77.211 314.5
 L 77.211 315.5
 L 77.3294 316.5
 L 77.6628 318.5
 L 77.3538 320.5
 L 77.4961 321.5
 L 77.5 321.508
 L 78.0953 322.5
 L 79.2953 323.5
 L 79.5 323.646
 L 80.5 324.218
 L 80.8953 324.5
 L 81.5 325.004
 L 83.5 327.004
 L 86.4953 329.5
 L 87.5 330.505
 L 88.5 331.305
 L 90.5 333.305
 L 90.7442 333.5
 L 91.5 334.256
 L 91.8255 334.5
 L 92.5 335.174
 L 92.7442 335.5
 L 92.9942 336.5
 L 93.2953 337.5
 L 93.5 338.012
 L 93.6628 338.5
 L 94.0681 339.5
 L 94.5 340.508
 L 94.9961 341.5
 L 95.5 342.256
 L 95.6953 342.5
 L 96.5 343.305
 L 97.5 343.905
 L 98.5 343.503
 L 98.5029 343.5
 L 99.5 342.702
 L 99.7023 342.5
 L 100.5 341.775
 L 100.775 341.5
 L 101.5 340.886
 L 101.919 340.5
 L 102.5 340.002
 L 103.5 339.216
 L 104.502 338.5
 L 105.5 337.635
 L 105.725 337.5
 L 106.5 336.919
 L 107.337 336.5
 L 107.5 336.402
 L 108.5 335.963
 L 109.5 335.645
 L 110.174 335.5
 L 110.5 335.425
 L 111.5 335.235
 L 112.5 335.064
 L 113.5 334.946
 L 114.5 334.817
 L 115.5 334.787
 L 116.5 334.849
 L 117.5 334.959
 L 119.5 335.376
 L 119.996 335.5
 L 121.5 335.801
 L 122.5 336.018
 L 125.5 336.677
 L 126.5 336.844
 L 127.5 337.03
 L 128.5 337.282
 L 129.275 337.5
 L 129.5 337.56
 L 130.5 337.907
 L 131.5 338.358
 L 131.749 338.5
 L 132.5 338.962
 L 133.236 339.5
 L 134.394 340.5
 L 134.5 340.619
 L 135.381 341.5
 L 135.5 341.837
 L 135.749 342.5
 L 135.5 343.295
 L 135.443 343.5
 L 134.624 344.5
 L 134.5 344.61
 L 133.5 345.399
 L 133.355 345.5
 L 132.5 346.021
 L 131.5 346.542
 L 130.5 346.999
 L 129.5 347.369
 L 128.5 347.629
 L 127.5 347.749
 L 126.5 347.92
 L 125.5 348.11
 L 124.5 348.276
 L 123.695 348.5
 L 123.5 348.557
 L 122.5 348.749
 L 121.5 348.852
 L 120.5 348.852
 L 119.5 348.898
 L 118.5 349.037
 L 117.5 349.498
 L 117.497 349.5
 L 116.5 350.386
 L 116.407 350.5
 L 114.581 352.5
 L 114.5 352.575
 L 113.407 353.5
 L 112.5 354.331
 L 112.298 354.5
 L 111.5 355.298
 L 110.5 356.398
 L 110.415 356.5
 L 108.652 358.5
 L 107.883 359.5
 L 107.5 360.053
 L 107.213 360.5
 L 106.624 361.5
 L 106.5 361.698
 L 105.5 363.198
 L 105.248 363.5
 L 104.5 364.248
 L 104.225 364.5
 L 103.5 365.07
 L 102.5 365.57
 L 101.5 365.898
 L 100.5 366.037
 L 99.5 366.043
 L 98.5 365.862
 L 97.5 365.498
 L 96.5 364.898
 L 95.9319 364.5
 L 95.5 364.164
 L 94.5039 363.5
 L 94.5 363.498
 L 93.5 363.114
 L 92.5 362.883
 L 91.5 362.748
 L 90.5 362.798
 L 89.5 363.098
 L 88.6953 363.5
 L 88.5 363.622
 L 87.6221 364.5
 L 87.5 364.695
 L 87.1342 365.5
 L 86.9524 366.5
 L 87.0814 367.5
 L 87.4981 368.5
 L 88.2481 369.5
 L 88.5 369.733
 L 89.5977 370.5
 L 90.7977 371.5
 L 91.5 372.138
 L 91.9418 372.5
 L 92.5 372.886
 L 93.5 373.43
 L 93.6953 373.5
 L 94.5 373.751
 L 95.5 373.876
 L 96.5 373.787
 L 97.5 373.579
 L 97.7558 373.5
 L 98.5 373.287
 L 99.5 372.886
 L 100.218 372.5
 L 101.5 371.859
 L 102.337 371.5
 L 102.5 371.443
 L 103.5 371.266
 L 104.5 371.148
 L 105.5 371.279
 L 106.295 371.5
 L 106.5 371.568
 L 107.5 371.751
 L 108.5 371.796
 L 109.5 371.764
 L 110.5 371.712
 L 111.5 371.619
 L 112.5 371.619
 L 113.5 371.678
 L 114.5 371.779
 L 115.5 371.87
 L 116.5 371.977
 L 117.5 372.183
 L 118.5 372.414
 L 118.895 372.5
 L 119.5 372.659
 L 120.5 372.851
 L 121.5 373.051
 L 122.5 373.215
 L 123.5 373.414
 L 123.895 373.5
 L 124.5 373.659
 L 125.5 373.882
 L 126.5 374.073
 L 127.5 374.215
 L 128.5 374.406
 L 128.895 374.5
 L 129.5 374.668
 L 130.5 374.975
 L 131.5 375.201
 L 132.5 375.365
 L 133.244 375.5
 L 133.5 375.554
 L 134.5 375.787
 L 136.5 376.168
 L 137.5 376.414
 L 137.829 376.5
 L 138.5 376.683
 L 139.5 376.936
 L 141.5 377.371
 L 144.5 377.849
 L 145.5 378.084
 L 146.5 378.414
 L 146.782 378.5
 L 147.5 378.701
 L 148.5 378.834
 L 149.5 378.918
 L 150.5 379.066
 L 151.5 379.319
 L 152.163 379.5
 L 152.5 379.578
 L 153.5 379.661
 L 154.5 379.584
 L 155.174 379.5
 L 156.5 379.291
 L 157.5 379.09
 L 158.5 378.814
 L 159.337 378.5
 L 159.5 378.435
 L 160.5 378.001
 L 161.5 377.56
 L 161.628 377.5
 L 162.5 376.963
 L 163.36 376.5
 L 163.5 376.391
 L 164.5 375.836
 L 165.5 375.391
 L 166.5 375.128
 L 167.5 374.725
 L 168.006 374.5
 L 168.5 374.253
 L 169.5 373.836
 L 170.5 373.725
 L 171.5 373.725
 L 172.5 373.836
 L 173.5 373.802
 L 174.5 373.725
 L 175.5 373.836
 L 176.5 374.058
 L 177.5 374.378
 L 177.826 374.5
 L 178.5 374.837
 L 179.5 375.671
 L 180.329 376.5
 L 180.5 376.628
 L 181.5 377.128
 L 182.5 377.503
 L 183.5 378.171
 L 184.829 379.5
 L 185.5 380.075
 L 186.492 380.5
 L 186.5 380.504
 L 187.5 380.671
 L 188.5 380.504
 L 188.512 380.5
 L 189.5 380.218
 L 190.5 379.705
 L 190.841 379.5
 L 191.5 379.006
 L 192.006 378.5
 L 192.5 377.512
 L 192.508 377.5
 L 192.841 376.5
 L 193.256 375.5
 L 193.5 375.012
 L 194.5 374.012
 L 195.477 374.5
 L 195.5 374.523
 L 195.663 375.5
 L 195.5 376.477
 L 195.159 377.5
 L 194.994 378.5
 L 194.994 380.5
 L 195.163 381.5
 L 195.354 382.5
 L 195.354 384.5
 L 195.163 385.5
 L 194.996 386.5
 L 194.744 387.5
 L 194.744 390.5
 L 194.5 391.477
 L 194.492 391.5
 L 192.5 393.492
 L 192.494 393.5
 L 192.495 397.5
 L 192.5 397.523
 L 192.826 398.5
 L 192.994 399.5
 L 193.494 401.5
 L 194.494 403.5
 L 194.494 404.5
 L 194.744 405.5
 L 195.159 406.5
 L 195.826 407.5
 L 196.492 409.5
 L 196.159 410.5
 L 196.159 411.5
 L 195.826 412.5
 L 195.5 412.988
 L 194.5 413.477
 L 193.5 412.988
 L 192.5 412.488
 L 192.477 412.5
 L 191.5 413.477
 L 191.488 413.5
 L 191.159 414.5
 L 190.492 415.5
 L 189.5 416.244
 L 188.5 416.492
 L 187.5 416.488
 L 186.841 415.5
 L 186.512 414.5
 L 186.012 413.5
 L 185.523 412.5
 L 185.523 411.5
 L 183.5 409.477
 L 182.5 408.988
 L 181.523 408.5
 L 181.5 408.477
 L 181.174 407.5
 L 181.006 406.5
 L 180.506 405.5
 L 180.5 405.494
 L 179.5 404.744
 L 178.5 404.244
 L 177.508 403.5
 L 176.5 402.492
 L 175.5 401.744
 L 175.012 401.5
 L 174.5 401.159
 L 173.841 400.5
 L 173.5 399.988
 L 172.756 398.5
 L 172.5 398.159
 L 172.171 397.5
 L 171.646 396.5
 L 171.5 396.244
 L 171.128 395.5
 L 170.5 394.663
 L 170.36 394.5
 L 169.5 393.831
 L 168.905 393.5
 L 168.5 393.316
 L 167.5 393.098
 L 165.5 392.698
 L 165.006 392.5
 L 164.5 392.365
 L 163.5 392.186
 L 162.5 392.087
 L 161.5 391.969
 L 160.5 391.765
 L 159.837 391.5
 L 159.5 391.344
 L 158.5 391.081
 L 157.5 391.141
 L 156.5 391.284
 L 155.5 391.07
 L 154.5 390.713
 L 153.5 390.565
 L 152.5 390.499
 L 151.5 390.361
 L 150.5 390.299
 L 149.5 390.435
 L 149.275 390.5
 L 148.5 390.741
 L 147.5 390.966
 L 146.5 391.015
 L 144.5 390.954
 L 143.5 390.985
 L 142.5 391.099
 L 141.5 391.242
 L 140.5 391.277
 L 139.5 391.271
 L 138.5 391.305
 L 137.5 391.444
 L 136.5 391.662
 L 134.5 392.121
 L 133.5 392.299
 L 132.5 392.471
 L 131.5 392.681
 L 130.5 392.843
 L 128.5 393.12
 L 127.5 393.213
 L 126.5 393.351
 L 124.5 393.749
 L 123.5 393.899
 L 122.5 394.023
 L 121.5 394.166
 L 120.5 394.325
 L 119.695 394.5
 L 119.5 394.554
 L 118.5 394.867
 L 117.5 395.149
 L 116.5 395.363
 L 115.895 395.5
 L 115.5 395.616
 L 114.5 395.972
 L 113.5 396.276
 L 112.5 396.499
 L 111.5 396.632
 L 110.5 396.784
 L 109.5 396.998
 L 108.5 397.267
 L 107.744 397.5
 L 107.5 397.609
 L 106.5 397.997
 L 105.5 398.211
 L 104.5 398.496
 L 104.488 398.5
 L 103.5 399.159
 L 103.159 399.5
 L 103.159 400.5
 L 103.826 401.5
 L 104.5 402.006
 L 105.5 403.006
 L 106.5 404.256
 L 108.663 407.5
 L 109.829 408.5
 L 110.5 408.866
 L 111.5 409.402
 L 111.663 409.5
 L 112.5 409.886
 L 113.5 410.194
 L 114.5 410.287
 L 117.5 410.716
 L 118.5 410.787
 L 119.5 410.835
 L 120.5 410.919
 L 121.5 411.138
 L 122.494 411.5
 L 122.5 411.503
 L 124.5 412.753
 L 125.5 413.102
 L 126.5 413.402
 L 126.744 413.5
 L 127.5 413.752
 L 128.5 414.04
 L 129.5 414.252
 L 130.5 414.411
 L 130.826 414.5
 L 132.5 415.058
 L 133.295 415.5
 L 133.5 415.602
 L 134.5 416.002
 L 135.5 416.391
 L 135.988 416.5
 L 136.5 416.628
 L 137.5 416.504
 L 137.523 416.5
 L 138.5 416.378
 L 139.477 416.5
 L 139.5 416.505
 L 140.5 417.256
 L 140.695 417.5
 L 141.095 418.5
 L 140.996 419.5
 L 140.5 420.988
 L 139.744 422.5
 L 139.5 422.826
 L 139.163 423.5
 L 138.695 424.5
 L 138.5 424.826
 L 137.826 425.5
 L 137.5 425.744
 L 135.988 426.5
 L 135.5 426.826
 L 134.994 427.5
 L 134.5 428.488
 L 134.495 428.5
 L 134.494 430.5
 L 133.5 431.494
 L 133.488 431.5
 L 132.5 431.782
 L 131.5 431.997
 L 130.5 432.247
 L 129.994 432.5
 L 128.5 433.164
 L 127.5 433.497
 L 126.5 433.72
 L 124.5 433.316
 L 123.5 433.407
 L 123.159 433.5
 L 122.5 433.747
 L 121.5 434.164
 L 120.5 434.275
 L 119.5 434.275
 L 118.5 434.386
 L 117.5 434.609
 L 116.5 435.098
 L 115.5 435.498
 L 114.5 435.862
 L 113.5 436.198
 L 112.744 436.5
 L 111.5 437.211
 L 111.095 437.5
 L 109.895 438.5
 L 108.5 440.244
 L 108.329 440.5
 L 107.829 441.5
 L 107.695 442.5
 L 108.163 443.5
 L 108.5 443.905
 L 109.244 444.5
 L 109.5 444.671
 L 110.5 445.171
 L 111.5 445.837
 L 112.5 446.337
 L 112.988 446.5
 L 113.5 446.646
 L 114.5 446.789
 L 115.495 447.5
 L 115.5 447.504
 L 116.496 448.5
 L 116.5 448.505
 L 117.5 449.256
 L 117.988 449.5
 L 118.5 449.841
 L 120.5 451.841
 L 120.994 452.5
 L 121.5 453.006
 L 122.159 453.5
 L 122.5 453.705
 L 123.5 453.756
 L 124.5 454.174
 L 124.988 454.5
 L 125.5 455.012
 L 125.695 455.5
 L 126.295 456.5
 L 126.5 456.756
 L 127.244 457.5
 L 127.5 457.705
 L 128.826 458.5
 L 129.5 458.789
 L 130.5 458.932
 L 131.5 459.004
 L 132.5 459.105
 L 133.159 459.5
 L 133.5 459.671
 L 134.329 460.5
 L 135.5 461.503
 L 136.5 462.075
 L 138.5 462.878
 L 139.5 463.337
 L 140.5 463.837
 L 142.488 464.5
 L 142.5 464.503
 L 143.5 465.003
 L 144.5 465.628
 L 145.5 466.128
 L 146.492 466.5
 L 146.5 466.504
 L 147.5 467.171
 L 148.159 467.5
 L 148.5 467.646
 L 149.5 467.932
 L 150.5 468.337
 L 150.826 468.5
 L 151.5 468.789
 L 152.5 469.337
 L 152.826 469.5
 L 153.5 469.684
 L 154.5 469.593
 L 155.012 469.5
 L 155.5 469.391
 L 156.5 469.102
 L 157.5 468.947
 L 158.5 468.725
 L 160.5 468.947
 L 161.5 469.002
 L 162.5 468.947
 L 163.5 468.753
 L 164.174 468.5
 L 164.5 468.337
 L 165.337 467.5
 L 166.171 466.5
 L 166.5 466.171
 L 167.5 465.671
 L 168.5 465.671
 L 169.5 465.905
 L 170.5 466.256
 L 170.988 466.5
 L 171.5 466.671
 L 172.5 466.753
 L 173.5 466.802
 L 174.5 466.602
 L 175.5 466.202
 L 176.5 465.866
 L 177.5 465.585
 L 178.5 465.335
 L 179.5 465.102
 L 180.5 464.775
 L 181.004 464.5
 L 181.5 464.202
 L 182.5 463.684
 L 183.5 463.229
 L 184.5 462.919
 L 185.5 462.752
 L 186.5 462.775
 L 188.5 463.32
 L 189.5 463.411
 L 190.5 463.402
 L 191.5 463.28
 L 192.5 462.947
 L 193.305 462.5
 L 193.5 462.36
 L 194.5 461.628
 L 195.5 461.003
 L 196.5 460.702
 L 197.5 460.684
 L 198.5 460.684
 L 199.5 460.702
 L 200.5 460.579
 L 200.705 460.5
 L 201.5 460.169
 L 202.5 459.656
 L 202.725 459.5
 L 203.5 458.725
 L 203.789 458.5
 L 204.5 457.789
 L 204.837 457.5
 L 205.5 456.837
 L 206.174 456.5
 L 206.5 456.36
 L 207.5 456.253
 L 209.5 456.684
 L 210.174 456.5
 L 210.5 456.378
 L 211.5 455.602
 L 211.628 455.5
 L 212.5 454.628
 L 212.646 454.5
 L 213.5 453.646
 L 213.705 453.5
 L 215.5 451.705
 L 216.012 451.5
 L 216.5 451.337
 L 217.5 451.218
 L 218.5 451.253
 L 219.5 451.003
 L 220.5 450.378
 L 221.5 449.684
 L 221.905 449.5
 L 222.5 449.202
 L 223.5 448.752
 L 223.878 448.5
 L 224.5 447.947
 L 225.075 447.5
 L 225.5 447.128
 L 226.337 446.5
 L 227.5 445.503
 L 229.503 443.5
 L 230.5 442.866
 L 231.171 442.5
 L 231.5 442.302
 L 233.5 440.503
 L 233.504 440.5
 L 234.305 439.5
 L 234.5 439.305
 L 235.506 438.5
 L 236.5 437.837
 L 237.5 437.503
 L 237.523 437.5
 L 238.5 437.391
 L 239.5 437.502
 L 240.5 437.378
 L 241.5 436.705
 L 241.756 436.5
 L 242.5 435.508
 L 243.5 435.705
 L 244.5 436.004
 L 245.5 436.253
 L 246.5 436.378
 L 247.5 435.878
 L 247.878 435.5
 L 248.5 434.505
 L 248.503 434.5
 L 249.012 433.5
 L 249.5 433.174
 L 250.174 432.5
 L 250.5 431.523
 L 250.506 431.5
 L 250.5 431.477
 L 250.174 430.5
 L 250.508 429.5
 L 251.5 428.756
 L 252.5 428.905
 L 253.5 429.105
 L 254.488 429.5
 L 254.5 429.508
 L 255.5 430.006
 L 256 430.006
 L 256 69.0977
 L 255.5 69.0977
 L 254.5 69.1342
 L 253.5 69.2674
 z
 M 0.5 114.247
 L 0 114.247
 L 0 512
 L 85.0117 512
 L 85.0117 511.5
 L 85.5 511.012
 L 86.5 510.512
 L 86.5117 510.5
 L 88.0117 509.5
 L 88.5 509.256
 L 90.5 508.756
 L 91.0117 508.5
 L 91.5 508.174
 L 92.5 507.756
 L 93.5 507.256
 L 94.5 506.905
 L 95.5 506.305
 L 96.5 505.905
 L 97.5 505.305
 L 98.5 504.837
 L 99.5 504.337
 L 100.5 503.905
 L 101.5 503.305
 L 102.5 502.905
 L 103.5 502.305
 L 105.5 501.705
 L 106.5 501.504
 L 106.523 501.5
 L 108.5 501.105
 L 109.5 500.671
 L 110.012 500.5
 L 110.5 500.305
 L 111.5 499.837
 L 112.5 499.171
 L 113.171 498.5
 L 113.5 498.105
 L 114.5 497.305
 L 115.5 497.004
 L 116.5 497.105
 L 117.5 496.837
 L 118.5 496.671
 L 119.012 496.5
 L 119.5 496.305
 L 120.5 495.671
 L 121.012 495.5
 L 121.5 495.305
 L 122.5 494.837
 L 123.5 494.503
 L 123.508 494.5
 L 124.5 494.004
 L 125.256 493.5
 L 125.5 493.36
 L 126.5 492.932
 L 127.5 492.36
 L 128.5 491.878
 L 130.5 490.878
 L 131.5 490.503
 L 131.506 490.5
 L 132.256 489.5
 L 132.105 488.5
 L 132.075 487.5
 L 132.391 486.5
 L 132.378 485.5
 L 131.5 484.862
 L 130.5 484.883
 L 129.5 485.098
 L 128.5 484.872
 L 128.004 484.5
 L 127.5 484.369
 L 126.5 484.291
 L 125.5 484.369
 L 124.5 484.317
 L 123.5 484.09
 L 122.5 483.832
 L 121.503 483.5
 L 121.5 483.499
 L 120.5 483.374
 L 119.5 483.306
 L 118.5 483.327
 L 117.5 483.384
 L 116.5 483.332
 L 115.5 483.249
 L 114.5 483.181
 L 113.5 482.949
 L 112.602 482.5
 L 112.5 482.467
 L 111.5 482.199
 L 110.5 482.071
 L 109.5 481.979
 L 108.5 481.76
 L 107.504 481.5
 L 107.5 481.499
 L 106.5 481.406
 L 105.5 481.361
 L 104.5 481.268
 L 103.5 481.044
 L 102.5 480.762
 L 101.5 480.616
 L 100.841 480.5
 L 100.5 480.461
 L 99.5 480.181
 L 98.5 479.709
 L 98.1023 479.5
 L 97.5 479.259
 L 96.5 478.832
 L 95.8023 478.5
 L 95.5 478.379
 L 94.5 477.999
 L 93.5 477.604
 L 93.2529 477.5
 L 92.5 477.249
 L 91.5 476.762
 L 91.0853 476.5
 L 90.5 476.207
 L 88.947 475.5
 L 88.5 475.325
 L 87.5 474.832
 L 86.9567 474.5
 L 86.5 474.249
 L 85.0029 473.5
 L 84.5 473.263
 L 83.5 472.44
 L 81.5 470.575
 L 80.5539 469.5
 L 80.5 469.443
 L 79.4186 468.5
 L 78.5 467.581
 L 78.4349 467.5
 L 77.7012 466.5
 L 77.5 466.191
 L 77.0013 465.5
 L 76.5 464.855
 L 76.1682 464.5
 L 75.4349 463.5
 L 74.8512 462.5
 L 74.5 461.72
 L 74.3837 461.5
 L 73.9297 460.5
 L 73.5 459.498
 L 72.7791 458.5
 L 71.8902 457.5
 L 71.1124 456.5
 L 70.5445 455.5
 L 70.5 455.407
 L 70.0012 454.5
 L 69.5445 453.5
 L 69.5 453.415
 L 68.9512 452.5
 L 68.0465 450.5
 L 67.6609 449.5
 L 67.5 449.098
 L 67.2012 448.5
 L 66.5 446.898
 L 66.2791 446.5
 L 65.7738 445.5
 L 65.5 444.831
 L 65.3512 444.5
 L 64.9358 443.5
 L 64.5778 442.5
 L 64.5 442.247
 L 63.5 439.609
 L 63.4486 439.5
 L 63.0011 438.5
 L 62.6209 437.5
 L 62.5 437.198
 L 62.1678 436.5
 L 61.7809 435.5
 L 61.5 434.622
 L 61.4535 434.5
 L 61.0426 433.5
 L 60.6861 432.5
 L 60.5 431.998
 L 60.2738 431.5
 L 59.8343 430.5
 L 59.5 429.609
 L 59.001 428.5
 L 58.5778 427.5
 L 58.5 427.298
 L 58.1374 426.5
 L 57.5 425.043
 L 57.2154 424.5
 L 56.5 422.862
 L 56.3012 422.5
 L 55.8054 421.5
 L 55.5 420.862
 L 55.3012 420.5
 L 54.7738 419.5
 L 54.5 418.898
 L 53.8054 417.5
 L 53.5 416.862
 L 53.2907 416.5
 L 52.7738 415.5
 L 52.5 414.952
 L 52.2512 414.5
 L 51.7619 413.5
 L 51.5 412.998
 L 51.1854 412.5
 L 50.6012 411.5
 L 50.5 411.331
 L 49.9749 410.5
 L 49.5 409.598
 L 49.4426 409.5
 L 48.9012 408.5
 L 48.5 407.698
 L 48.3837 407.5
 L 47.8512 406.5
 L 47.5 405.798
 L 47.3249 405.5
 L 46.7512 404.5
 L 46.5 404.043
 L 46.1484 403.5
 L 45.5 402.316
 L 45.0013 401.5
 L 43.9749 399.5
 L 42.9223 397.5
 L 42.5 396.698
 L 42.3902 396.5
 L 41.8821 395.5
 L 41.5 394.698
 L 41.3837 394.5
 L 40.8344 393.5
 L 40.5 392.862
 L 40.2791 392.5
 L 39.8512 391.5
 L 39.5 390.622
 L 39.4426 390.5
 L 38.8902 389.5
 L 38.5 388.862
 L 38.2515 388.5
 L 37.7012 387.5
 L 37.5 387.053
 L 37.2381 386.5
 L 36.8821 385.5
 L 36.5445 384.5
 L 36.5 384.386
 L 36.1012 383.5
 L 35.5964 382.5
 L 35.5 382.316
 L 35.0275 381.5
 L 34.6374 380.5
 L 34.5 380.068
 L 34.2907 379.5
 L 33.9773 378.5
 L 33.6315 377.5
 L 33.5 377.164
 L 33.1854 376.5
 L 32.7283 375.5
 L 32.5 374.942
 L 32.2907 374.5
 L 31.5 372.622
 L 31.4457 372.5
 L 31.0512 371.5
 L 30.7184 370.5
 L 30.5 369.782
 L 30.0249 368.5
 L 29.6374 367.5
 L 29.5 367.122
 L 29.2512 366.5
 L 28.8821 365.5
 L 28.592 364.5
 L 28.5 364.211
 L 28.2381 363.5
 L 27.8821 362.5
 L 27.1202 360.5
 L 26.7619 359.5
 L 26.5 358.64
 L 26.4512 358.5
 L 26.1202 357.5
 L 25.8344 356.5
 L 25.5963 355.5
 L 25.5 355.163
 L 24.9773 353.5
 L 24.6374 352.5
 L 24.5 352.068
 L 24.3106 351.5
 L 23.9556 350.5
 L 23.6315 349.5
 L 23.5 348.996
 L 23.3647 348.5
 L 23.0662 347.5
 L 22.7409 346.5
 L 22.5 345.831
 L 22.3647 345.5
 L 22.0209 344.5
 L 21.7809 343.5
 L 21.1676 341.5
 L 20.8471 340.5
 L 20.2209 338.5
 L 19.8855 337.5
 L 19.5809 336.5
 L 19.2209 335.5
 L 18.9453 334.5
 L 18.6547 333.5
 L 18.5 332.997
 L 18.3343 332.5
 L 18.0564 331.5
 L 17.8223 330.5
 L 17.612 329.5
 L 17.5 328.996
 L 17.126 327.5
 L 16.251 324.5
 L 16.0609 323.5
 L 15.9409 322.5
 L 15.8343 321.5
 L 15.6749 320.5
 L 15.5487 319.5
 L 15.4102 318.5
 L 15.0465 316.5
 L 14.7738 315.5
 L 14.5 314.747
 L 14.4141 314.5
 L 14.1676 313.5
 L 13.9793 312.5
 L 13.751 311.5
 L 13.5445 310.5
 L 13.1967 308.5
 L 13.0426 307.5
 L 12.924 306.5
 L 12.8209 305.5
 L 12.7009 304.5
 L 12.626 303.5
 L 12.6314 301.5
 L 12.501 300.5
 L 12.2926 299.5
 L 12.1809 298.5
 L 12.1163 297.5
 L 12.0009 294.5
 L 11.9823 293.5
 L 11.9453 292.5
 L 11.9453 291.5
 L 11.9823 290.5
 L 12.1009 288.5
 L 12.1409 287.5
 L 12.1409 286.5
 L 12.2209 284.5
 L 12.3409 283.5
 L 12.6209 281.5
 L 12.7093 280.5
 L 12.7809 279.5
 L 12.8209 278.5
 L 12.8209 277.5
 L 12.8855 276.5
 L 13.0009 275.5
 L 13.1409 274.5
 L 13.251 273.5
 L 13.3343 272.5
 L 13.6676 270.5
 L 13.7409 269.5
 L 13.7926 268.5
 L 13.8343 267.5
 L 13.9009 266.5
 L 13.9409 265.5
 L 14.001 264.5
 L 14.3706 261.5
 L 14.4593 260.5
 L 14.5 260.174
 L 14.592 259.5
 L 14.6374 258.5
 L 14.8192 256.5
 L 14.9358 255.5
 L 15.1097 253.5
 L 15.1676 252.5
 L 15.1809 251.5
 L 15.2093 250.5
 L 15.1967 249.5
 L 15.263 247.5
 L 15.263 246.5
 L 15.1829 245.5
 L 15.1097 244.5
 L 15.0228 243.5
 L 14.9793 242.5
 L 14.9176 241.5
 L 14.8209 240.5
 L 14.7809 239.5
 L 14.7809 238.5
 L 14.8209 237.5
 L 14.8209 236.5
 L 14.8054 235.5
 L 14.7738 234.5
 L 14.7512 233.5
 L 14.7118 232.5
 L 14.5569 231.5
 L 14.5 231.159
 L 14.4012 230.5
 L 14.0249 228.5
 L 13.6124 226.5
 L 13.5 225.994
 L 13.0012 223.5
 L 12.7644 222.5
 L 12.5014 221.5
 L 12.2012 220.5
 L 11.9512 219.5
 L 11.7118 218.5
 L 11.396 217.5
 L 10.7118 215.5
 L 10.396 214.5
 L 9.86965 212.5
 L 9.55386 211.5
 L 9.5 211.159
 L 9.37646 210.5
 L 9.25146 209.5
 L 8.97196 208.5
 L 8.85117 207.5
 L 8.78683 206.5
 L 8.65117 205.5
 L 8.5 205.122
 L 8.16822 204.5
 L 7.85431 203.5
 L 7.80117 202.5
 L 7.95561 201.5
 L 8.12016 200.5
 L 8.30117 199.5
 L 8.45117 198.5
 L 8.5 198.305
 L 8.69159 197.5
 L 9.04652 196.5
 L 9.41015 195.5
 L 9.5 195.28
 L 9.80536 194.5
 L 10.1097 193.5
 L 10.4059 192.5
 L 10.5 192.171
 L 10.7012 191.5
 L 10.8512 190.5
 L 10.9297 189.5
 L 10.9358 188.5
 L 10.8647 187.5
 L 10.7868 186.5
 L 10.8012 185.5
 L 10.8821 184.5
 L 10.8821 183.5
 L 10.8512 182.5
 L 10.8012 181.5
 L 10.817 180.5
 L 10.8902 179.5
 L 10.7955 178.5
 L 10.5602 177.5
 L 10.2661 176.5
 L 9.87646 175.5
 L 9.5 174.831
 L 9.30156 174.5
 L 8.64453 173.5
 L 8.5 173.275
 L 8.06396 172.5
 L 7.62646 171.5
 L 7.5 171.247
 L 7.18544 170.5
 L 6.85117 169.5
 L 6.50123 168.5
 L 6.27379 167.5
 L 6.00106 165.5
 L 5.89232 164.5
 L 5.84884 163.5
 L 5.84884 162.5
 L 6.00097 161.5
 L 6.12597 160.5
 L 6.24015 159.5
 L 6.28362 158.5
 L 6.33431 157.5
 L 6.37597 156.5
 L 6.63742 153.5
 L 6.67493 152.5
 L 6.67493 151.5
 L 6.71841 150.5
 L 6.79264 149.5
 L 6.89232 148.5
 L 7.06623 146.5
 L 7.12016 145.5
 L 7.18288 144.5
 L 7.31064 143.5
 L 7.45349 142.5
 L 7.5 142.305
 L 7.97491 140.5
 L 8.27908 139.5
 L 8.39597 138.5
 L 8.50123 137.5
 L 8.65912 136.5
 L 8.97491 135.5
 L 9.3249 134.5
 L 9.5 134.075
 L 9.76822 133.5
 L 10.2874 132.5
 L 10.7874 131.5
 L 11.1682 130.5
 L 11.4349 129.5
 L 11.5015 128.5
 L 11.5 128.494
 L 11.1385 127.5
 L 10.5 126.798
 L 8.5 126.165
 L 7.5 125.665
 L 7.3203 125.5
 L 6.5 124.598
 L 6.42487 124.5
 L 5.71595 123.5
 L 5.5 123.164
 L 5.12646 122.5
 L 4.68896 121.5
 L 4.5 121.122
 L 4.20726 120.5
 L 3.70156 119.5
 L 3.5 119.122
 L 3.14453 118.5
 L 2.5 117.497
 L 1.5 115.831
 L 1.27103 115.5
 z
 M 94.5 131.174
 L 94.0117 131.5
 L 92.5 133.012
 L 90.5 134.012
 L 90.0117 134.5
 L 89.5 135.523
 L 88.5234 136.5
 L 88.5234 138.5
 L 89.5 139.477
 L 90.5 139.477
 L 91.5 139.488
 L 92.5 139.488
 L 93.5 139.477
 L 94.5 138.988
 L 95.5 137.988
 L 95.8255 137.5
 L 96.8255 136.5
 L 97.2442 135.5
 L 97.4922 134.5
 L 97.8255 133.5
 L 97.4922 132.5
 L 96.8255 131.5
 L 96.5 131.174
 L 95.5 130.756
 z
 M 40.5 233.275
 L 40.0953 233.5
 L 39.5 233.925
 L 38.9971 234.5
 L 38.5977 235.5
 L 38.5 235.988
 L 38.1221 237.5
 L 37.6395 238.5
 L 36.9252 239.5
 L 36.6395 240.5
 L 36.6395 241.5
 L 36.7824 242.5
 L 37.4967 243.5
 L 37.5 243.503
 L 38.6628 244.5
 L 39.5 245.128
 L 40.2442 245.5
 L 40.5 245.602
 L 41.5 245.919
 L 42.5 246.138
 L 43.5 246.169
 L 44.5 245.837
 L 44.8372 245.5
 L 45.1693 244.5
 L 45.1385 243.5
 L 45.0582 242.5
 L 45.2529 241.5
 L 45.4023 240.5
 L 45.4112 239.5
 L 45.4112 238.5
 L 45.2804 237.5
 L 44.7891 236.5
 L 44.5 235.994
 L 44.2529 235.5
 L 43.8359 234.5
 L 43.5 233.895
 L 43.1047 233.5
 L 42.5 232.996
 L 41.5 232.997
 z
 M 186.5 233.135
 L 186.028 233.5
 L 185.557 234.5
 L 186.498 235.5
 L 186.5 235.501
 L 187.5 235.266
 L 188.185 234.5
 L 188.126 233.5
 L 187.5 232.999
 z
 M 61.5 234.497
 L 61.4953 234.5
 L 60.5 235.329
 L 60.3721 235.5
 L 60.1221 236.5
 L 60.1628 237.5
 L 60.5 238.174
 L 60.7442 238.5
 L 61.5 238.932
 L 62.5 238.646
 L 62.6279 238.5
 L 63.2294 237.5
 L 63.4186 236.5
 L 63.1686 235.5
 L 62.5 234.609
 z
 M 154.523 308.5
 L 154.5 308.506
 L 153.5 309.006
 L 151.523 309.5
 L 151.5 309.508
 L 150.5 310.012
 L 150.174 310.5
 L 149.5 311.841
 L 149.302 312.5
 L 149.202 313.5
 L 149.169 314.5
 L 149.169 316.5
 L 149.202 317.5
 L 149.302 318.5
 L 149.32 319.5
 L 149.391 320.5
 L 149.28 321.5
 L 149.253 322.5
 L 149.218 323.5
 L 149.105 324.5
 L 148.841 325.5
 L 148.523 326.5
 L 148.5 326.523
 L 148.174 327.5
 L 147.5 328.174
 L 147.402 328.5
 L 147.28 329.5
 L 147.218 330.5
 L 147.5 331.488
 L 148.488 330.5
 L 148.5 330.492
 L 149.244 329.5
 L 149.492 328.5
 L 149.5 328.477
 L 149.988 327.5
 L 150.5 326.988
 L 151.5 326.826
 L 153.5 326.159
 L 154.5 326.244
 L 155.5 326.495
 L 155.523 326.5
 L 156.5 326.663
 L 157.5 326.996
 L 158.5 327.663
 L 159.337 328.5
 L 161.5 331.095
 L 161.905 331.5
 L 162.5 331.996
 L 163.004 332.5
 L 164.5 334.295
 L 164.705 334.5
 L 166.105 335.5
 L 167.305 336.5
 L 167.5 336.695
 L 168.5 337.895
 L 168.932 338.5
 L 169.5 339.163
 L 170.5 340.163
 L 172.5 341.495
 L 173.5 342.095
 L 174.006 342.5
 L 174.5 342.994
 L 176.5 344.495
 L 176.512 344.5
 L 178.5 345.492
 L 178.523 345.5
 L 179.5 345.988
 L 180.5 347.488
 L 180.512 347.5
 L 181.5 347.994
 L 182.5 348.159
 L 183.5 348.159
 L 184.5 347.826
 L 185.5 347.988
 L 186.523 348.5
 L 188.5 350.477
 L 188.512 350.5
 L 189.5 351.488
 L 189.523 351.5
 L 190.5 351.744
 L 191.477 351.5
 L 191.5 351.477
 L 192.5 350.988
 L 193.5 350.826
 L 194.5 350.826
 L 195.512 351.5
 L 197.523 352.5
 L 198.5 352.826
 L 199.5 352.988
 L 200.5 352.988
 L 200.988 352.5
 L 201.488 351.5
 L 201.159 350.5
 L 200.744 349.5
 L 200.5 349.012
 L 199.492 347.5
 L 198.744 346.5
 L 198.5 345.523
 L 198.492 345.5
 L 198.488 344.5
 L 198.477 343.5
 L 200.477 342.5
 L 201.477 341.5
 L 201.488 340.5
 L 200.988 339.5
 L 199.988 338.5
 L 199.488 337.5
 L 196.488 334.5
 L 195.988 333.5
 L 194.988 332.5
 L 194.5 331.523
 L 193.5 330.523
 L 192.5 330.512
 L 192.488 330.5
 L 189.488 328.5
 L 187.5 327.506
 L 187.492 327.5
 L 186.5 326.508
 L 185.5 325.841
 L 184.5 325.508
 L 183.5 325.508
 L 183.477 325.5
 L 181.5 323.523
 L 180.5 323.523
 L 179.477 322.5
 L 177.5 321.512
 L 177.488 321.5
 L 177.488 318.5
 L 176.5 317.512
 L 176.477 317.5
 L 175.5 316.523
 L 174.5 316.523
 L 174.477 316.5
 L 174.477 315.5
 L 174.488 314.5
 L 173.5 312.523
 L 173.477 312.5
 L 172.5 312.012
 L 171.988 311.5
 L 171.488 310.5
 L 170.5 309.512
 L 168.5 309.508
 L 167.5 309.756
 L 166.5 310.174
 L 166.012 310.5
 L 165.5 311.012
 L 164.5 310.523
 L 163.477 309.5
 L 162.5 309.012
 L 161.5 308.841
 L 160.5 308.756
 L 159.5 308.508
 L 159.477 308.5
 L 158.5 308.012
 L 157.5 307.841
 L 156.5 307.841
 z
 M 247.5 431.012
 L 246.523 431.5
 L 247.174 432.5
 L 247.5 432.826
 L 247.988 432.5
 L 247.988 431.5
 z
M 256 0   L 512 0   L 512 512   L 256 512 z
 M 302.5 1.00584
 L 302.105 1.5
 L 301.105 2.5
 L 300.5 2.93191
 L 299.5 3.50292
 L 298.5 3.87792
 L 297.5 4.16926
 L 296.508 4.5
 L 296.5 4.50334
 L 295.5 5.00292
 L 294.256 5.5
 L 293.5 5.87792
 L 292.5 6.30234
 L 292.006 6.5
 L 291.5 6.72482
 L 290.5 7.10234
 L 289.5 7.41121
 L 289.174 7.5
 L 288.5 7.78905
 L 287.5 8.16926
 L 286.756 8.5
 L 286.5 8.64619
 L 285.5 9.25292
 L 285.105 9.5
 L 284.5 9.93191
 L 282.671 11.5
 L 282.5 11.7047
 L 281.705 12.5
 L 281.5 12.6706
 L 280.5 13.6706
 L 278.5 16.0039
 L 278.004 16.5
 L 277.5 17.1047
 L 277.218 17.5
 L 276.5 18.2176
 L 275.504 19.5
 L 275.5 19.5058
 L 274.36 21.5
 L 273.905 22.5
 L 273.5 23.0058
 L 272.506 24.5
 L 272.5 24.5058
 L 271.5 26.0058
 L 271.218 26.5
 L 270.504 27.5
 L 269.505 29.5
 L 269.505 31.5
 L 269.789 32.5
 L 270.058 33.5
 L 270.102 34.5
 L 269.902 36.5
 L 269.614 37.5
 L 269.5 38.0117
 L 269.419 38.5
 L 269.048 39.5
 L 268.725 40.5
 L 268.5 41.0058
 L 268.32 41.5
 L 267.878 42.5
 L 267.378 43.5
 L 266.905 44.5
 L 266.5 45.0058
 L 266.218 45.5
 L 266.006 46.5
 L 265.508 48.5
 L 265.508 49.5
 L 265.756 50.5
 L 265.705 51.5
 L 265.504 52.5
 L 265.5 52.5117
 L 265.253 53.5
 L 264.878 54.5
 L 264.253 55.5
 L 263.5 56.3605
 L 263.402 56.5
 L 262.628 57.5
 L 262.5 57.6706
 L 262.002 58.5
 L 261.102 59.5
 L 258.802 62.5
 L 257.602 64.5
 L 257.5 64.6462
 L 256.836 65.5
 L 256.5 65.8779
 L 256 65.8779
 L 256 0
 L 302.837 0
 L 302.837 0.5
 z
 M 486.365 0.5
 L 486.432 1.5
 L 486.5 1.70467
 L 486.784 2.5
 L 487.498 3.5
 L 487.5 3.50389
 L 488.247 4.5
 L 488.497 5.5
 L 488.622 6.5
 L 488.64 7.5
 L 488.996 8.5
 L 489.5 9.00389
 L 490.492 9.5
 L 490.5 9.50334
 L 493.5 10.5026
 L 494.5 11.0582
 L 495.5 11.8359
 L 496.5 12.7248
 L 497.275 13.5
 L 497.5 13.7023
 L 498.225 14.5
 L 498.5 14.7519
 L 499.5 15.5853
 L 500.665 16.5
 L 501.5 17.216
 L 502.5 18.0017
 L 503.081 18.5
 L 503.5 18.9186
 L 504.037 19.5
 L 504.5 20.0476
 L 504.811 20.5
 L 505.5 21.3479
 L 506.5 22.271
 L 506.798 22.5
 L 507.5 23.0853
 L 508.5 23.8353
 L 509.5 24.6686
 L 510.5 25.4023
 L 510.64 25.5
 L 511.5 26.1693
 L 512 26.1693
 L 512 18.4971
 L 511.5 18.4971
 L 510.614 17.5
 L 510.5 17.2953
 L 510.194 16.5
 L 509.886 15.5
 L 509.684 14.5
 L 509.614 13.5
 L 509.503 12.5
 L 509.003 10.5
 L 509.105 9.5
 L 509.5 9.28037
 L 510.5 9.3203
 L 511.5 9.50259
 L 512 9.50259
 L 512 0
 L 486.365 0
 z
 M 451.5 11.2953
 L 451.244 11.5
 L 451.095 12.5
 L 451.497 13.5
 L 452.211 14.5
 L 454.211 16.5
 L 455.354 17.5
 L 456.5 18.4023
 L 457.5 19.3023
 L 457.747 19.5
 L 459.247 20.5
 L 459.5 20.6556
 L 460.5 21.1682
 L 461.053 21.5
 L 461.5 21.7874
 L 462.5 22.3682
 L 462.829 22.5
 L 463.5 22.7515
 L 464.5 23.0569
 L 466.244 23.5
 L 466.5 23.5731
 L 467.5 23.8864
 L 468.5 24.3353
 L 468.829 24.5
 L 469.5 24.8658
 L 470.5 25.593
 L 471.5 26.1385
 L 472.5 26.593
 L 473.5 26.9567
 L 474.5 27.0023
 L 475.5 27.0029
 L 476.5 26.947
 L 477.5 26.8779
 L 478.5 26.947
 L 479.5 27.2176
 L 481.5 27.5039
 L 482.5 27.5047
 L 483.5 27.3047
 L 484.5 26.8411
 L 484.841 26.5
 L 485.5 26.1047
 L 486.256 25.5
 L 486.5 25.1745
 L 486.905 24.5
 L 486.503 23.5
 L 486.5 23.4971
 L 485.503 22.5
 L 484.5 21.7196
 L 484.302 21.5
 L 483.5 20.8314
 L 483.169 20.5
 L 482.5 19.8828
 L 481.5 19.0367
 L 480.5 18.2674
 L 479.391 17.5
 L 478.5 16.8314
 L 477.932 16.5
 L 477.5 16.1641
 L 476.504 15.5
 L 476.5 15.4961
 L 475.646 14.5
 L 475.5 14.2442
 L 474.5 13.4942
 L 473.5 13.4922
 L 473.477 13.5
 L 472.5 13.7442
 L 471.5 14.1589
 L 470.988 14.5
 L 470.5 14.7442
 L 469.5 15.2953
 L 468.5 15.4967
 L 467.5 15.3863
 L 466.5 15.0977
 L 465.5 14.7706
 L 464.5 14.4977
 L 463.5 14.0814
 L 462.5 13.7481
 L 461.905 13.5
 L 461.5 13.3161
 L 460.5 12.9981
 L 459.5 12.6647
 L 458.841 12.5
 L 458.5 12.407
 L 457.5 12.0977
 L 456.5 11.7706
 L 455.5 11.407
 L 454.5 11.0977
 L 453.5 10.9971
 L 452.5 11.0681
 z
 M 508.5 69.4269
 L 508.244 69.5
 L 507.5 69.8307
 L 506.5 70.3977
 L 506.295 70.5
 L 505.5 71.2953
 L 505.244 71.5
 L 504.5 72.4922
 L 503.5 72.4942
 L 502.5 71.6628
 L 502.256 71.5
 L 501.5 71.1221
 L 500.5 70.7196
 L 499.5 70.4974
 L 498.5 70.407
 L 497.5 70.4982
 L 496.5 70.6647
 L 495.5 70.8059
 L 494.5 70.8314
 L 493.5 70.9147
 L 492.5 71.0367
 L 491.5 71.4147
 L 491.354 71.5
 L 490.5 72.0977
 L 490.053 72.5
 L 489.5 73.211
 L 489.298 73.5
 L 488.5 75.4942
 L 488.495 75.5
 L 487.5 76.1221
 L 486.5 76.1641
 L 484.5 76.2252
 L 483.5 76.3314
 L 481.5 76.6318
 L 480.5 76.686
 L 479.5 76.5698
 L 479.256 76.5
 L 478.5 76.2481
 L 477.5 75.9269
 L 476.5 75.7651
 L 475.5 75.6984
 L 474.5 75.6647
 L 473.5 75.5977
 L 472.5 75.7196
 L 471.5 76.053
 L 470.5 76.4974
 L 469.5 76.8721
 L 468.5 77.1221
 L 467.5 77.2471
 L 466.5 77.1641
 L 465.5 77.1641
 L 464.5 77.2752
 L 463.5 77.407
 L 462.5 77.4147
 L 461.5 77.407
 L 460.5 77.2674
 L 459.5 77.2674
 L 458.5 77.284
 L 457.5 77.3444
 L 456.5 77.4147
 L 455.5 77.3161
 L 454.5 77.1342
 L 453.5 77.0433
 L 452.5 77.0433
 L 451.5 76.9981
 L 449.5 77.0698
 L 448.5 77.0698
 L 447.5 77.0367
 L 444.5 76.8059
 L 443.5 76.784
 L 442.5 76.6647
 L 441.5 76.5751
 L 441.012 76.5
 L 440.5 76.407
 L 439.5 76.2481
 L 438.5 76.1342
 L 437.5 76.0977
 L 436.5 75.9977
 L 435.5 75.7471
 L 434.5 75.6085
 L 432.5 75.407
 L 431.5 75.2752
 L 430.5 75.1221
 L 429.5 74.9971
 L 428.5 74.8294
 L 427.5 74.6953
 L 426.523 74.5
 L 425.5 74.3538
 L 424.5 74.3294
 L 423.5 74.2953
 L 422.5 74.2953
 L 421.5 73.9942
 L 420.5 73.8953
 L 418.5 73.4953
 L 417.5 73.0953
 L 416.5 72.7442
 L 414.5 72.7442
 L 413.523 72.5
 L 412.5 72.2953
 L 411.5 72.2953
 L 410.5 72.4942
 L 410.477 72.5
 L 409.5 72.8255
 L 408.5 72.9942
 L 407.5 72.9883
 L 406.5 73.4883
 L 404.5 73.4922
 L 403.5 73.8255
 L 402.5 73.9883
 L 401.5 73.9883
 L 400.5 73.8255
 L 399.523 73.5
 L 399.5 73.4883
 L 398.5 73.2442
 L 397.5 73.2442
 L 396.5 73.2953
 L 395.5 73.4942
 L 395.477 73.5
 L 394.5 73.8255
 L 393.5 74.4922
 L 393.477 74.5
 L 392.5 74.9883
 L 391.5 74.9883
 L 390.523 74.5
 L 390.5 74.4922
 L 389.5 74.4883
 L 388.5 74.4942
 L 388.488 74.5
 L 387.488 75.5
 L 385.988 76.5
 L 385.5 76.7442
 L 384.5 77.1589
 L 382.488 78.5
 L 380.5 80.4883
 L 380.492 80.5
 L 379.5 81.4922
 L 379.488 81.5
 L 378.5 82.4883
 L 378.477 82.5
 L 377.5 82.8255
 L 376.5 82.8255
 L 375.5 82.9942
 L 374.5 83.4922
 L 374.477 83.5
 L 373.5 83.6953
 L 372.5 84.1589
 L 372.159 84.5
 L 371.5 85.4883
 L 370.5 87.4883
 L 370.492 87.5
 L 368.492 89.5
 L 367.5 91.4766
 L 367.492 91.5
 L 367.488 92.5
 L 366.5 93.4883
 L 366.492 93.5
 L 365.5 95.4766
 L 365.477 95.5
 L 363.5 96.4883
 L 362.5 96.4883
 L 362.488 96.5
 L 360.988 97.5
 L 359.5 98.9883
 L 356.477 100.5
 L 356.477 102.5
 L 355.477 103.5
 L 356.477 104.5
 L 355.5 105.477
 L 354.5 105.477
 L 353.5 106.477
 L 352.5 106.477
 L 351.5 106.488
 L 351.477 106.5
 L 350.5 107.477
 L 349.5 106.988
 L 348.5 106.988
 L 347.5 106.826
 L 345.5 105.492
 L 344.5 104.492
 L 343.5 104.492
 L 343.488 104.5
 L 342.5 105.488
 L 342.477 105.5
 L 341.5 106.477
 L 341.492 106.5
 L 341.5 106.523
 L 341.988 107.5
 L 342.477 108.5
 L 342.477 109.5
 L 342.5 109.523
 L 342.988 110.5
 L 342.5 111.477
 L 342.477 111.5
 L 341.988 112.5
 L 341.988 114.5
 L 342.5 115.523
 L 343.159 117.5
 L 343.477 118.5
 L 342.477 119.5
 L 341.5 119.826
 L 339.5 119.159
 L 338.5 119.488
 L 337.5 119.988
 L 336.492 121.5
 L 335.492 122.5
 L 334.5 124.477
 L 334.477 124.5
 L 334.477 126.5
 L 334.488 127.5
 L 334.5 127.523
 L 336.477 129.5
 L 336.5 129.512
 L 337.5 129.523
 L 338.477 130.5
 L 338.5 130.512
 L 339.5 130.512
 L 341.477 131.5
 L 342.5 132.523
 L 342.988 133.5
 L 342.988 135.5
 L 343.477 136.5
 L 343.477 137.5
 L 342.5 138.477
 L 341.5 138.477
 L 341.477 138.5
 L 341.477 139.5
 L 340.5 139.988
 L 338.5 139.988
 L 337.5 140.477
 L 335.5 142.477
 L 335.488 142.5
 L 334.488 143.5
 L 334.477 144.5
 L 333.988 145.5
 L 333.5 146.477
 L 332.5 147.477
 L 331.5 147.477
 L 330.5 148.477
 L 329.5 148.477
 L 328.5 148.488
 L 328.477 148.5
 L 326.5 150.477
 L 325.5 149.477
 L 324.5 149.488
 L 323.5 149.492
 L 323.477 149.5
 L 322.5 149.988
 L 320.5 149.988
 L 319.5 149.826
 L 318.5 150.159
 L 318.244 150.5
 L 317.826 151.5
 L 317.5 152.477
 L 317.488 152.5
 L 317.488 153.5
 L 317.159 154.5
 L 316.988 155.5
 L 314.988 159.5
 L 314.5 159.988
 L 313.5 160.488
 L 312.5 159.988
 L 311.5 159.988
 L 310.5 161.488
 L 310.494 161.5
 L 310.159 162.5
 L 310.244 163.5
 L 310.244 164.5
 L 310.492 165.5
 L 310.5 165.523
 L 311.5 166.523
 L 311.988 167.5
 L 311.5 167.988
 L 310.5 168.477
 L 310.488 168.5
 L 310.477 169.5
 L 311.477 170.5
 L 311.5 170.512
 L 312.488 171.5
 L 312.988 172.5
 L 312.988 173.5
 L 313.477 174.5
 L 313.477 175.5
 L 313.5 175.523
 L 315.5 175.523
 L 316.5 174.523
 L 317.5 174.523
 L 318.5 175.012
 L 319.5 175.012
 L 320.477 175.5
 L 320.5 175.523
 L 321.5 176.012
 L 322.5 176.012
 L 323.477 176.5
 L 325.477 178.5
 L 327.477 179.5
 L 327.5 179.523
 L 328.5 179.512
 L 329.5 179.012
 L 330.5 179.012
 L 331.477 179.5
 L 331.5 179.523
 L 331.988 180.5
 L 332.5 181.012
 L 333.5 181.174
 L 334.5 181.256
 L 335.477 181.5
 L 336.5 182.523
 L 338.5 182.523
 L 338.523 182.5
 L 340.5 181.512
 L 341.5 181.508
 L 343.012 180.5
 L 343.5 180.256
 L 344.5 180.006
 L 346.5 180.012
 L 347.5 179.512
 L 348.5 179.512
 L 350.5 180.174
 L 350.988 180.5
 L 352.988 182.5
 L 353.488 183.5
 L 353.5 183.512
 L 354.5 184.012
 L 355.5 185.012
 L 355.826 185.5
 L 355.826 186.5
 L 356.5 188.523
 L 358.477 190.5
 L 360.477 191.5
 L 360.5 191.523
 L 360.523 191.5
 L 361.012 190.5
 L 361.012 189.5
 L 361.5 189.012
 L 362.5 188.841
 L 363.5 188.841
 L 364.5 189.006
 L 365.5 189.006
 L 366.5 188.508
 L 366.523 188.5
 L 368.5 188.006
 L 369.5 188.006
 L 370.5 188.174
 L 371.477 188.5
 L 371.5 188.506
 L 372.5 188.705
 L 373.5 188.756
 L 374.5 188.756
 L 375.5 188.905
 L 377.5 189.105
 L 379.477 189.5
 L 379.5 189.506
 L 380.5 189.705
 L 381.5 189.756
 L 382.5 189.905
 L 383.5 190.105
 L 384.488 190.5
 L 384.5 190.504
 L 387.5 191.004
 L 388.5 191.218
 L 389.5 191.36
 L 389.988 191.5
 L 390.5 191.628
 L 391.5 191.753
 L 392.5 191.932
 L 393.5 192.169
 L 394.5 192.502
 L 397.5 193.169
 L 398.5 193.402
 L 398.988 193.5
 L 399.5 193.593
 L 400.5 193.835
 L 401.5 193.963
 L 402.5 193.963
 L 403.5 193.919
 L 404.5 193.963
 L 405.5 194.085
 L 407.988 194.5
 L 408.5 194.579
 L 410.5 195.04
 L 411.5 195.085
 L 412.5 194.919
 L 413.5 194.585
 L 413.841 194.5
 L 415.5 194.002
 L 416.5 193.866
 L 417.5 193.752
 L 419.5 193.419
 L 421.5 193.585
 L 422.5 193.585
 L 423.012 193.5
 L 423.5 193.402
 L 424.5 193.085
 L 425.5 193.085
 L 426.5 193.229
 L 427.5 193.402
 L 428.5 193.391
 L 429.5 193.302
 L 431.5 193.302
 L 432.5 193.169
 L 433.5 193.002
 L 434.5 193.04
 L 437.5 193.502
 L 438.5 193.593
 L 439.5 193.835
 L 441.5 194.335
 L 441.994 194.5
 L 442.5 194.684
 L 443.5 195.229
 L 444.5 195.593
 L 445.5 195.809
 L 446.5 195.809
 L 447.5 195.859
 L 448.5 196.04
 L 449.5 196.335
 L 450.5 196.669
 L 451.5 196.957
 L 452.5 197.28
 L 454.5 197.725
 L 455.5 198.003
 L 456.5 198.128
 L 457.5 198.128
 L 458.5 198.075
 L 459.5 198.128
 L 460.5 198.003
 L 461.5 198.002
 L 462.5 197.902
 L 463.5 197.902
 L 464.5 198.002
 L 465.5 198.169
 L 466.5 198.391
 L 466.826 198.5
 L 467.5 198.905
 L 468.244 199.5
 L 468.244 200.5
 L 467.494 201.5
 L 466.5 202.494
 L 466.492 202.5
 L 465.5 203.492
 L 465.488 203.5
 L 463.5 205.488
 L 463.492 205.5
 L 462.5 206.095
 L 462.095 206.5
 L 460.895 207.5
 L 460.5 207.782
 L 459.5 208.247
 L 458.994 208.5
 L 458.5 208.698
 L 456.5 209.298
 L 454.5 209.498
 L 452.5 209.498
 L 451.5 209.698
 L 450.5 209.997
 L 448.5 210.942
 L 447.5 211.298
 L 446.826 211.5
 L 446.5 211.581
 L 445.5 211.748
 L 443.5 212.248
 L 442.5 212.407
 L 442.159 212.5
 L 441.5 212.72
 L 440.5 212.997
 L 438.5 213.497
 L 437.5 213.798
 L 436.5 213.998
 L 435.5 214.316
 L 434.994 214.5
 L 434.5 214.698
 L 433.5 214.942
 L 432.5 215.098
 L 431.5 215.198
 L 430.5 215.407
 L 430.244 215.5
 L 429.5 215.872
 L 428.5 216.298
 L 427.826 216.5
 L 427.5 216.622
 L 426.5 217.068
 L 426.068 217.5
 L 425.782 218.5
 L 426.163 219.5
 L 426.5 219.905
 L 427.492 220.5
 L 427.5 220.503
 L 428.5 220.837
 L 429.5 221.337
 L 429.988 221.5
 L 431.5 221.878
 L 432.5 222.003
 L 433.5 222.218
 L 434.5 222.253
 L 435.5 222.28
 L 436.5 222.229
 L 437.5 222.271
 L 438.5 222.419
 L 439.5 222.502
 L 440.5 222.635
 L 441.5 222.814
 L 442.5 222.939
 L 443.5 223.031
 L 444.5 223.189
 L 445.5 223.439
 L 445.826 223.5
 L 446.5 223.619
 L 447.5 223.659
 L 448.5 223.751
 L 449.5 223.87
 L 450.5 224.133
 L 451.5 224.343
 L 452.5 224.451
 L 453.5 224.501
 L 454.5 224.644
 L 455.5 224.774
 L 456.5 224.882
 L 457.5 225.051
 L 458.5 225.251
 L 460.5 225.801
 L 461.5 226.151
 L 462.5 226.446
 L 462.695 226.5
 L 463.5 226.692
 L 465.5 227.112
 L 467.244 227.5
 L 467.5 227.551
 L 468.5 227.724
 L 469.5 227.972
 L 471.095 228.5
 L 471.5 228.619
 L 472.5 228.902
 L 473.5 229.194
 L 475.5 229.752
 L 478.5 230.218
 L 479.5 230.503
 L 480.5 230.504
 L 481.5 230.337
 L 482.477 230.5
 L 482.5 230.505
 L 483.5 230.841
 L 484.488 231.5
 L 484.5 231.506
 L 486.5 231.508
 L 488.5 231.905
 L 489.5 232.337
 L 489.744 232.5
 L 490.744 233.5
 L 491.295 234.5
 L 491.5 234.756
 L 492.5 236.256
 L 492.64 236.5
 L 493.068 237.5
 L 493.5 238.105
 L 493.829 238.5
 L 494.496 239.5
 L 494.829 240.5
 L 494.782 241.5
 L 494.5 242.159
 L 494.372 242.5
 L 493.64 243.5
 L 493.5 243.622
 L 492.622 244.5
 L 492.5 244.589
 L 491.5 245.198
 L 490.744 245.5
 L 490.5 245.589
 L 489.5 245.862
 L 488.5 245.998
 L 487.5 246.07
 L 486.5 246.07
 L 485.5 245.999
 L 484.5 245.793
 L 483.5 245.61
 L 481.5 245.404
 L 480.5 245.261
 L 479.5 245.07
 L 477.105 244.5
 L 476.5 244.374
 L 474.5 243.899
 L 473.218 243.5
 L 472.5 243.299
 L 471.5 242.999
 L 470.5 242.681
 L 469.705 242.5
 L 469.5 242.461
 L 468.5 242.384
 L 467.5 242.422
 L 467.095 242.5
 L 466.5 242.642
 L 465.5 242.803
 L 464.5 242.859
 L 463.5 242.922
 L 462.5 243.018
 L 460.5 243.384
 L 459.5 243.419
 L 458.5 243.213
 L 457.5 242.721
 L 457.138 242.5
 L 456.5 242.13
 L 455.5 241.709
 L 454.5 241.557
 L 453.5 242.032
 L 452.5 243.032
 L 452.149 243.5
 L 451.5 244.311
 L 451.363 244.5
 L 450.604 245.5
 L 450.5 245.61
 L 449.61 246.5
 L 449.5 246.604
 L 447.5 248.308
 L 447.165 248.5
 L 446.5 248.92
 L 445.5 249.349
 L 444.996 249.5
 L 444.5 249.665
 L 443.5 249.867
 L 441.5 250.183
 L 440.5 250.446
 L 440.244 250.5
 L 439.5 250.713
 L 438.5 250.855
 L 437.5 250.883
 L 436.5 250.806
 L 435.5 250.862
 L 434.5 251.134
 L 433.5 251.275
 L 432.5 251.354
 L 431.5 251.329
 L 430.5 251.295
 L 429.5 250.994
 L 428.841 250.5
 L 428.5 249.988
 L 428.256 249.5
 L 428.305 248.5
 L 428.218 247.5
 L 428.102 246.5
 L 427.957 245.5
 L 427.669 244.5
 L 427.5 243.994
 L 427.359 243.5
 L 426.768 241.5
 L 426.5 240.829
 L 426.401 240.5
 L 426.064 239.5
 L 425.716 238.5
 L 425.5 237.744
 L 425.435 237.5
 L 425.048 236.5
 L 424.5 235.898
 L 423.5 235.57
 L 422.5 235.765
 L 421.5 236.284
 L 420.5 237.141
 L 420.043 237.5
 L 419.5 237.898
 L 418.5 238.415
 L 418.329 238.5
 L 417.5 239.053
 L 417.053 239.5
 L 416.497 240.5
 L 415.997 241.5
 L 415.831 242.5
 L 416.043 243.5
 L 416.407 244.5
 L 416.5 244.671
 L 417.053 245.5
 L 417.5 245.947
 L 418.122 246.5
 L 418.5 246.878
 L 419.495 247.5
 L 419.5 247.504
 L 420.5 248.218
 L 421.159 248.5
 L 422.492 249.5
 L 422.5 249.512
 L 424.5 249.512
 L 425.5 250.012
 L 425.988 250.5
 L 426.488 251.5
 L 426.5 251.508
 L 427.5 252.508
 L 428.988 253.5
 L 429.5 253.756
 L 430.5 253.841
 L 431.5 253.508
 L 432.5 253.512
 L 433.5 254.256
 L 434.5 254.337
 L 435.5 254.36
 L 436.477 254.5
 L 436.5 254.508
 L 437.5 254.523
 L 437.826 255.5
 L 437.5 255.988
 L 436.988 256.5
 L 435.5 257.492
 L 435.492 257.5
 L 435.492 258.5
 L 435.5 258.505
 L 436.5 258.905
 L 437.5 259.171
 L 438.5 259.218
 L 439.488 259.5
 L 440.5 259.684
 L 441.5 259.919
 L 442.5 260.194
 L 444.5 260.724
 L 445.5 260.764
 L 446.5 260.712
 L 447.5 260.668
 L 448.5 260.724
 L 449.5 260.835
 L 452.5 260.902
 L 453.5 260.963
 L 454.5 261.169
 L 455.5 261.402
 L 455.988 261.5
 L 456.5 261.646
 L 457.5 262.171
 L 457.895 262.5
 L 458.495 263.5
 L 458.329 264.5
 L 457.5 265.495
 L 457.497 265.5
 L 456.497 266.5
 L 455.5 267.275
 L 455.163 267.5
 L 454.5 267.898
 L 453.5 268.316
 L 453.095 268.5
 L 452.5 268.798
 L 451.5 269.275
 L 451.095 269.5
 L 449.695 270.5
 L 448.895 271.5
 L 448.5 272.488
 L 448.496 272.5
 L 448.244 273.5
 L 447.826 274.5
 L 447.5 274.826
 L 446.488 275.5
 L 445.488 276.5
 L 445.492 282.5
 L 445.826 283.5
 L 445.826 284.5
 L 446.492 285.5
 L 446.492 286.5
 L 446.159 287.5
 L 445.5 288.159
 L 444.5 288.492
 L 439.5 288.492
 L 438.5 288.244
 L 437.5 288.095
 L 436.5 287.744
 L 434.5 286.744
 L 433.5 286.494
 L 432.5 286.744
 L 431.5 287.159
 L 430.5 287.488
 L 429.5 287.492
 L 428.5 287.244
 L 427.5 287.244
 L 426.5 287.159
 L 425.5 286.492
 L 424.5 285.895
 L 422.523 285.5
 L 422.5 285.494
 L 420.5 284.826
 L 420.012 284.5
 L 419.5 284.244
 L 418.5 283.826
 L 418.012 283.5
 L 417.5 282.988
 L 417.174 282.5
 L 416.5 281.826
 L 416.012 281.5
 L 415.5 281.295
 L 414.5 280.994
 L 412.523 280.5
 L 412.5 280.495
 L 411.5 280.244
 L 410.5 279.744
 L 410.256 279.5
 L 409.506 278.5
 L 409.5 278.494
 L 408.5 276.994
 L 408.253 276.5
 L 407.614 275.5
 L 406.947 274.5
 L 406.5 273.997
 L 405.5 272.997
 L 405.058 272.5
 L 404.28 271.5
 L 403.725 270.5
 L 403.28 269.5
 L 401.5 267.247
 L 400.957 266.5
 L 400.5 265.942
 L 399.5 264.831
 L 398.5 263.831
 L 398.128 263.5
 L 397.5 262.872
 L 397.075 262.5
 L 396.5 262.053
 L 395.671 261.5
 L 395.5 261.354
 L 394.5 260.663
 L 394.256 260.5
 L 393.006 259.5
 L 392.5 258.994
 L 392.105 258.5
 L 391.671 257.5
 L 391.503 256.5
 L 391.128 253.5
 L 390.725 252.5
 L 390.5 251.826
 L 390.378 251.5
 L 390.058 250.5
 L 389.725 249.5
 L 389.5 248.994
 L 388.646 247.5
 L 387.932 246.5
 L 387.5 245.744
 L 387.337 245.5
 L 386.5 244.663
 L 386.305 244.5
 L 385.5 243.695
 L 384.504 242.5
 L 384.5 242.496
 L 383.5 241.663
 L 383.337 241.5
 L 382.504 240.5
 L 382.5 240.492
 L 381.905 239.5
 L 381.5 238.488
 L 380.837 236.5
 L 380.5 235.994
 L 379.646 234.5
 L 379.5 233.988
 L 379.378 233.5
 L 379.128 231.5
 L 378.932 230.5
 L 378.671 229.5
 L 378.5 229.244
 L 376.5 227.744
 L 375.5 226.744
 L 373.5 225.244
 L 371.756 223.5
 L 370.5 222.495
 L 369.012 221.5
 L 368.5 221.244
 L 367.508 220.5
 L 367.5 220.495
 L 366.5 219.994
 L 364.523 219.5
 L 364.5 219.492
 L 363.5 219.492
 L 362.5 218.988
 L 361.5 218.988
 L 360.5 219.477
 L 360.488 219.5
 L 360.488 220.5
 L 360.477 221.5
 L 359.5 221.988
 L 359.159 222.5
 L 358.5 224.477
 L 358.494 224.5
 L 357.5 225.494
 L 357.495 225.5
 L 356.5 227.159
 L 355.5 228.492
 L 355.495 228.5
 L 355.163 229.5
 L 354.829 231.5
 L 354.5 232.488
 L 354.497 232.5
 L 354.372 233.5
 L 354.354 234.5
 L 354.211 235.5
 L 353.996 236.5
 L 353.64 237.5
 L 353.5 237.988
 L 353.386 238.5
 L 353.372 239.5
 L 353.247 240.5
 L 353.164 241.5
 L 353.098 242.5
 L 353.225 243.5
 L 353.415 244.5
 L 353.5 245.012
 L 353.598 245.5
 L 353.498 246.5
 L 353.248 247.5
 L 352.915 248.5
 L 352.68 249.5
 L 352.5 250.159
 L 352.415 250.5
 L 352.316 251.5
 L 352.198 252.5
 L 352.098 253.5
 L 351.942 254.5
 L 351.798 255.5
 L 351.609 256.5
 L 351.386 257.5
 L 351.198 258.5
 L 351.098 259.5
 L 350.898 260.5
 L 350.609 261.5
 L 350.164 263.5
 L 350.247 264.5
 L 350.497 266.5
 L 350.496 268.5
 L 350.163 269.5
 L 349.695 270.5
 L 349.5 270.826
 L 349.163 271.5
 L 348.5 273.488
 L 347.64 276.5
 L 347.211 277.5
 L 346.829 278.5
 L 346.5 279.159
 L 346.354 279.5
 L 346.163 280.5
 L 345.744 281.5
 L 345.5 281.988
 L 344.996 283.5
 L 344.5 284.492
 L 344.497 284.5
 L 344.211 285.5
 L 343.782 286.5
 L 343.497 287.5
 L 343.354 288.5
 L 343.068 289.5
 L 342.747 290.5
 L 342.372 291.5
 L 341.925 292.5
 L 341.5 293.244
 L 340.5 295.244
 L 340.386 295.5
 L 339.998 296.5
 L 339.098 299.5
 L 338.698 300.5
 L 338.5 300.829
 L 337.997 301.5
 L 337.5 302.068
 L 337.164 302.5
 L 336.609 303.5
 L 336.164 304.5
 L 335.831 305.5
 L 335.5 306.244
 L 334.872 307.5
 L 334.122 309.5
 L 333.872 310.5
 L 333.64 311.5
 L 333.622 312.5
 L 333.5 312.988
 L 333.354 313.5
 L 333.211 314.5
 L 333.211 315.5
 L 333.329 316.5
 L 333.663 318.5
 L 333.354 320.5
 L 333.496 321.5
 L 333.5 321.508
 L 334.095 322.5
 L 335.295 323.5
 L 335.5 323.646
 L 336.5 324.218
 L 336.895 324.5
 L 337.5 325.004
 L 339.5 327.004
 L 342.495 329.5
 L 343.5 330.505
 L 344.5 331.305
 L 346.5 333.305
 L 346.744 333.5
 L 347.5 334.256
 L 347.826 334.5
 L 348.5 335.174
 L 348.744 335.5
 L 348.994 336.5
 L 349.295 337.5
 L 349.5 338.012
 L 349.663 338.5
 L 350.068 339.5
 L 350.5 340.508
 L 350.996 341.5
 L 351.5 342.256
 L 351.695 342.5
 L 352.5 343.305
 L 353.5 343.905
 L 354.5 343.503
 L 354.503 343.5
 L 355.5 342.702
 L 355.702 342.5
 L 356.5 341.775
 L 356.775 341.5
 L 357.5 340.886
 L 357.919 340.5
 L 358.5 340.002
 L 359.5 339.216
 L 360.502 338.5
 L 361.5 337.635
 L 361.725 337.5
 L 362.5 336.919
 L 363.337 336.5
 L 363.5 336.402
 L 364.5 335.963
 L 365.5 335.645
 L 366.174 335.5
 L 366.5 335.425
 L 367.5 335.235
 L 368.5 335.064
 L 369.5 334.946
 L 370.5 334.817
 L 371.5 334.787
 L 372.5 334.849
 L 373.5 334.959
 L 375.5 335.376
 L 375.996 335.5
 L 377.5 335.801
 L 378.5 336.018
 L 381.5 336.677
 L 382.5 336.844
 L 383.5 337.03
 L 384.5 337.282
 L 385.275 337.5
 L 385.5 337.56
 L 386.5 337.907
 L 387.5 338.358
 L 387.749 338.5
 L 388.5 338.962
 L 389.236 339.5
 L 390.393 340.5
 L 390.5 340.619
 L 391.381 341.5
 L 391.5 341.837
 L 391.749 342.5
 L 391.5 343.295
 L 391.443 343.5
 L 390.624 344.5
 L 390.5 344.61
 L 389.5 345.399
 L 389.355 345.5
 L 388.5 346.021
 L 387.5 346.542
 L 386.5 346.999
 L 385.5 347.369
 L 384.5 347.629
 L 383.5 347.749
 L 382.5 347.92
 L 381.5 348.11
 L 380.5 348.276
 L 379.695 348.5
 L 379.5 348.557
 L 378.5 348.749
 L 377.5 348.852
 L 376.5 348.852
 L 375.5 348.898
 L 374.5 349.037
 L 373.5 349.498
 L 373.497 349.5
 L 372.5 350.386
 L 372.407 350.5
 L 370.581 352.5
 L 370.5 352.575
 L 369.407 353.5
 L 368.5 354.331
 L 368.298 354.5
 L 367.5 355.298
 L 366.5 356.398
 L 366.415 356.5
 L 364.652 358.5
 L 363.883 359.5
 L 363.5 360.053
 L 363.213 360.5
 L 362.624 361.5
 L 362.5 361.698
 L 361.5 363.198
 L 361.248 363.5
 L 360.5 364.248
 L 360.225 364.5
 L 359.5 365.07
 L 358.5 365.57
 L 357.5 365.898
 L 356.5 366.037
 L 355.5 366.043
 L 354.5 365.862
 L 353.5 365.498
 L 352.5 364.898
 L 351.932 364.5
 L 351.5 364.164
 L 350.504 363.5
 L 350.5 363.498
 L 349.5 363.114
 L 348.5 362.883
 L 347.5 362.748
 L 346.5 362.798
 L 345.5 363.098
 L 344.695 363.5
 L 344.5 363.622
 L 343.622 364.5
 L 343.5 364.695
 L 343.134 365.5
 L 342.952 366.5
 L 343.081 367.5
 L 343.498 368.5
 L 344.248 369.5
 L 344.5 369.733
 L 345.598 370.5
 L 346.798 371.5
 L 347.5 372.138
 L 347.942 372.5
 L 348.5 372.886
 L 349.5 373.43
 L 349.695 373.5
 L 350.5 373.751
 L 351.5 373.876
 L 352.5 373.787
 L 353.5 373.579
 L 353.756 373.5
 L 354.5 373.287
 L 355.5 372.886
 L 356.218 372.5
 L 357.5 371.859
 L 358.337 371.5
 L 358.5 371.443
 L 359.5 371.266
 L 360.5 371.148
 L 361.5 371.279
 L 362.295 371.5
 L 362.5 371.568
 L 363.5 371.751
 L 364.5 371.796
 L 365.5 371.764
 L 366.5 371.712
 L 367.5 371.619
 L 368.5 371.619
 L 369.5 371.678
 L 370.5 371.779
 L 371.5 371.87
 L 372.5 371.977
 L 373.5 372.183
 L 374.5 372.414
 L 374.895 372.5
 L 375.5 372.659
 L 376.5 372.851
 L 377.5 373.051
 L 378.5 373.215
 L 379.5 373.414
 L 379.895 373.5
 L 380.5 373.659
 L 381.5 373.882
 L 382.5 374.073
 L 383.5 374.215
 L 384.5 374.406
 L 384.895 374.5
 L 385.5 374.668
 L 386.5 374.975
 L 387.5 375.201
 L 388.5 375.365
 L 389.244 375.5
 L 389.5 375.554
 L 390.5 375.787
 L 392.5 376.168
 L 393.5 376.414
 L 393.829 376.5
 L 394.5 376.683
 L 395.5 376.936
 L 397.5 377.371
 L 400.5 377.849
 L 401.5 378.084
 L 402.5 378.414
 L 402.782 378.5
 L 403.5 378.701
 L 404.5 378.834
 L 405.5 378.918
 L 406.5 379.066
 L 407.5 379.319
 L 408.163 379.5
 L 408.5 379.578
 L 409.5 379.661
 L 410.5 379.584
 L 411.174 379.5
 L 412.5 379.291
 L 413.5 379.09
 L 414.5 378.814
 L 415.337 378.5
 L 415.5 378.435
 L 416.5 378.001
 L 417.5 377.56
 L 417.628 377.5
 L 418.5 376.963
 L 419.36 376.5
 L 419.5 376.391
 L 420.5 375.836
 L 421.5 375.391
 L 422.5 375.128
 L 423.5 374.725
 L 424.006 374.5
 L 424.5 374.253
 L 425.5 373.836
 L 426.5 373.725
 L 427.5 373.725
 L 428.5 373.836
 L 429.5 373.802
 L 430.5 373.725
 L 431.5 373.836
 L 432.5 374.058
 L 433.5 374.378
 L 433.826 374.5
 L 434.5 374.837
 L 435.5 375.671
 L 436.329 376.5
 L 436.5 376.628
 L 437.5 377.128
 L 438.5 377.503
 L 439.5 378.171
 L 440.829 379.5
 L 441.5 380.075
 L 442.492 380.5
 L 442.5 380.504
 L 443.5 380.671
 L 444.5 380.504
 L 444.512 380.5
 L 445.5 380.218
 L 446.5 379.705
 L 446.841 379.5
 L 447.5 379.006
 L 448.006 378.5
 L 448.5 377.512
 L 448.508 377.5
 L 448.841 376.5
 L 449.256 375.5
 L 449.5 375.012
 L 450.5 374.012
 L 451.477 374.5
 L 451.5 374.523
 L 451.663 375.5
 L 451.5 376.477
 L 451.159 377.5
 L 450.994 378.5
 L 450.994 380.5
 L 451.163 381.5
 L 451.354 382.5
 L 451.354 384.5
 L 451.163 385.5
 L 450.996 386.5
 L 450.744 387.5
 L 450.744 390.5
 L 450.5 391.477
 L 450.492 391.5
 L 448.5 393.492
 L 448.494 393.5
 L 448.495 397.5
 L 448.5 397.523
 L 448.826 398.5
 L 448.994 399.5
 L 449.494 401.5
 L 450.494 403.5
 L 450.494 404.5
 L 450.744 405.5
 L 451.159 406.5
 L 451.826 407.5
 L 452.492 409.5
 L 452.159 410.5
 L 452.159 411.5
 L 451.826 412.5
 L 451.5 412.988
 L 450.5 413.477
 L 449.5 412.988
 L 448.5 412.488
 L 448.477 412.5
 L 447.5 413.477
 L 447.488 413.5
 L 447.159 414.5
 L 446.492 415.5
 L 445.5 416.244
 L 444.5 416.492
 L 443.5 416.488
 L 442.841 415.5
 L 442.512 414.5
 L 442.012 413.5
 L 441.523 412.5
 L 441.523 411.5
 L 439.5 409.477
 L 438.5 408.988
 L 437.523 408.5
 L 437.5 408.477
 L 437.174 407.5
 L 437.006 406.5
 L 436.506 405.5
 L 436.5 405.494
 L 435.5 404.744
 L 434.5 404.244
 L 433.508 403.5
 L 432.5 402.492
 L 431.5 401.744
 L 431.012 401.5
 L 430.5 401.159
 L 429.841 400.5
 L 429.5 399.988
 L 428.756 398.5
 L 428.5 398.159
 L 428.171 397.5
 L 427.646 396.5
 L 427.5 396.244
 L 427.128 395.5
 L 426.5 394.663
 L 426.36 394.5
 L 425.5 393.831
 L 424.905 393.5
 L 424.5 393.316
 L 423.5 393.098
 L 421.5 392.698
 L 421.006 392.5
 L 420.5 392.365
 L 419.5 392.186
 L 418.5 392.087
 L 417.5 391.969
 L 416.5 391.765
 L 415.837 391.5
 L 415.5 391.344
 L 414.5 391.081
 L 413.5 391.141
 L 412.5 391.284
 L 411.5 391.07
 L 410.5 390.713
 L 409.5 390.565
 L 408.5 390.499
 L 407.5 390.361
 L 406.5 390.299
 L 405.5 390.435
 L 405.275 390.5
 L 404.5 390.741
 L 403.5 390.966
 L 402.5 391.015
 L 400.5 390.954
 L 399.5 390.985
 L 398.5 391.099
 L 397.5 391.242
 L 396.5 391.277
 L 395.5 391.271
 L 394.5 391.305
 L 393.5 391.444
 L 392.5 391.662
 L 390.5 392.121
 L 389.5 392.299
 L 388.5 392.471
 L 387.5 392.681
 L 386.5 392.843
 L 384.5 393.12
 L 383.5 393.213
 L 382.5 393.351
 L 380.5 393.749
 L 379.5 393.899
 L 378.5 394.023
 L 377.5 394.166
 L 376.5 394.325
 L 375.695 394.5
 L 375.5 394.554
 L 374.5 394.867
 L 373.5 395.149
 L 372.5 395.363
 L 371.895 395.5
 L 371.5 395.616
 L 370.5 395.972
 L 369.5 396.276
 L 368.5 396.499
 L 367.5 396.632
 L 366.5 396.784
 L 365.5 396.998
 L 364.5 397.267
 L 363.744 397.5
 L 363.5 397.609
 L 362.5 397.997
 L 361.5 398.211
 L 360.5 398.496
 L 360.488 398.5
 L 359.5 399.159
 L 359.159 399.5
 L 359.159 400.5
 L 359.826 401.5
 L 360.5 402.006
 L 361.5 403.006
 L 362.5 404.256
 L 364.663 407.5
 L 365.829 408.5
 L 366.5 408.866
 L 367.5 409.402
 L 367.663 409.5
 L 368.5 409.886
 L 369.5 410.194
 L 370.5 410.287
 L 373.5 410.716
 L 374.5 410.787
 L 375.5 410.835
 L 376.5 410.919
 L 377.5 411.138
 L 378.494 411.5
 L 378.5 411.503
 L 380.5 412.753
 L 381.5 413.102
 L 382.5 413.402
 L 382.744 413.5
 L 383.5 413.752
 L 384.5 414.04
 L 385.5 414.252
 L 386.5 414.411
 L 386.826 414.5
 L 388.5 415.058
 L 389.295 415.5
 L 389.5 415.602
 L 390.5 416.002
 L 391.5 416.391
 L 391.988 416.5
 L 392.5 416.628
 L 393.5 416.504
 L 393.523 416.5
 L 394.5 416.378
 L 395.477 416.5
 L 395.5 416.505
 L 396.5 417.256
 L 396.695 417.5
 L 397.095 418.5
 L 396.996 419.5
 L 396.5 420.988
 L 395.744 422.5
 L 395.5 422.826
 L 395.163 423.5
 L 394.695 424.5
 L 394.5 424.826
 L 393.826 425.5
 L 393.5 425.744
 L 391.988 426.5
 L 391.5 426.826
 L 390.994 427.5
 L 390.5 428.488
 L 390.495 428.5
 L 390.494 430.5
 L 389.5 431.494
 L 389.488 431.5
 L 388.5 431.782
 L 387.5 431.997
 L 386.5 432.247
 L 385.994 432.5
 L 384.5 433.164
 L 383.5 433.497
 L 382.5 433.72
 L 380.5 433.316
 L 379.5 433.407
 L 379.159 433.5
 L 378.5 433.747
 L 377.5 434.164
 L 376.5 434.275
 L 375.5 434.275
 L 374.5 434.386
 L 373.5 434.609
 L 372.5 435.098
 L 371.5 435.498
 L 370.5 435.862
 L 369.5 436.198
 L 368.744 436.5
 L 367.5 437.211
 L 367.095 437.5
 L 365.895 438.5
 L 364.5 440.244
 L 364.329 440.5
 L 363.829 441.5
 L 363.695 442.5
 L 364.163 443.5
 L 364.5 443.905
 L 365.244 444.5
 L 365.5 444.671
 L 366.5 445.171
 L 367.5 445.837
 L 368.5 446.337
 L 368.988 446.5
 L 369.5 446.646
 L 370.5 446.789
 L 371.495 447.5
 L 371.5 447.504
 L 372.496 448.5
 L 372.5 448.505
 L 373.5 449.256
 L 373.988 449.5
 L 374.5 449.841
 L 376.5 451.841
 L 376.994 452.5
 L 377.5 453.006
 L 378.159 453.5
 L 378.5 453.705
 L 379.5 453.756
 L 380.5 454.174
 L 380.988 454.5
 L 381.5 455.012
 L 381.695 455.5
 L 382.295 456.5
 L 382.5 456.756
 L 383.244 457.5
 L 383.5 457.705
 L 384.826 458.5
 L 385.5 458.789
 L 386.5 458.932
 L 387.5 459.004
 L 388.5 459.105
 L 389.159 459.5
 L 389.5 459.671
 L 390.329 460.5
 L 391.5 461.503
 L 392.5 462.075
 L 394.5 462.878
 L 395.5 463.337
 L 396.5 463.837
 L 398.488 464.5
 L 398.5 464.503
 L 399.5 465.003
 L 400.5 465.628
 L 401.5 466.128
 L 402.492 466.5
 L 402.5 466.504
 L 403.5 467.171
 L 404.159 467.5
 L 404.5 467.646
 L 405.5 467.932
 L 406.5 468.337
 L 406.826 468.5
 L 407.5 468.789
 L 408.5 469.337
 L 408.826 469.5
 L 409.5 469.684
 L 410.5 469.593
 L 411.012 469.5
 L 411.5 469.391
 L 412.5 469.102
 L 413.5 468.947
 L 414.5 468.725
 L 416.5 468.947
 L 417.5 469.002
 L 418.5 468.947
 L 419.5 468.753
 L 420.174 468.5
 L 420.5 468.337
 L 421.337 467.5
 L 422.171 466.5
 L 422.5 466.171
 L 423.5 465.671
 L 424.5 465.671
 L 425.5 465.905
 L 426.5 466.256
 L 426.988 466.5
 L 427.5 466.671
 L 428.5 466.753
 L 429.5 466.802
 L 430.5 466.602
 L 431.5 466.202
 L 432.5 465.866
 L 433.5 465.585
 L 434.5 465.335
 L 435.5 465.102
 L 436.5 464.775
 L 437.004 464.5
 L 437.5 464.202
 L 438.5 463.684
 L 439.5 463.229
 L 440.5 462.919
 L 441.5 462.752
 L 442.5 462.775
 L 444.5 463.32
 L 445.5 463.411
 L 446.5 463.402
 L 447.5 463.28
 L 448.5 462.947
 L 449.305 462.5
 L 449.5 462.36
 L 450.5 461.628
 L 451.5 461.003
 L 452.5 460.702
 L 453.5 460.684
 L 454.5 460.684
 L 455.5 460.702
 L 456.5 460.579
 L 456.705 460.5
 L 457.5 460.169
 L 458.5 459.656
 L 458.725 459.5
 L 459.5 458.725
 L 459.789 458.5
 L 460.5 457.789
 L 460.837 457.5
 L 461.5 456.837
 L 462.174 456.5
 L 462.5 456.36
 L 463.5 456.253
 L 465.5 456.684
 L 466.174 456.5
 L 466.5 456.378
 L 467.5 455.602
 L 467.628 455.5
 L 468.5 454.628
 L 468.646 454.5
 L 469.5 453.646
 L 469.705 453.5
 L 471.5 451.705
 L 472.012 451.5
 L 472.5 451.337
 L 473.5 451.218
 L 474.5 451.253
 L 475.5 451.003
 L 476.5 450.378
 L 477.5 449.684
 L 477.905 449.5
 L 478.5 449.202
 L 479.5 448.752
 L 479.878 448.5
 L 480.5 447.947
 L 481.075 447.5
 L 481.5 447.128
 L 482.337 446.5
 L 483.5 445.503
 L 485.503 443.5
 L 486.5 442.866
 L 487.171 442.5
 L 487.5 442.302
 L 489.5 440.503
 L 489.504 440.5
 L 490.305 439.5
 L 490.5 439.305
 L 491.506 438.5
 L 492.5 437.837
 L 493.5 437.503
 L 493.523 437.5
 L 494.5 437.391
 L 495.5 437.502
 L 496.5 437.378
 L 497.5 436.705
 L 497.756 436.5
 L 498.5 435.508
 L 499.5 435.705
 L 500.5 436.004
 L 501.5 436.253
 L 502.5 436.378
 L 503.5 435.878
 L 503.878 435.5
 L 504.5 434.505
 L 504.503 434.5
 L 505.012 433.5
 L 505.5 433.174
 L 506.174 432.5
 L 506.5 431.523
 L 506.506 431.5
 L 506.5 431.477
 L 506.174 430.5
 L 506.508 429.5
 L 507.5 428.756
 L 508.5 428.905
 L 509.5 429.105
 L 510.488 429.5
 L 510.5 429.508
 L 511.5 430.006
 L 512 430.006
 L 512 69.0977
 L 511.5 69.0977
 L 510.5 69.1342
 L 509.5 69.2674
 z
 M 256.5 114.247
 L 256 114.247
 L 256 512
 L 341.012 512
 L 341.012 511.5
 L 341.5 511.012
 L 342.5 510.512
 L 342.512 510.5
 L 344.012 509.5
 L 344.5 509.256
 L 346.5 508.756
 L 347.012 508.5
 L 347.5 508.174
 L 348.5 507.756
 L 349.5 507.256
 L 350.5 506.905
 L 351.5 506.305
 L 352.5 505.905
 L 353.5 505.305
 L 354.5 504.837
 L 355.5 504.337
 L 356.5 503.905
 L 357.5 503.305
 L 358.5 502.905
 L 359.5 502.305
 L 361.5 501.705
 L 362.5 501.504
 L 362.523 501.5
 L 364.5 501.105
 L 365.5 500.671
 L 366.012 500.5
 L 366.5 500.305
 L 367.5 499.837
 L 368.5 499.171
 L 369.171 498.5
 L 369.5 498.105
 L 370.5 497.305
 L 371.5 497.004
 L 372.5 497.105
 L 373.5 496.837
 L 374.5 496.671
 L 375.012 496.5
 L 375.5 496.305
 L 376.5 495.671
 L 377.012 495.5
 L 377.5 495.305
 L 378.5 494.837
 L 379.5 494.503
 L 379.508 494.5
 L 380.5 494.004
 L 381.256 493.5
 L 381.5 493.36
 L 382.5 492.932
 L 383.5 492.36
 L 384.5 491.878
 L 386.5 490.878
 L 387.5 490.503
 L 387.506 490.5
 L 388.256 489.5
 L 388.105 488.5
 L 388.075 487.5
 L 388.391 486.5
 L 388.378 485.5
 L 387.5 484.862
 L 386.5 484.883
 L 385.5 485.098
 L 384.5 484.872
 L 384.004 484.5
 L 383.5 484.369
 L 382.5 484.291
 L 381.5 484.369
 L 380.5 484.317
 L 379.5 484.09
 L 378.5 483.832
 L 377.503 483.5
 L 377.5 483.499
 L 376.5 483.374
 L 375.5 483.306
 L 374.5 483.327
 L 373.5 483.384
 L 372.5 483.332
 L 371.5 483.249
 L 370.5 483.181
 L 369.5 482.949
 L 368.602 482.5
 L 368.5 482.467
 L 367.5 482.199
 L 366.5 482.071
 L 365.5 481.979
 L 364.5 481.76
 L 363.504 481.5
 L 363.5 481.499
 L 362.5 481.406
 L 361.5 481.361
 L 360.5 481.268
 L 359.5 481.044
 L 358.5 480.762
 L 357.5 480.616
 L 356.841 480.5
 L 356.5 480.461
 L 355.5 480.181
 L 354.5 479.709
 L 354.102 479.5
 L 353.5 479.259
 L 352.5 478.832
 L 351.802 478.5
 L 351.5 478.379
 L 350.5 477.999
 L 349.5 477.604
 L 349.253 477.5
 L 348.5 477.249
 L 347.5 476.762
 L 347.085 476.5
 L 346.5 476.207
 L 344.947 475.5
 L 344.5 475.325
 L 343.5 474.832
 L 342.957 474.5
 L 342.5 474.249
 L 341.003 473.5
 L 340.5 473.263
 L 339.5 472.44
 L 337.5 470.575
 L 336.554 469.5
 L 336.5 469.443
 L 335.419 468.5
 L 334.5 467.581
 L 334.435 467.5
 L 333.701 466.5
 L 333.5 466.191
 L 333.001 465.5
 L 332.5 464.855
 L 332.168 464.5
 L 331.435 463.5
 L 330.851 462.5
 L 330.5 461.72
 L 330.384 461.5
 L 329.93 460.5
 L 329.5 459.498
 L 328.779 458.5
 L 327.89 457.5
 L 327.112 456.5
 L 326.544 455.5
 L 326.5 455.407
 L 326.001 454.5
 L 325.544 453.5
 L 325.5 453.415
 L 324.951 452.5
 L 324.047 450.5
 L 323.661 449.5
 L 323.5 449.098
 L 323.201 448.5
 L 322.5 446.898
 L 322.279 446.5
 L 321.774 445.5
 L 321.5 444.831
 L 321.351 444.5
 L 320.936 443.5
 L 320.578 442.5
 L 320.5 442.247
 L 319.5 439.609
 L 319.449 439.5
 L 319.001 438.5
 L 318.621 437.5
 L 318.5 437.198
 L 318.168 436.5
 L 317.781 435.5
 L 317.5 434.622
 L 317.453 434.5
 L 317.043 433.5
 L 316.686 432.5
 L 316.5 431.998
 L 316.274 431.5
 L 315.834 430.5
 L 315.5 429.609
 L 315.001 428.5
 L 314.578 427.5
 L 314.5 427.298
 L 314.137 426.5
 L 313.5 425.043
 L 313.215 424.5
 L 312.5 422.862
 L 312.301 422.5
 L 311.805 421.5
 L 311.5 420.862
 L 311.301 420.5
 L 310.774 419.5
 L 310.5 418.898
 L 309.805 417.5
 L 309.5 416.862
 L 309.291 416.5
 L 308.774 415.5
 L 308.5 414.952
 L 308.251 414.5
 L 307.762 413.5
 L 307.5 412.998
 L 307.185 412.5
 L 306.601 411.5
 L 306.5 411.331
 L 305.975 410.5
 L 305.5 409.598
 L 305.443 409.5
 L 304.901 408.5
 L 304.5 407.698
 L 304.384 407.5
 L 303.851 406.5
 L 303.5 405.798
 L 303.325 405.5
 L 302.751 404.5
 L 302.5 404.043
 L 302.148 403.5
 L 301.5 402.316
 L 301.001 401.5
 L 299.975 399.5
 L 298.922 397.5
 L 298.5 396.698
 L 298.39 396.5
 L 297.882 395.5
 L 297.5 394.698
 L 297.384 394.5
 L 296.834 393.5
 L 296.5 392.862
 L 296.279 392.5
 L 295.851 391.5
 L 295.5 390.622
 L 295.443 390.5
 L 294.89 389.5
 L 294.5 388.862
 L 294.251 388.5
 L 293.701 387.5
 L 293.5 387.053
 L 293.238 386.5
 L 292.882 385.5
 L 292.544 384.5
 L 292.5 384.386
 L 292.101 383.5
 L 291.596 382.5
 L 291.5 382.316
 L 291.028 381.5
 L 290.637 380.5
 L 290.5 380.068
 L 290.291 379.5
 L 289.977 378.5
 L 289.631 377.5
 L 289.5 377.164
 L 289.185 376.5
 L 288.728 375.5
 L 288.5 374.942
 L 288.291 374.5
 L 287.5 372.622
 L 287.446 372.5
 L 287.051 371.5
 L 286.718 370.5
 L 286.5 369.782
 L 286.025 368.5
 L 285.637 367.5
 L 285.5 367.122
 L 285.251 366.5
 L 284.882 365.5
 L 284.592 364.5
 L 284.5 364.211
 L 284.238 363.5
 L 283.882 362.5
 L 283.12 360.5
 L 282.762 359.5
 L 282.5 358.64
 L 282.451 358.5
 L 282.12 357.5
 L 281.834 356.5
 L 281.596 355.5
 L 281.5 355.163
 L 280.977 353.5
 L 280.637 352.5
 L 280.5 352.068
 L 280.311 351.5
 L 279.956 350.5
 L 279.631 349.5
 L 279.5 348.996
 L 279.365 348.5
 L 279.066 347.5
 L 278.741 346.5
 L 278.5 345.831
 L 278.365 345.5
 L 278.021 344.5
 L 277.781 343.5
 L 277.168 341.5
 L 276.847 340.5
 L 276.221 338.5
 L 275.885 337.5
 L 275.581 336.5
 L 275.221 335.5
 L 274.945 334.5
 L 274.655 333.5
 L 274.5 332.997
 L 274.334 332.5
 L 274.056 331.5
 L 273.822 330.5
 L 273.612 329.5
 L 273.5 328.996
 L 273.126 327.5
 L 272.251 324.5
 L 272.061 323.5
 L 271.941 322.5
 L 271.834 321.5
 L 271.675 320.5
 L 271.549 319.5
 L 271.41 318.5
 L 271.047 316.5
 L 270.774 315.5
 L 270.5 314.747
 L 270.414 314.5
 L 270.168 313.5
 L 269.979 312.5
 L 269.751 311.5
 L 269.544 310.5
 L 269.197 308.5
 L 269.043 307.5
 L 268.924 306.5
 L 268.821 305.5
 L 268.701 304.5
 L 268.626 303.5
 L 268.631 301.5
 L 268.501 300.5
 L 268.293 299.5
 L 268.181 298.5
 L 268.116 297.5
 L 268.001 294.5
 L 267.982 293.5
 L 267.945 292.5
 L 267.945 291.5
 L 267.982 290.5
 L 268.101 288.5
 L 268.141 287.5
 L 268.141 286.5
 L 268.221 284.5
 L 268.341 283.5
 L 268.621 281.5
 L 268.709 280.5
 L 268.781 279.5
 L 268.821 278.5
 L 268.821 277.5
 L 268.885 276.5
 L 269.001 275.5
 L 269.141 274.5
 L 269.251 273.5
 L 269.334 272.5
 L 269.668 270.5
 L 269.741 269.5
 L 269.793 268.5
 L 269.834 267.5
 L 269.901 266.5
 L 269.941 265.5
 L 270.001 264.5
 L 270.371 261.5
 L 270.459 260.5
 L 270.5 260.174
 L 270.592 259.5
 L 270.637 258.5
 L 270.819 256.5
 L 270.936 255.5
 L 271.11 253.5
 L 271.168 252.5
 L 271.181 251.5
 L 271.209 250.5
 L 271.197 249.5
 L 271.263 247.5
 L 271.263 246.5
 L 271.183 245.5
 L 271.11 244.5
 L 271.023 243.5
 L 270.979 242.5
 L 270.918 241.5
 L 270.821 240.5
 L 270.781 239.5
 L 270.781 238.5
 L 270.821 237.5
 L 270.821 236.5
 L 270.805 235.5
 L 270.774 234.5
 L 270.751 233.5
 L 270.712 232.5
 L 270.557 231.5
 L 270.5 231.159
 L 270.401 230.5
 L 270.025 228.5
 L 269.612 226.5
 L 269.5 225.994
 L 269.001 223.5
 L 268.764 222.5
 L 268.501 221.5
 L 268.201 220.5
 L 267.951 219.5
 L 267.712 218.5
 L 267.396 217.5
 L 266.712 215.5
 L 266.396 214.5
 L 265.87 212.5
 L 265.554 211.5
 L 265.5 211.159
 L 265.376 210.5
 L 265.251 209.5
 L 264.972 208.5
 L 264.851 207.5
 L 264.787 206.5
 L 264.651 205.5
 L 264.5 205.122
 L 264.168 204.5
 L 263.854 203.5
 L 263.801 202.5
 L 263.956 201.5
 L 264.12 200.5
 L 264.301 199.5
 L 264.451 198.5
 L 264.5 198.305
 L 264.692 197.5
 L 265.047 196.5
 L 265.41 195.5
 L 265.5 195.28
 L 265.805 194.5
 L 266.11 193.5
 L 266.406 192.5
 L 266.5 192.171
 L 266.701 191.5
 L 266.851 190.5
 L 266.93 189.5
 L 266.936 188.5
 L 266.865 187.5
 L 266.787 186.5
 L 266.801 185.5
 L 266.882 184.5
 L 266.882 183.5
 L 266.851 182.5
 L 266.801 181.5
 L 266.817 180.5
 L 266.89 179.5
 L 266.796 178.5
 L 266.56 177.5
 L 266.266 176.5
 L 265.876 175.5
 L 265.5 174.831
 L 265.302 174.5
 L 264.645 173.5
 L 264.5 173.275
 L 264.064 172.5
 L 263.626 171.5
 L 263.5 171.247
 L 263.185 170.5
 L 262.851 169.5
 L 262.501 168.5
 L 262.274 167.5
 L 262.001 165.5
 L 261.892 164.5
 L 261.849 163.5
 L 261.849 162.5
 L 262.001 161.5
 L 262.126 160.5
 L 262.24 159.5
 L 262.284 158.5
 L 262.334 157.5
 L 262.376 156.5
 L 262.637 153.5
 L 262.675 152.5
 L 262.675 151.5
 L 262.718 150.5
 L 262.793 149.5
 L 262.892 148.5
 L 263.066 146.5
 L 263.12 145.5
 L 263.183 144.5
 L 263.311 143.5
 L 263.453 142.5
 L 263.5 142.305
 L 263.975 140.5
 L 264.279 139.5
 L 264.396 138.5
 L 264.501 137.5
 L 264.659 136.5
 L 264.975 135.5
 L 265.325 134.5
 L 265.5 134.075
 L 265.768 133.5
 L 266.287 132.5
 L 266.787 131.5
 L 267.168 130.5
 L 267.435 129.5
 L 267.501 128.5
 L 267.5 128.494
 L 267.138 127.5
 L 266.5 126.798
 L 264.5 126.165
 L 263.5 125.665
 L 263.32 125.5
 L 262.5 124.598
 L 262.425 124.5
 L 261.716 123.5
 L 261.5 123.164
 L 261.126 122.5
 L 260.689 121.5
 L 260.5 121.122
 L 260.207 120.5
 L 259.702 119.5
 L 259.5 119.122
 L 259.145 118.5
 L 258.5 117.497
 L 257.5 115.831
 L 257.271 115.5
 z
 M 350.5 131.174
 L 350.012 131.5
 L 348.5 133.012
 L 346.5 134.012
 L 346.012 134.5
 L 345.5 135.523
 L 344.523 136.5
 L 344.523 138.5
 L 345.5 139.477
 L 346.5 139.477
 L 347.5 139.488
 L 348.5 139.488
 L 349.5 139.477
 L 350.5 138.988
 L 351.5 137.988
 L 351.826 137.5
 L 352.826 136.5
 L 353.244 135.5
 L 353.492 134.5
 L 353.826 133.5
 L 353.492 132.5
 L 352.826 131.5
 L 352.5 131.174
 L 351.5 130.756
 z
 M 296.5 233.275
 L 296.095 233.5
 L 295.5 233.925
 L 294.997 234.5
 L 294.598 235.5
 L 294.5 235.988
 L 294.122 237.5
 L 293.64 238.5
 L 292.925 239.5
 L 292.64 240.5
 L 292.64 241.5
 L 292.782 242.5
 L 293.497 243.5
 L 293.5 243.503
 L 294.663 244.5
 L 295.5 245.128
 L 296.244 245.5
 L 296.5 245.602
 L 297.5 245.919
 L 298.5 246.138
 L 299.5 246.169
 L 300.5 245.837
 L 300.837 245.5
 L 301.169 244.5
 L 301.138 243.5
 L 301.058 242.5
 L 301.253 241.5
 L 301.402 240.5
 L 301.411 239.5
 L 301.411 238.5
 L 301.28 237.5
 L 300.789 236.5
 L 300.5 235.994
 L 300.253 235.5
 L 299.836 234.5
 L 299.5 233.895
 L 299.105 233.5
 L 298.5 232.996
 L 297.5 232.997
 z
 M 442.5 233.135
 L 442.028 233.5
 L 441.557 234.5
 L 442.498 235.5
 L 442.5 235.501
 L 443.5 235.266
 L 444.185 234.5
 L 444.126 233.5
 L 443.5 232.999
 z
 M 317.5 234.497
 L 317.495 234.5
 L 316.5 235.329
 L 316.372 235.5
 L 316.122 236.5
 L 316.163 237.5
 L 316.5 238.174
 L 316.744 238.5
 L 317.5 238.932
 L 318.5 238.646
 L 318.628 238.5
 L 319.229 237.5
 L 319.419 236.5
 L 319.169 235.5
 L 318.5 234.609
 z
 M 410.523 308.5
 L 410.5 308.506
 L 409.5 309.006
 L 407.523 309.5
 L 407.5 309.508
 L 406.5 310.012
 L 406.174 310.5
 L 405.5 311.841
 L 405.302 312.5
 L 405.202 313.5
 L 405.169 314.5
 L 405.169 316.5
 L 405.202 317.5
 L 405.302 318.5
 L 405.32 319.5
 L 405.391 320.5
 L 405.28 321.5
 L 405.253 322.5
 L 405.218 323.5
 L 405.105 324.5
 L 404.841 325.5
 L 404.523 326.5
 L 404.5 326.523
 L 404.174 327.5
 L 403.5 328.174
 L 403.402 328.5
 L 403.28 329.5
 L 403.218 330.5
 L 403.5 331.488
 L 404.488 330.5
 L 404.5 330.492
 L 405.244 329.5
 L 405.492 328.5
 L 405.5 328.477
 L 405.988 327.5
 L 406.5 326.988
 L 407.5 326.826
 L 409.5 326.159
 L 410.5 326.244
 L 411.5 326.495
 L 411.523 326.5
 L 412.5 326.663
 L 413.5 326.996
 L 414.5 327.663
 L 415.337 328.5
 L 417.5 331.095
 L 417.905 331.5
 L 418.5 331.996
 L 419.004 332.5
 L 420.5 334.295
 L 420.705 334.5
 L 422.105 335.5
 L 423.305 336.5
 L 423.5 336.695
 L 424.5 337.895
 L 424.932 338.5
 L 425.5 339.163
 L 426.5 340.163
 L 428.5 341.495
 L 429.5 342.095
 L 430.006 342.5
 L 430.5 342.994
 L 432.5 344.495
 L 432.512 344.5
 L 434.5 345.492
 L 434.523 345.5
 L 435.5 345.988
 L 436.5 347.488
 L 436.512 347.5
 L 437.5 347.994
 L 438.5 348.159
 L 439.5 348.159
 L 440.5 347.826
 L 441.5 347.988
 L 442.523 348.5
 L 444.5 350.477
 L 444.512 350.5
 L 445.5 351.488
 L 445.523 351.5
 L 446.5 351.744
 L 447.477 351.5
 L 447.5 351.477
 L 448.5 350.988
 L 449.5 350.826
 L 450.5 350.826
 L 451.512 351.5
 L 453.523 352.5
 L 454.5 352.826
 L 455.5 352.988
 L 456.5 352.988
 L 456.988 352.5
 L 457.488 351.5
 L 457.159 350.5
 L 456.744 349.5
 L 456.5 349.012
 L 455.492 347.5
 L 454.744 346.5
 L 454.5 345.523
 L 454.492 345.5
 L 454.488 344.5
 L 454.477 343.5
 L 456.477 342.5
 L 457.477 341.5
 L 457.488 340.5
 L 456.988 339.5
 L 455.988 338.5
 L 455.488 337.5
 L 452.488 334.5
 L 451.988 333.5
 L 450.988 332.5
 L 450.5 331.523
 L 449.5 330.523
 L 448.5 330.512
 L 448.488 330.5
 L 445.488 328.5
 L 443.5 327.506
 L 443.492 327.5
 L 442.5 326.508
 L 441.5 325.841
 L 440.5 325.508
 L 439.5 325.508
 L 439.477 325.5
 L 437.5 323.523
 L 436.5 323.523
 L 435.477 322.5
 L 433.5 321.512
 L 433.488 321.5
 L 433.488 318.5
 L 432.5 317.512
 L 432.477 317.5
 L 431.5 316.523
 L 430.5 316.523
 L 430.477 316.5
 L 430.477 315.5
 L 430.488 314.5
 L 429.5 312.523
 L 429.477 312.5
 L 428.5 312.012
 L 427.988 311.5
 L 427.488 310.5
 L 426.5 309.512
 L 424.5 309.508
 L 423.5 309.756
 L 422.5 310.174
 L 422.012 310.5
 L 421.5 311.012
 L 420.5 310.523
 L 419.477 309.5
 L 418.5 309.012
 L 417.5 308.841
 L 416.5 308.756
 L 415.5 308.508
 L 415.477 308.5
 L 414.5 308.012
 L 413.5 307.841
 L 412.5 307.841
 z
 M 503.5 431.012
 L 502.523 431.5
 L 503.174 432.5
 L 503.5 432.826
 L 503.988 432.5
 L 503.988 431.5
 z
"/>
</svg>
