<svg id="fblmSvg" xmlns="http://www.w3.org/2000/svg" version="1.1"
width="512pt" height="512pt"
viewBox="0 0 512 512">
<path id="fblmBackground" fill="#10203000"
d="M 0 0   L 512 0   L 512 512   L 0 512 z"/>
<path id="fblmForeground" fill="#f0e0d000"
fill-rule="evenodd"
d=" M 79.7554 2.5
 L 79.6277 3.5
 L 79.1277 4.5
 L 78.7554 5.5
 L 78.7554 6.5
 L 78.6277 7.5
 L 77.6277 8.5
 L 77.1277 9.5
 L 76.7554 10.5
 L 75.7554 11.5
 L 75.7554 13.5
 L 74.7554 14.5
 L 74.7554 15.5
 L 75.5 16.2446
 L 75.6277 16.5
 L 75.5 16.7554
 L 74.7554 17.5
 L 74.7554 19.5
 L 74.6277 20.5
 L 74.5 20.7554
 L 73.7554 21.5
 L 73.7554 24.5
 L 73.5 24.7554
 L 73.1277 25.5
 L 72.7554 26.5
 L 72.7554 29.5
 L 72.6277 30.5
 L 72.1277 31.5
 L 71.7554 32.5
 L 71.7554 45.5
 L 71.6277 46.5
 L 71.5 46.7554
 L 70.7554 47.5
 L 70.7554 50.5
 L 69.7554 51.5
 L 69.7554 54.5
 L 69.6277 55.5
 L 69.1277 56.5
 L 69.6277 57.5
 L 69.6277 59.5
 L 69.7554 60.5
 L 69.7554 62.5
 L 68.7554 63.5
 L 68.7554 64.5
 L 67.7554 65.5
 L 67.7554 67.5
 L 66.7554 68.5
 L 66.7554 72.5
 L 65.7554 73.5
 L 65.7554 75.5
 L 64.7554 76.5
 L 64.7554 77.5
 L 63.7554 78.5
 L 63.7554 82.5
 L 62.7554 83.5
 L 62.7554 85.5
 L 61.7554 86.5
 L 61.7554 87.5
 L 58.7554 90.5
 L 58.7554 91.5
 L 57.7554 92.5
 L 57.7554 94.5
 L 56.7554 95.5
 L 56.7554 96.5
 L 57.5 97.2446
 L 57.6277 97.5
 L 57.7554 98.5
 L 58.1277 99.5
 L 58.6277 100.5
 L 58.7554 101.5
 L 58.7554 104.5
 L 57.7554 105.5
 L 57.7554 106.5
 L 56.5 107.755
 L 55.5 107.755
 L 54.7554 108.5
 L 54.7554 110.5
 L 55.5 111.245
 L 55.6277 111.5
 L 55.6277 112.5
 L 55.1277 113.5
 L 54.7554 114.5
 L 55.7554 115.5
 L 55.7554 117.5
 L 56.7554 118.5
 L 56.7554 119.5
 L 57.7554 120.5
 L 57.7554 121.5
 L 58.1277 122.5
 L 58.1277 123.5
 L 58.5 124.245
 L 58.7554 124.5
 L 58.7554 125.5
 L 60.7554 127.5
 L 60.7554 128.5
 L 61.1277 129.5
 L 61.1277 130.5
 L 61.5 131.245
 L 61.7554 131.5
 L 62.1277 132.5
 L 62.1277 133.5
 L 62.5 134.245
 L 62.7554 134.5
 L 63.1277 135.5
 L 63.2518 136.5
 L 63.5 137.245
 L 66.1277 142.5
 L 66.1277 143.5
 L 67.5 146.245
 L 67.7554 146.5
 L 67.7554 147.5
 L 68.1277 148.5
 L 68.2518 149.5
 L 68.5 150.245
 L 68.6277 150.5
 L 68.7554 151.5
 L 69.5 152.245
 L 69.6277 152.5
 L 69.6277 153.5
 L 69.9185 154.5
 L 69.9185 155.5
 L 70.1277 156.5
 L 70.5 157.245
 L 70.5851 157.5
 L 70.6277 158.5
 L 70.6277 159.5
 L 70.9185 160.5
 L 70.9185 162.5
 L 70.8138 163.5
 L 70.5851 164.5
 L 70.5851 170.5
 L 70.7511 171.5
 L 70.5638 172.5
 L 70.5638 175.5
 L 70.5511 176.5
 L 70.3511 177.5
 L 70.3138 178.5
 L 70.1511 179.5
 L 70.1511 180.5
 L 70.0426 181.5
 L 69.9511 182.5
 L 69.8759 183.5
 L 69.8759 184.5
 L 69.7511 185.5
 L 69.5511 186.5
 L 69.5511 187.5
 L 69.5 187.755
 L 69.3759 188.5
 L 69.3511 189.5
 L 69.2092 190.5
 L 68.9511 191.5
 L 68.9511 192.5
 L 68.7511 193.5
 L 68.7511 194.5
 L 68.5511 195.5
 L 68.5426 196.5
 L 68.0426 199.5
 L 67.9511 200.5
 L 67.8759 201.5
 L 67.5511 202.5
 L 67.5 202.755
 L 67.3759 203.5
 L 67.3511 204.5
 L 67.0426 205.5
 L 66.7511 206.5
 L 66.7092 207.5
 L 66.5511 208.5
 L 66.1511 210.5
 L 66.1511 211.5
 L 66.0638 212.5
 L 65.5 214.755
 L 65.3759 215.5
 L 65.3511 216.5
 L 65.1511 217.5
 L 65.0426 218.5
 L 64.9511 219.5
 L 64.7511 220.5
 L 64.7092 221.5
 L 64.5511 222.5
 L 64.5 222.755
 L 63.3759 229.5
 L 63.1511 230.5
 L 62.8759 231.5
 L 62.5511 232.5
 L 61.7511 234.5
 L 61.5426 235.5
 L 61.5 235.585
 L 60.9511 236.5
 L 60.7092 237.5
 L 60.5 238.128
 L 60.3511 238.5
 L 60.0426 239.5
 L 59.5511 240.5
 L 59.5 240.628
 L 58.8759 242.5
 L 58.5 243.252
 L 57.5426 245.5
 L 57.5 245.585
 L 57.1079 246.5
 L 56.7092 247.5
 L 56.3759 248.5
 L 55.5 250.252
 L 55.3936 250.5
 L 55.0426 251.5
 L 54.5511 252.5
 L 54.5 252.628
 L 54.2092 253.5
 L 53.7092 254.5
 L 53.0426 255.5
 L 52.5511 256.5
 L 52.5 256.585
 L 52.0426 257.5
 L 51.5 258.314
 L 51.3936 258.5
 L 51.0426 259.5
 L 50.5426 260.5
 L 50.5 260.628
 L 50.2508 261.5
 L 49.8222 262.5
 L 49.5426 263.5
 L 49.5 263.628
 L 48.9651 265.5
 L 48.7092 266.5
 L 48.3759 267.5
 L 48.1511 268.5
 L 48.0426 269.5
 L 47.8759 270.5
 L 47.7511 271.5
 L 47.7092 272.5
 L 47.7092 273.5
 L 47.5511 274.5
 L 47.5511 276.5
 L 47.5638 277.5
 L 48.3138 280.5
 L 49.8138 283.5
 L 50.5638 284.5
 L 51.5638 285.5
 L 52.2518 286.5
 L 52.5 286.748
 L 53.0638 287.5
 L 54.5 288.936
 L 55.5 290.186
 L 56.5 290.936
 L 57.0638 291.5
 L 58.3138 292.5
 L 58.5 292.748
 L 59.5 293.748
 L 60.0638 294.5
 L 60.5 294.936
 L 61.5 296.186
 L 61.8138 296.5
 L 64.8138 300.5
 L 65.5 301.872
 L 67.2518 304.5
 L 67.5 304.748
 L 68.5 305.415
 L 69.5 305.415
 L 70.5 304.936
 L 71.5 303.936
 L 72.0815 303.5
 L 72.5 303.249
 L 73.4362 302.5
 L 73.5 302.457
 L 74.5 301.606
 L 75.5 300.892
 L 76.5 300.321
 L 77.5 299.774
 L 78.0489 299.5
 L 78.5 299.178
 L 79.5 298.674
 L 79.9362 298.5
 L 80.5 298.249
 L 81.5 297.774
 L 82.1862 297.5
 L 83.5 296.916
 L 84.5 296.659
 L 85.0815 296.5
 L 86.5 295.974
 L 87.5 295.674
 L 88.3723 295.5
 L 88.5 295.464
 L 89.5 295.249
 L 90.5 295.218
 L 91.5 295.174
 L 92.5 295.174
 L 93.5 295.274
 L 94.6277 295.5
 L 95.5 295.645
 L 96.5 295.865
 L 97.5 296.074
 L 98.5 296.295
 L 99.2518 296.5
 L 99.5 296.557
 L 100.5 296.729
 L 101.5 296.979
 L 102.5 297.204
 L 103.314 297.5
 L 104.5 297.874
 L 105.5 298.361
 L 105.814 298.5
 L 106.5 298.75
 L 107.5 299.138
 L 108.314 299.5
 L 108.5 299.574
 L 109.5 300.027
 L 110.5 300.468
 L 110.585 300.5
 L 111.5 300.892
 L 112.5 301.343
 L 113.5 301.843
 L 114.5 302.321
 L 115.5 302.749
 L 116.5 303.457
 L 116.585 303.5
 L 117.5 303.892
 L 118.5 304.457
 L 118.585 304.5
 L 119.5 305.049
 L 120.5 305.457
 L 121.5 306.124
 L 122.252 306.5
 L 122.5 306.686
 L 123.314 307.5
 L 123.5 308.245
 L 123.543 308.5
 L 123.5 308.585
 L 123.108 309.5
 L 122.532 310.5
 L 122.5 310.532
 L 121.5 311.407
 L 121.376 311.5
 L 120.5 312.084
 L 119.564 312.5
 L 118.5 312.938
 L 117.5 313.135
 L 116.5 313.355
 L 115.5 313.443
 L 114.755 313.5
 L 113.5 313.605
 L 112.5 313.605
 L 111.872 313.5
 L 109.5 313.135
 L 108.5 313.058
 L 107.5 312.904
 L 106.5 312.827
 L 104.5 312.518
 L 104.415 312.5
 L 101.5 311.986
 L 100.5 311.848
 L 99.5 311.691
 L 98.4149 311.5
 L 97.5 311.356
 L 96.5 311.181
 L 95.5 310.986
 L 94.5 310.766
 L 93.5 310.518
 L 93.4362 310.5
 L 92.5 310.266
 L 91.5 310.09
 L 89.5 309.804
 L 88.5 309.733
 L 87.5 309.673
 L 86.5 309.605
 L 85.5 309.521
 L 83.5 309.518
 L 82.5 309.453
 L 80.5 309.453
 L 79.7554 309.5
 L 76.5 309.75
 L 75.5 309.771
 L 74.5 309.705
 L 73.5 309.614
 L 72.8723 309.5
 L 72.5 309.407
 L 71.5 309.108
 L 70.5 309.064
 L 69.5 309.252
 L 69.3511 309.5
 L 68.9511 310.5
 L 68.8222 311.5
 L 68.9069 312.5
 L 69.2819 313.5
 L 70.0319 314.5
 L 70.5 314.968
 L 71.2092 315.5
 L 71.5 315.659
 L 73.3511 316.5
 L 73.5 316.557
 L 75.5 317.019
 L 76.5 317.173
 L 77.5 317.25
 L 78.5 317.312
 L 79.5 317.312
 L 80.5 317.386
 L 81.5 317.295
 L 83.5 317.295
 L 84.5 317.361
 L 86.5 317.583
 L 87.5 317.968
 L 88.5 318.361
 L 90.5 319.468
 L 92.5 320.468
 L 92.5511 320.5
 L 93.9511 321.5
 L 94.5 321.957
 L 95.3138 322.5
 L 95.5 322.649
 L 96.3511 323.5
 L 97.1511 324.5
 L 97.5 325.082
 L 97.7092 325.5
 L 98.2508 326.5
 L 98.8222 327.5
 L 99.3511 328.5
 L 99.5 328.748
 L 99.8759 329.5
 L 100.251 330.5
 L 100.5 331.372
 L 100.551 331.5
 L 100.709 332.5
 L 100.376 333.5
 L 99.7511 334.5
 L 99.5 334.709
 L 98.5 335.394
 L 98.3511 335.5
 L 97.5 335.973
 L 96.3138 336.5
 L 95.5 336.796
 L 94.5 337.135
 L 91.5 338.058
 L 90.5 338.25
 L 89.5 338.45
 L 89.1277 338.5
 L 88.5 338.59
 L 87.5 338.717
 L 86.5 338.784
 L 85.5 338.828
 L 84.5 338.927
 L 83.5 339.014
 L 82.5 339.162
 L 81.5 339.348
 L 80.8138 339.5
 L 80.5 339.584
 L 79.5 339.891
 L 78.5 340.162
 L 77.5 340.348
 L 76.8138 340.5
 L 76.5 340.584
 L 75.5 340.784
 L 74.5 340.953
 L 73.5 341.141
 L 72.5 341.339
 L 71.8138 341.5
 L 71.5 341.614
 L 70.5 342.058
 L 69.5426 342.5
 L 69.5 342.551
 L 68.8222 343.5
 L 68.7092 344.5
 L 69.5 345.291
 L 69.7511 345.5
 L 71.5 346.472
 L 76.0638 348.5
 L 76.5 348.718
 L 79.5 349.464
 L 79.6277 349.5
 L 80.5 349.791
 L 81.5 350.249
 L 82.5 350.649
 L 83.5 351.249
 L 83.8138 351.5
 L 84.5 352.186
 L 84.9185 352.5
 L 85.5 353.082
 L 86.1277 353.5
 L 86.5 353.686
 L 88.5 354.186
 L 89.5 354.186
 L 90.5 354.415
 L 90.7554 354.5
 L 91.5 354.686
 L 92.5 354.686
 L 93.5 354.936
 L 94.5 355.436
 L 94.7554 355.5
 L 96.5 355.849
 L 97.5 355.936
 L 98.5 355.748
 L 99.2446 355.5
 L 99.5 355.436
 L 100.5 355.415
 L 101.5 355.372
 L 102.5 355.082
 L 104.5 355.082
 L 105.5 354.936
 L 106.5 354.748
 L 107.5 354.415
 L 108.5 353.872
 L 109.5 353.372
 L 110.5 352.748
 L 111.5 352.082
 L 112.5 351.748
 L 113.5 351.686
 L 116.5 350.936
 L 117.5 350.649
 L 118.245 350.5
 L 120.5 349.936
 L 122.5 349.936
 L 123.5 350.082
 L 124.5 350.415
 L 125.5 350.436
 L 127.5 350.936
 L 128.5 350.936
 L 131.5 351.686
 L 132.5 351.849
 L 133.5 352.049
 L 134.5 352.124
 L 136.5 352.124
 L 137.5 351.957
 L 138.5 351.749
 L 139.5 351.593
 L 140.245 351.5
 L 140.5 351.457
 L 140.628 351.5
 L 142.5 352.035
 L 147.5 354.178
 L 148.5 354.457
 L 148.628 354.5
 L 149.5 354.749
 L 151.5 355.035
 L 152.5 355.035
 L 153.5 355.124
 L 154.5 355.124
 L 155.5 355.178
 L 157.755 355.5
 L 158.5 355.593
 L 159.5 355.694
 L 160.5 355.674
 L 162.245 355.5
 L 162.5 355.468
 L 163.5 355.321
 L 164.5 355.035
 L 165.5 354.718
 L 166.5 354.343
 L 167.5 354.178
 L 168.5 353.843
 L 169.5 353.468
 L 171.5 352.805
 L 172.186 352.5
 L 172.5 352.343
 L 173.5 351.916
 L 174.5 351.574
 L 175.5 351.274
 L 176.5 351.027
 L 177.5 350.75
 L 178.186 350.5
 L 178.5 350.374
 L 179.5 350.074
 L 180.5 349.574
 L 181.5 348.974
 L 182.093 348.5
 L 182.5 348.035
 L 182.916 347.5
 L 183.361 346.5
 L 183.312 345.5
 L 183.145 344.5
 L 182.696 343.5
 L 181.982 342.5
 L 181.5 341.887
 L 181.173 341.5
 L 180.096 340.5
 L 178.5 339.203
 L 177.5 338.453
 L 176.312 337.5
 L 175.5 336.891
 L 172.5 334.453
 L 171.5 333.733
 L 171.204 333.5
 L 170.022 332.5
 L 169.5 332.09
 L 168.812 331.5
 L 167.729 330.5
 L 167.5 330.304
 L 166.5 329.375
 L 165.5 328.523
 L 165.474 328.5
 L 163.5 326.855
 L 162.5 325.938
 L 161.974 325.5
 L 160.5 324.16
 L 159.84 323.5
 L 158.022 321.5
 L 157.204 320.5
 L 156.477 319.5
 L 155.659 318.5
 L 154.204 316.5
 L 153.5 315.639
 L 152.645 314.5
 L 151.979 313.5
 L 151.229 312.5
 L 150.557 311.5
 L 150.5 311.407
 L 149.895 310.5
 L 149.5 309.973
 L 149.113 309.5
 L 148.5 308.536
 L 147.75 307.5
 L 147.113 306.5
 L 146.5 305.657
 L 146.374 305.5
 L 145.812 304.5
 L 145.5 303.965
 L 145.174 303.5
 L 144.659 302.5
 L 144.5 302.151
 L 143.674 300.5
 L 143.5 300.064
 L 142.805 298.5
 L 142.5 297.585
 L 141.718 295.5
 L 141.574 294.5
 L 141.5 294.128
 L 140.916 291.5
 L 140.75 290.5
 L 140.574 289.5
 L 140.5 288.755
 L 140.361 287.5
 L 140.174 286.5
 L 139.874 284.5
 L 139.5 283.252
 L 138.5 280.585
 L 138.035 279.5
 L 137.791 278.5
 L 137.457 276.5
 L 137.457 275.5
 L 137.5 275.245
 L 137.748 274.5
 L 139.5 272.748
 L 140.245 272.5
 L 141.5 272.186
 L 142.5 272.082
 L 143.5 271.936
 L 144.5 271.936
 L 145.5 272.082
 L 146.5 271.936
 L 147.5 271.748
 L 148.5 271.415
 L 149.5 271.372
 L 150.5 271.082
 L 151.5 270.872
 L 152.245 270.5
 L 152.5 270.245
 L 155.5 270.245
 L 156.5 271.245
 L 157.5 271.245
 L 159.5 273.245
 L 163.5 273.245
 L 168.5 278.245
 L 168.628 278.5
 L 170.5 280.372
 L 171.5 281.872
 L 172.128 282.5
 L 172.5 282.748
 L 173.5 283.748
 L 174.5 284.415
 L 175.5 285.415
 L 177.5 286.748
 L 178.5 287.436
 L 178.628 287.5
 L 180.128 288.5
 L 180.5 288.872
 L 181.5 289.415
 L 181.585 289.5
 L 184.5 293.872
 L 186.5 295.872
 L 187.5 296.415
 L 189.128 297.5
 L 192.128 300.5
 L 194.5 302.082
 L 194.918 302.5
 L 195.5 303.372
 L 201.5 309.372
 L 202.252 310.5
 L 205.5 313.748
 L 206.5 314.372
 L 206.628 314.5
 L 208.128 315.5
 L 208.5 315.872
 L 208.918 316.5
 L 209.918 317.5
 L 211.5 318.686
 L 212.5 319.415
 L 213.5 320.082
 L 214.918 321.5
 L 215.585 322.5
 L 216.585 323.5
 L 217.5 324.872
 L 218.5 325.872
 L 219.585 327.5
 L 220.585 328.5
 L 221.252 329.5
 L 222.252 330.5
 L 223.585 332.5
 L 224.5 335.245
 L 224.564 335.5
 L 225.064 336.5
 L 225.814 337.5
 L 226.314 338.5
 L 227.064 339.5
 L 227.564 340.5
 L 227.814 341.5
 L 228.151 342.5
 L 228.314 343.5
 L 228.564 344.5
 L 228.585 345.5
 L 228.585 347.5
 L 228.252 348.5
 L 228.128 349.5
 L 227.128 351.5
 L 226.5 352.128
 L 226.252 352.5
 L 225.918 353.5
 L 225.918 354.5
 L 225.628 355.5
 L 225.585 356.5
 L 225.252 357.5
 L 225.128 358.5
 L 224.628 359.5
 L 224.585 360.5
 L 224.585 361.5
 L 223.918 363.5
 L 223.918 364.5
 L 222.5 368.755
 L 222.314 369.5
 L 222.314 370.5
 L 222.252 371.5
 L 222.064 372.5
 L 222.064 373.5
 L 221.918 374.5
 L 221.918 375.5
 L 221.628 376.5
 L 221.128 377.5
 L 221.128 378.5
 L 220.755 379.5
 L 220.628 380.5
 L 220.128 381.5
 L 219.755 382.5
 L 219.755 383.5
 L 218.755 384.5
 L 219.755 385.5
 L 219.755 387.5
 L 219.5 387.755
 L 219.128 388.5
 L 219.128 391.5
 L 219.5 392.245
 L 219.755 392.5
 L 219.755 393.5
 L 218.755 394.5
 L 219.755 395.5
 L 219.755 397.5
 L 218.755 398.5
 L 218.755 399.5
 L 216.755 401.5
 L 216.755 402.5
 L 216.5 402.755
 L 215.5 402.755
 L 214.5 403.755
 L 211.5 403.755
 L 210.5 402.755
 L 209.5 402.628
 L 209.372 402.5
 L 209.245 401.5
 L 208.5 400.755
 L 208.372 400.5
 L 208.245 399.5
 L 207.5 398.755
 L 207.372 398.5
 L 207.082 397.5
 L 206.5 395.755
 L 205.5 393.755
 L 205.415 393.5
 L 205.186 392.5
 L 204.872 391.5
 L 204.5 390.755
 L 204.415 390.5
 L 204.186 389.5
 L 203.936 388.5
 L 203.748 387.5
 L 203.5 386.755
 L 203.449 386.5
 L 203.436 385.5
 L 203.249 384.5
 L 203.049 383.5
 L 202.957 382.5
 L 202.686 381.5
 L 202.624 380.5
 L 201.957 376.5
 L 201.624 375.5
 L 201.5 374.755
 L 201.464 374.5
 L 201.249 373.5
 L 200.791 372.5
 L 200.5 371.628
 L 200.449 371.5
 L 199.749 370.5
 L 198.892 369.5
 L 197.892 368.5
 L 197.5 368.157
 L 196.624 367.5
 L 196.5 367.417
 L 195.5 366.782
 L 194.936 366.5
 L 194.5 366.355
 L 193.5 366.058
 L 192.5 365.855
 L 191.5 365.733
 L 190.5 365.661
 L 189.5 365.661
 L 188.5 365.703
 L 187.5 365.717
 L 186.5 365.828
 L 185.5 365.927
 L 184.5 366.016
 L 183.5 366.078
 L 182.5 366.103
 L 181.5 366.117
 L 180.5 366.078
 L 179.5 366.016
 L 178.5 365.984
 L 177.5 365.917
 L 176.5 365.875
 L 175.5 365.804
 L 174.5 365.688
 L 173.748 365.5
 L 173.5 365.443
 L 172.5 365.16
 L 171.5 364.726
 L 170.748 364.5
 L 170.5 364.438
 L 169.5 364.289
 L 168.5 364.443
 L 168.314 364.5
 L 167.5 364.796
 L 166.5 365.212
 L 165.751 365.5
 L 165.5 365.626
 L 164.5 366.021
 L 163.5 366.271
 L 162.5 366.443
 L 161.5 366.673
 L 160.5 366.688
 L 159.5 366.688
 L 158.5 366.673
 L 157.748 366.5
 L 157.5 366.45
 L 155.5 366.203
 L 154.5 366.103
 L 153.5 366.103
 L 152.5 366.125
 L 151.5 366.25
 L 150.5 366.408
 L 150.064 366.5
 L 149.5 366.625
 L 148.5 366.903
 L 146.965 367.5
 L 146.5 367.717
 L 145.5 368.203
 L 144.822 368.5
 L 144.5 368.661
 L 143.5 369.117
 L 142.5 369.453
 L 142.351 369.5
 L 141.5 369.855
 L 140.5 370.058
 L 139.5 370.271
 L 138.5 370.375
 L 136.755 370.5
 L 136.5 370.528
 L 134.5 370.528
 L 133.5 370.626
 L 131.5 370.657
 L 129.5 370.907
 L 128.5 371.084
 L 126.628 371.5
 L 125.5 371.876
 L 124.5 372.157
 L 123.128 372.5
 L 122.5 372.709
 L 121.5 373.032
 L 120.5 373.282
 L 119.5 373.407
 L 118.5 373.394
 L 117.5 373.043
 L 117.035 372.5
 L 116.5 371.965
 L 116.093 371.5
 L 115.5 370.907
 L 115.138 370.5
 L 114.5 369.862
 L 114.035 369.5
 L 113.5 369.126
 L 112.5 368.526
 L 111.5 368.126
 L 110.5 367.862
 L 109.5 367.751
 L 108.5 367.657
 L 107.5 367.751
 L 106.5 367.782
 L 105.5 367.907
 L 104.5 368.157
 L 103.5 368.532
 L 102.5 368.822
 L 101.5 369.251
 L 100.5 369.822
 L 99.5 370.536
 L 98.5 371.209
 L 98.1511 371.5
 L 97.5 372.151
 L 96.5 373.351
 L 96.3936 373.5
 L 95.5 375.064
 L 94.5511 376.5
 L 94.5 376.564
 L 93.5 377.064
 L 92.5 376.951
 L 91.5 376.709
 L 90.8723 376.5
 L 90.5 376.394
 L 89.5 376.376
 L 88.7554 376.5
 L 88.5 376.536
 L 87.5 376.876
 L 86.5638 377.5
 L 85.3138 378.5
 L 84.5 379.314
 L 84.2518 379.5
 L 83.5 379.951
 L 82.5 380.351
 L 81.5 380.551
 L 80.5 380.709
 L 79.5 380.876
 L 78.5 381.032
 L 76.6277 381.5
 L 76.5 381.564
 L 75.5638 382.5
 L 75.5 382.628
 L 74.9185 383.5
 L 75.0638 384.5
 L 75.3138 385.5
 L 75.5 385.748
 L 77.2518 387.5
 L 77.5 387.686
 L 78.5 387.936
 L 79.5 388.082
 L 82.5 387.082
 L 83.5 386.872
 L 84.5 387.082
 L 85.7554 387.5
 L 86.5 387.872
 L 87.5 388.415
 L 87.7554 388.5
 L 89.5 388.936
 L 90.5 388.936
 L 91.5 388.748
 L 93.5 388.748
 L 94.5 388.936
 L 95.5 388.936
 L 96.5 389.186
 L 97.5 389.686
 L 106.5 391.936
 L 107.5 391.748
 L 108.5 391.686
 L 109.245 391.5
 L 109.5 391.415
 L 110.5 391.372
 L 111.5 390.748
 L 112.245 390.5
 L 112.5 390.436
 L 112.755 390.5
 L 113.5 390.748
 L 114.5 390.415
 L 115.5 390.415
 L 117.5 391.082
 L 118.5 391.372
 L 119.5 391.415
 L 119.755 391.5
 L 120.5 391.872
 L 122.5 391.872
 L 123.5 392.245
 L 124.5 391.872
 L 125.5 391.372
 L 125.755 391.5
 L 126.755 392.5
 L 126.755 394.5
 L 126.5 394.755
 L 126.128 395.5
 L 126.5 396.245
 L 126.755 396.5
 L 126.755 397.5
 L 127.128 398.5
 L 127.628 399.5
 L 127.585 400.5
 L 127.5 400.755
 L 127.128 401.5
 L 127.128 403.5
 L 126.918 404.5
 L 126.918 407.5
 L 125.918 410.5
 L 125.5 411.128
 L 125.128 411.5
 L 124.5 412.755
 L 123.755 413.5
 L 123.5 413.628
 L 122.628 414.5
 L 122.5 414.755
 L 121.755 415.5
 L 121.5 415.628
 L 120.5 416.628
 L 119.5 417.252
 L 119.128 417.5
 L 118.5 418.128
 L 116.5 419.128
 L 115.5 420.128
 L 113.5 421.128
 L 113.128 421.5
 L 112.5 421.918
 L 111.5 422.128
 L 110.755 422.5
 L 107.755 423.5
 L 107.5 423.628
 L 106.5 424.252
 L 105.755 424.5
 L 105.5 424.628
 L 104.5 424.628
 L 103.628 425.5
 L 103.5 425.585
 L 102.5 426.128
 L 101.755 426.5
 L 100.5 427.755
 L 99.5 428.128
 L 98.7554 428.5
 L 96.5 430.755
 L 96.1277 431.5
 L 95.7554 432.5
 L 95.5 432.755
 L 94.5 434.755
 L 93.5 435.755
 L 93.1277 436.5
 L 92.1277 437.5
 L 91.5 438.755
 L 89.7554 440.5
 L 89.7554 442.5
 L 89.6277 443.5
 L 89.1277 444.5
 L 89.1277 445.5
 L 89.5 446.245
 L 89.7554 446.5
 L 89.7554 448.5
 L 90.5 449.245
 L 90.6277 449.5
 L 91.6277 450.5
 L 91.7554 451.5
 L 92.7554 452.5
 L 93.1277 453.5
 L 93.5 454.245
 L 95.5 456.245
 L 95.6277 456.5
 L 95.7554 457.5
 L 96.7554 458.5
 L 96.7554 460.5
 L 99.5 463.245
 L 99.6277 463.5
 L 99.7554 464.5
 L 100.128 465.5
 L 101.128 466.5
 L 101.5 467.245
 L 104.5 470.245
 L 104.628 470.5
 L 106.5 472.372
 L 106.755 472.5
 L 107.755 473.5
 L 109.755 474.5
 L 110.755 475.5
 L 111.5 475.872
 L 112.5 476.872
 L 113.755 477.5
 L 114.755 478.5
 L 115.5 478.872
 L 116.5 479.245
 L 116.755 479.5
 L 119.5 480.872
 L 120.5 481.082
 L 121.5 481.372
 L 123.755 482.5
 L 124.5 483.245
 L 125.5 483.372
 L 126.5 483.872
 L 127.5 484.245
 L 128.5 484.372
 L 129.5 484.872
 L 130.5 484.872
 L 131.5 485.372
 L 133.5 485.372
 L 134.5 485.872
 L 136.5 485.872
 L 137.5 486.245
 L 138.5 486.245
 L 139.5 486.372
 L 145.5 486.372
 L 146.5 486.245
 L 147.5 485.872
 L 151.5 485.872
 L 152.5 485.372
 L 154.5 485.372
 L 155.5 485.245
 L 156.5 484.872
 L 157.5 484.872
 L 158.5 484.372
 L 159.5 484.372
 L 160.5 484.245
 L 161.5 483.872
 L 162.5 483.872
 L 163.5 483.372
 L 164.5 483.372
 L 165.5 482.872
 L 166.5 482.872
 L 167.5 482.372
 L 168.5 482.372
 L 169.5 481.872
 L 170.5 481.872
 L 171.5 481.372
 L 172.5 481.245
 L 173.5 480.872
 L 174.5 480.372
 L 175.5 480.245
 L 176.5 479.872
 L 177.5 479.372
 L 178.5 479.245
 L 179.5 478.872
 L 182.5 477.372
 L 183.5 477.245
 L 184.5 476.872
 L 185.245 476.5
 L 185.5 476.245
 L 186.5 475.872
 L 191.245 473.5
 L 191.5 473.245
 L 192.5 472.872
 L 193.245 472.5
 L 193.5 472.245
 L 194.5 471.872
 L 195.245 471.5
 L 196.245 470.5
 L 196.5 470.372
 L 197.5 470.245
 L 198.5 469.245
 L 199.5 468.872
 L 200.245 468.5
 L 201.245 467.5
 L 201.5 467.372
 L 202.5 467.245
 L 203.5 466.245
 L 204.5 465.872
 L 205.245 465.5
 L 208.5 462.245
 L 210.5 462.245
 L 211.5 461.245
 L 212.5 461.245
 L 213.5 460.245
 L 214.5 459.872
 L 215.245 459.5
 L 216.5 458.245
 L 217.5 458.245
 L 218.5 457.245
 L 219.5 457.245
 L 221.5 455.245
 L 222.5 455.245
 L 223.5 454.245
 L 224.5 454.245
 L 225.5 453.245
 L 226.5 453.245
 L 227.5 452.245
 L 228.5 452.245
 L 229.5 451.245
 L 230.5 451.245
 L 231.5 450.245
 L 232.5 450.245
 L 233.5 449.245
 L 235.5 449.245
 L 236.5 448.245
 L 237.5 448.245
 L 238.5 447.245
 L 241.5 447.245
 L 242.5 446.872
 L 243.245 446.5
 L 243.5 446.245
 L 244.5 446.245
 L 245.5 445.872
 L 246.245 445.5
 L 247.5 444.245
 L 250.5 444.245
 L 251.5 443.245
 L 256 443.245
 L 256 85.0426
 L 255.5 85.0426
 L 254.686 84.5
 L 254.5 84.3936
 L 253.5 83.7092
 L 253.249 83.5
 L 252.5 83.0319
 L 250.5 81.5365
 L 250.457 81.5
 L 247.791 79.5
 L 247.5 79.2508
 L 246.5 78.5365
 L 245.291 77.5
 L 244.5 76.9069
 L 243.5 76.0319
 L 242.791 75.5
 L 241.624 74.5
 L 241.5 74.4069
 L 240.5 73.6793
 L 239.124 72.5
 L 238.124 71.5
 L 235.5 68.3511
 L 234.5 67.3511
 L 232.124 64.5
 L 231.5 63.8759
 L 231.049 63.5
 L 230.049 62.5
 L 229.5 62.0426
 L 227.957 60.5
 L 227.5 59.9511
 L 227.049 59.5
 L 226.5 58.5851
 L 226.436 58.5
 L 225.791 57.5
 L 225.5 57.0638
 L 224.5 55.8138
 L 224.291 55.5
 L 223.5 54.5511
 L 223.436 54.5
 L 222.5 53.5638
 L 221.082 52.5
 L 219.5 50.9185
 L 217.686 48.5
 L 215.686 46.5
 L 213.5 43.5851
 L 213.449 43.5
 L 213.049 42.5
 L 211.249 39.5
 L 210.686 38.5
 L 210.5 38.1277
 L 210.249 37.5
 L 209.624 36.5
 L 209.5 36.3138
 L 208.686 35.5
 L 207.936 34.5
 L 207.5 34.0638
 L 206.5 32.8138
 L 205.186 31.5
 L 204.436 30.5
 L 203.5 29.5638
 L 201.849 27.5
 L 201.249 26.5
 L 200.449 25.5
 L 199.5 23.9185
 L 199.291 23.5
 L 198.649 22.5
 L 197.849 21.5
 L 196.849 20.5
 L 195.649 19.5
 L 195.5 19.3936
 L 194.5 18.7092
 L 194.186 18.5
 L 192.5 17.5426
 L 191.5 16.8759
 L 191.049 16.5
 L 190.5 16.1079
 L 189.5 15.2508
 L 188.5 14.5426
 L 188.449 14.5
 L 187.049 13.5
 L 185.5 12.5365
 L 185.436 12.5
 L 184.5 12.0839
 L 183.5 11.6793
 L 182.5 11.3936
 L 180.5 10.5426
 L 179.5 10.2092
 L 178.5 9.55107
 L 177.5 9.15107
 L 176.5 8.56384
 L 175.5 7.81384
 L 172.872 6.5
 L 172.5 6.25179
 L 171.5 5.56384
 L 168.748 3.5
 L 166.748 1.5
 L 166.082 0.5
 L 166.082 0
 L 79.7554 0
 z
 M 185.5 122.449
 L 184.5 122.649
 L 183.5 122.936
 L 182.5 123.082
 L 181.5 123.415
 L 180.5 123.436
 L 179.5 123.436
 L 178.5 123.249
 L 177.5 123.186
 L 176.5 123.049
 L 175.5 123.049
 L 174.5 123.186
 L 173.5 123.436
 L 172.5 123.449
 L 172.245 123.5
 L 171.5 123.624
 L 170.5 123.649
 L 169.5 123.649
 L 168.5 123.849
 L 167.5 123.849
 L 166.5 123.936
 L 165.5 124.049
 L 164.5 124.449
 L 161.5 125.049
 L 160.5 125.124
 L 159.5 125.291
 L 158.5 125.624
 L 157.5 125.849
 L 156.5 125.936
 L 155.5 126.049
 L 154.5 126.049
 L 153.5 125.849
 L 150.5 125.849
 L 149.5 126.049
 L 148.5 126.436
 L 148.245 126.5
 L 147.5 126.649
 L 146.5 126.957
 L 145.5 127.249
 L 144.872 127.5
 L 144.5 127.624
 L 143.5 127.849
 L 142.5 128.249
 L 140.5 128.649
 L 139.5 128.957
 L 138.5 129.249
 L 137.872 129.5
 L 137.5 129.624
 L 136.5 129.849
 L 135.5 129.936
 L 134.5 130.186
 L 133.5 130.249
 L 132.5 130.436
 L 131.5 130.436
 L 131.245 130.5
 L 128.5 131.049
 L 127.5 131.415
 L 126.5 131.436
 L 124.5 131.936
 L 123.5 132.415
 L 123.245 132.5
 L 122.5 132.686
 L 121.5 132.748
 L 120.5 133.082
 L 119.872 133.5
 L 119.5 133.686
 L 118.5 133.748
 L 117.5 134.372
 L 117.245 134.5
 L 116.5 134.748
 L 115.5 134.415
 L 115.245 134.5
 L 113.5 135.372
 L 111.5 135.372
 L 110.5 135.872
 L 109.5 135.372
 L 109.245 135.5
 L 108.5 136.245
 L 107.755 135.5
 L 107.5 135.372
 L 107.245 135.5
 L 106.5 136.245
 L 105.755 135.5
 L 105.5 135.372
 L 105.245 135.5
 L 104.5 136.245
 L 103.5 135.245
 L 102.5 136.245
 L 100.5 136.245
 L 95.2446 141.5
 L 95.2446 146.5
 L 95.3723 147.5
 L 95.3723 149.5
 L 95.8723 150.5
 L 96.2446 151.5
 L 96.0815 152.5
 L 96.3723 153.5
 L 96.4149 154.5
 L 96.5 154.755
 L 97.8723 157.5
 L 98.4149 158.5
 L 98.5 158.585
 L 99.8723 159.5
 L 100.5 160.128
 L 101.245 160.5
 L 101.5 160.585
 L 102.5 161.252
 L 104.5 161.918
 L 105.5 162.314
 L 106.245 162.5
 L 106.5 162.585
 L 107.5 163.064
 L 108.5 163.252
 L 110.5 163.918
 L 111.372 164.5
 L 111.5 164.628
 L 112.5 165.128
 L 112.872 165.5
 L 113.372 166.5
 L 114.372 167.5
 L 114.872 168.5
 L 115.415 169.5
 L 115.748 170.5
 L 116.415 171.5
 L 116.5 171.755
 L 116.936 173.5
 L 117.249 174.5
 L 117.449 175.5
 L 117.849 176.5
 L 118.124 177.5
 L 118.449 178.5
 L 118.5 178.755
 L 118.624 179.5
 L 118.749 180.5
 L 118.791 181.5
 L 118.968 182.5
 L 119.035 183.5
 L 119.218 184.5
 L 119.472 186.5
 L 119.5 186.585
 L 119.892 187.5
 L 120.178 188.5
 L 120.606 189.5
 L 121.124 190.5
 L 121.5 191.064
 L 121.849 191.5
 L 122.5 192.151
 L 123.5 192.951
 L 125.5 193.351
 L 126.5 193.351
 L 127.245 193.5
 L 127.5 193.543
 L 128.5 193.551
 L 129.5 193.814
 L 130.5 194.314
 L 130.748 194.5
 L 131.436 195.5
 L 131.5 195.585
 L 132.049 196.5
 L 132.457 197.5
 L 132.5 197.755
 L 132.749 199.5
 L 132.791 200.5
 L 132.749 201.5
 L 132.624 202.5
 L 132.5 202.748
 L 130.5 205.415
 L 129.5 206.415
 L 127.936 208.5
 L 127.649 209.5
 L 127.5 210.245
 L 127.457 210.5
 L 127.464 211.5
 L 127.5 211.628
 L 127.791 212.5
 L 128.5 213.918
 L 128.849 214.5
 L 129.5 215.314
 L 129.686 215.5
 L 130.5 216.043
 L 131.415 216.5
 L 131.5 216.536
 L 133.5 217.543
 L 134.5 218.064
 L 135.082 218.5
 L 136.5 219.351
 L 137.5 220.151
 L 138.372 220.5
 L 138.5 220.543
 L 139.5 221.064
 L 140.372 221.5
 L 140.5 221.551
 L 141.5 221.918
 L 142.372 222.5
 L 143.5 223.064
 L 145.245 223.5
 L 145.5 223.585
 L 146.5 224.252
 L 147.245 224.5
 L 147.5 224.628
 L 150.372 227.5
 L 150.5 227.585
 L 151.5 228.128
 L 152.5 228.252
 L 153.5 228.128
 L 154.5 227.628
 L 154.628 227.5
 L 155.5 226.918
 L 155.918 226.5
 L 156.5 226.064
 L 157.5 225.585
 L 157.628 225.5
 L 158.5 225.151
 L 160.5 224.751
 L 161.5 224.814
 L 162.5 225.043
 L 163.5 225.351
 L 164.245 225.5
 L 165.5 225.814
 L 166.5 225.951
 L 168.5 225.951
 L 169.5 226.151
 L 170.5 226.376
 L 171.245 226.5
 L 171.5 226.564
 L 172.5 226.951
 L 173.5 227.064
 L 174.5 226.951
 L 175.5 226.751
 L 176.128 226.5
 L 176.5 226.376
 L 177.5 226.209
 L 178.5 225.876
 L 179.5 225.822
 L 180.5 225.543
 L 180.755 225.5
 L 182.5 225.251
 L 183.5 225.032
 L 184.5 224.822
 L 186.5 224.251
 L 187.5 223.822
 L 188.5 223.536
 L 188.585 223.5
 L 189.5 223.157
 L 190.5 222.822
 L 191.5 222.532
 L 191.585 222.5
 L 192.5 222.108
 L 193.5 221.782
 L 194.252 221.5
 L 194.5 221.394
 L 195.5 221.108
 L 196.5 220.709
 L 197.5 220.536
 L 197.628 220.5
 L 198.5 220.151
 L 199.5 219.709
 L 199.918 219.5
 L 200.5 219.151
 L 201.5 218.814
 L 203.252 217.5
 L 203.5 217.128
 L 204.128 216.5
 L 205.128 214.5
 L 205.128 211.5
 L 204.628 210.5
 L 204.628 209.5
 L 204.128 208.5
 L 204.628 207.5
 L 204.628 206.5
 L 204.918 205.5
 L 204.252 204.5
 L 203.918 203.5
 L 203.564 202.5
 L 203.5 202.372
 L 203.151 201.5
 L 203.151 200.5
 L 203.376 199.5
 L 204.376 197.5
 L 204.5 197.376
 L 205.5 196.679
 L 205.751 196.5
 L 206.5 196.084
 L 207.376 195.5
 L 207.5 195.438
 L 208.5 194.855
 L 209.209 194.5
 L 209.5 194.384
 L 210.5 194.233
 L 211.5 194.289
 L 212.5 194.447
 L 212.748 194.5
 L 213.5 194.705
 L 214.5 195.021
 L 215.5 195.25
 L 216.415 195.5
 L 216.5 195.536
 L 218.249 196.5
 L 218.5 196.751
 L 219.436 197.5
 L 219.5 197.564
 L 220.5 198.064
 L 221.5 198.108
 L 222.5 198.032
 L 223.5 197.973
 L 224.5 197.926
 L 225.5 197.926
 L 226.5 197.973
 L 227.5 198.069
 L 228.5 198.226
 L 229.5 198.326
 L 230.5 198.407
 L 231.5 198.407
 L 232.5 198.282
 L 233.5 198.108
 L 234.5 197.822
 L 235.252 197.5
 L 235.5 197.376
 L 236.5 197.151
 L 237.5 196.564
 L 237.628 196.5
 L 239.128 195.5
 L 238.755 194.5
 L 238.5 194.372
 L 235.628 191.5
 L 235.585 190.5
 L 235.5 190.245
 L 235.128 189.5
 L 234.551 188.5
 L 234.5 188.457
 L 233.5 187.686
 L 232.314 186.5
 L 231.064 185.5
 L 230.5 185.124
 L 229.876 184.5
 L 229.5 184.178
 L 228.551 183.5
 L 228.5 183.468
 L 227.5 183.035
 L 226.751 182.5
 L 226.5 182.343
 L 225.5 181.791
 L 223.564 180.5
 L 223.5 180.464
 L 222.5 179.749
 L 222.209 179.5
 L 221.5 178.968
 L 220.751 178.5
 L 220.5 178.361
 L 219.5 177.843
 L 218.585 177.5
 L 218.5 177.464
 L 217.5 177.124
 L 216.5 176.936
 L 215.5 177.082
 L 214.872 177.5
 L 214.372 178.5
 L 213.5 179.372
 L 212.5 179.249
 L 211.5 179.035
 L 210.5 178.843
 L 209.5 178.468
 L 208.5 178.027
 L 207.5 177.568
 L 207.314 177.5
 L 206.5 177.138
 L 205.5 176.812
 L 204.5 176.557
 L 204.252 176.5
 L 202.5 176.019
 L 200.814 175.5
 L 200.5 175.374
 L 199.5 174.895
 L 198.709 174.5
 L 198.5 174.343
 L 197.151 173.5
 L 196.151 172.5
 L 195.585 171.5
 L 196.252 170.5
 L 196.585 169.5
 L 196.5 169.372
 L 196.064 168.5
 L 195.5 168.049
 L 194.585 167.5
 L 194.5 167.464
 L 193.5 167.124
 L 192.5 166.649
 L 192.128 166.5
 L 191.5 166.321
 L 190.5 165.892
 L 189.5 165.624
 L 189.252 165.5
 L 188.5 165.178
 L 187.5 164.957
 L 186.5 164.606
 L 186.252 164.5
 L 185.5 164.124
 L 184.5 163.749
 L 183.628 163.5
 L 182.5 163.049
 L 181.5 162.624
 L 180.755 162.5
 L 180.5 162.436
 L 179.5 161.936
 L 177.755 161.5
 L 176.5 160.872
 L 175.5 160.748
 L 174.755 160.5
 L 174.5 160.245
 L 173.5 159.748
 L 172.755 159.5
 L 171.755 158.5
 L 171.755 157.5
 L 171.5 157.245
 L 171.128 156.5
 L 171.128 155.5
 L 171.5 154.755
 L 172.5 154.755
 L 173.128 153.5
 L 173.5 153.128
 L 174.5 152.628
 L 174.628 152.5
 L 175.128 151.5
 L 176.128 150.5
 L 179.128 148.5
 L 180.5 147.814
 L 180.918 147.5
 L 181.5 147.151
 L 182.5 146.564
 L 182.628 146.5
 L 183.5 146.151
 L 184.5 145.551
 L 184.628 145.5
 L 185.5 145.209
 L 186.5 144.951
 L 187.5 144.564
 L 187.755 144.5
 L 188.5 144.351
 L 189.5 144.064
 L 190.628 143.5
 L 191.5 143.209
 L 192.5 143.043
 L 193.5 142.822
 L 194.5 142.543
 L 194.628 142.5
 L 195.5 142.282
 L 196.5 142.108
 L 198.5 141.822
 L 199.5 141.657
 L 200.755 141.5
 L 201.5 141.417
 L 202.5 141.407
 L 203.5 141.407
 L 204.5 141.306
 L 205.5 141.407
 L 206.5 141.394
 L 207.5 141.536
 L 208.5 141.394
 L 209.5 141.376
 L 211.5 141.376
 L 212.5 141.351
 L 213.5 141.209
 L 214.5 141.043
 L 215.5 140.751
 L 216.755 140.5
 L 217.5 140.314
 L 218.5 139.951
 L 219.5 139.814
 L 220.5 139.814
 L 221.5 139.628
 L 222.5 139.628
 L 222.755 139.5
 L 223.5 139.252
 L 224.5 139.128
 L 225.755 138.5
 L 226.5 137.755
 L 227.5 137.755
 L 227.755 137.5
 L 227.628 136.5
 L 226.628 134.5
 L 226.5 134.415
 L 225.5 133.872
 L 225.128 133.5
 L 223.628 132.5
 L 223.5 132.449
 L 222.5 131.936
 L 221.918 131.5
 L 221.5 131.249
 L 220.5 130.849
 L 219.918 130.5
 L 219.5 130.291
 L 218.5 130.035
 L 217.5 129.624
 L 216.755 129.5
 L 216.5 129.464
 L 215.5 129.093
 L 214.5 128.892
 L 212.5 128.892
 L 211.5 128.791
 L 210.5 128.649
 L 209.5 128.449
 L 208.5 128.049
 L 207.5 127.686
 L 207.128 127.5
 L 206.5 127.249
 L 205.5 126.936
 L 204.628 126.5
 L 204.5 126.449
 L 203.5 126.186
 L 202.5 125.436
 L 201.5 124.849
 L 200.5 124.449
 L 199.5 123.849
 L 198.5 123.649
 L 198.128 123.5
 L 197.5 123.291
 L 196.5 123.049
 L 195.5 122.686
 L 194.5 122.649
 L 193.5 122.449
 z
 M 154.5 186.314
 L 153.5 186.814
 L 152.814 187.5
 L 152.064 188.5
 L 151.5 189.628
 L 151.151 190.5
 L 151.151 191.5
 L 151.252 192.5
 L 151.314 193.5
 L 151.5 194.245
 L 151.585 194.5
 L 151.585 195.5
 L 151.5 195.755
 L 151.064 197.5
 L 151.064 198.5
 L 151.252 199.5
 L 151.5 199.872
 L 152.5 200.436
 L 152.628 200.5
 L 153.5 200.849
 L 154.5 200.936
 L 155.5 200.936
 L 158.5 201.686
 L 160.128 202.5
 L 161.5 203.049
 L 162.5 203.124
 L 163.5 203.124
 L 164.5 203.035
 L 165.5 202.791
 L 166.5 202.649
 L 167.245 202.5
 L 168.5 202.186
 L 169.5 202.082
 L 170.5 201.936
 L 171.5 201.748
 L 171.872 201.5
 L 171.872 200.5
 L 171.5 200.252
 L 170.5 199.628
 L 170.245 199.5
 L 169.5 199.314
 L 168.5 198.585
 L 167.415 197.5
 L 166.686 196.5
 L 165.936 195.5
 L 165.686 194.5
 L 165.686 193.5
 L 165.436 192.5
 L 165.415 191.5
 L 165.186 190.5
 L 164.748 189.5
 L 164.082 188.5
 L 163.082 187.5
 L 162.5 187.151
 L 160.5 186.351
 L 159.5 186.043
 L 158.5 185.876
 L 157.5 185.751
 L 156.5 185.751
 L 155.5 185.951
 z
M 256 0   L 512 0   L 512 512   L 256 512 z
 M 335.755 2.5
 L 335.628 3.5
 L 335.128 4.5
 L 334.755 5.5
 L 334.755 6.5
 L 334.628 7.5
 L 333.628 8.5
 L 333.128 9.5
 L 332.755 10.5
 L 331.755 11.5
 L 331.755 13.5
 L 330.755 14.5
 L 330.755 15.5
 L 331.5 16.2446
 L 331.628 16.5
 L 331.5 16.7554
 L 330.755 17.5
 L 330.755 19.5
 L 330.628 20.5
 L 330.5 20.7554
 L 329.755 21.5
 L 329.755 24.5
 L 329.5 24.7554
 L 329.128 25.5
 L 328.755 26.5
 L 328.755 29.5
 L 328.628 30.5
 L 328.128 31.5
 L 327.755 32.5
 L 327.755 45.5
 L 327.628 46.5
 L 327.5 46.7554
 L 326.755 47.5
 L 326.755 50.5
 L 325.755 51.5
 L 325.755 54.5
 L 325.628 55.5
 L 325.128 56.5
 L 325.628 57.5
 L 325.628 59.5
 L 325.755 60.5
 L 325.755 62.5
 L 324.755 63.5
 L 324.755 64.5
 L 323.755 65.5
 L 323.755 67.5
 L 322.755 68.5
 L 322.755 72.5
 L 321.755 73.5
 L 321.755 75.5
 L 320.755 76.5
 L 320.755 77.5
 L 319.755 78.5
 L 319.755 82.5
 L 318.755 83.5
 L 318.755 85.5
 L 317.755 86.5
 L 317.755 87.5
 L 314.755 90.5
 L 314.755 91.5
 L 313.755 92.5
 L 313.755 94.5
 L 312.755 95.5
 L 312.755 96.5
 L 313.5 97.2446
 L 313.628 97.5
 L 313.755 98.5
 L 314.128 99.5
 L 314.628 100.5
 L 314.755 101.5
 L 314.755 104.5
 L 313.755 105.5
 L 313.755 106.5
 L 312.5 107.755
 L 311.5 107.755
 L 310.755 108.5
 L 310.755 110.5
 L 311.5 111.245
 L 311.628 111.5
 L 311.628 112.5
 L 311.128 113.5
 L 310.755 114.5
 L 311.755 115.5
 L 311.755 117.5
 L 312.755 118.5
 L 312.755 119.5
 L 313.755 120.5
 L 313.755 121.5
 L 314.128 122.5
 L 314.128 123.5
 L 314.5 124.245
 L 314.755 124.5
 L 314.755 125.5
 L 316.755 127.5
 L 316.755 128.5
 L 317.128 129.5
 L 317.128 130.5
 L 317.5 131.245
 L 317.755 131.5
 L 318.128 132.5
 L 318.128 133.5
 L 318.5 134.245
 L 318.755 134.5
 L 319.128 135.5
 L 319.252 136.5
 L 319.5 137.245
 L 322.128 142.5
 L 322.128 143.5
 L 323.5 146.245
 L 323.755 146.5
 L 323.755 147.5
 L 324.128 148.5
 L 324.252 149.5
 L 324.5 150.245
 L 324.628 150.5
 L 324.755 151.5
 L 325.5 152.245
 L 325.628 152.5
 L 325.628 153.5
 L 325.918 154.5
 L 325.918 155.5
 L 326.128 156.5
 L 326.5 157.245
 L 326.585 157.5
 L 326.628 158.5
 L 326.628 159.5
 L 326.918 160.5
 L 326.918 162.5
 L 326.814 163.5
 L 326.585 164.5
 L 326.585 170.5
 L 326.751 171.5
 L 326.564 172.5
 L 326.564 175.5
 L 326.551 176.5
 L 326.351 177.5
 L 326.314 178.5
 L 326.151 179.5
 L 326.151 180.5
 L 326.043 181.5
 L 325.951 182.5
 L 325.876 183.5
 L 325.876 184.5
 L 325.751 185.5
 L 325.551 186.5
 L 325.551 187.5
 L 325.5 187.755
 L 325.376 188.5
 L 325.351 189.5
 L 325.209 190.5
 L 324.951 191.5
 L 324.951 192.5
 L 324.751 193.5
 L 324.751 194.5
 L 324.551 195.5
 L 324.543 196.5
 L 324.043 199.5
 L 323.951 200.5
 L 323.876 201.5
 L 323.551 202.5
 L 323.5 202.755
 L 323.376 203.5
 L 323.351 204.5
 L 323.043 205.5
 L 322.751 206.5
 L 322.709 207.5
 L 322.551 208.5
 L 322.151 210.5
 L 322.151 211.5
 L 322.064 212.5
 L 321.5 214.755
 L 321.376 215.5
 L 321.351 216.5
 L 321.151 217.5
 L 321.043 218.5
 L 320.951 219.5
 L 320.751 220.5
 L 320.709 221.5
 L 320.551 222.5
 L 320.5 222.755
 L 319.376 229.5
 L 319.151 230.5
 L 318.876 231.5
 L 318.551 232.5
 L 317.751 234.5
 L 317.543 235.5
 L 317.5 235.585
 L 316.951 236.5
 L 316.709 237.5
 L 316.5 238.128
 L 316.351 238.5
 L 316.043 239.5
 L 315.551 240.5
 L 315.5 240.628
 L 314.876 242.5
 L 314.5 243.252
 L 313.543 245.5
 L 313.5 245.585
 L 313.108 246.5
 L 312.709 247.5
 L 312.376 248.5
 L 311.5 250.252
 L 311.394 250.5
 L 311.043 251.5
 L 310.551 252.5
 L 310.5 252.628
 L 310.209 253.5
 L 309.709 254.5
 L 309.043 255.5
 L 308.551 256.5
 L 308.5 256.585
 L 308.043 257.5
 L 307.5 258.314
 L 307.394 258.5
 L 307.043 259.5
 L 306.543 260.5
 L 306.5 260.628
 L 306.251 261.5
 L 305.822 262.5
 L 305.543 263.5
 L 305.5 263.628
 L 304.965 265.5
 L 304.709 266.5
 L 304.376 267.5
 L 304.151 268.5
 L 304.043 269.5
 L 303.876 270.5
 L 303.751 271.5
 L 303.709 272.5
 L 303.709 273.5
 L 303.551 274.5
 L 303.551 276.5
 L 303.564 277.5
 L 304.314 280.5
 L 305.814 283.5
 L 306.564 284.5
 L 307.564 285.5
 L 308.252 286.5
 L 308.5 286.748
 L 309.064 287.5
 L 310.5 288.936
 L 311.5 290.186
 L 312.5 290.936
 L 313.064 291.5
 L 314.314 292.5
 L 314.5 292.748
 L 315.5 293.748
 L 316.064 294.5
 L 316.5 294.936
 L 317.5 296.186
 L 317.814 296.5
 L 320.814 300.5
 L 321.5 301.872
 L 323.252 304.5
 L 323.5 304.748
 L 324.5 305.415
 L 325.5 305.415
 L 326.5 304.936
 L 327.5 303.936
 L 328.082 303.5
 L 328.5 303.249
 L 329.436 302.5
 L 329.5 302.457
 L 330.5 301.606
 L 331.5 300.892
 L 332.5 300.321
 L 333.5 299.774
 L 334.049 299.5
 L 334.5 299.178
 L 335.5 298.674
 L 335.936 298.5
 L 336.5 298.249
 L 337.5 297.774
 L 338.186 297.5
 L 339.5 296.916
 L 340.5 296.659
 L 341.082 296.5
 L 342.5 295.974
 L 343.5 295.674
 L 344.372 295.5
 L 344.5 295.464
 L 345.5 295.249
 L 346.5 295.218
 L 347.5 295.174
 L 348.5 295.174
 L 349.5 295.274
 L 350.628 295.5
 L 351.5 295.645
 L 352.5 295.865
 L 353.5 296.074
 L 354.5 296.295
 L 355.252 296.5
 L 355.5 296.557
 L 356.5 296.729
 L 357.5 296.979
 L 358.5 297.204
 L 359.314 297.5
 L 360.5 297.874
 L 361.5 298.361
 L 361.814 298.5
 L 362.5 298.75
 L 363.5 299.138
 L 364.314 299.5
 L 364.5 299.574
 L 365.5 300.027
 L 366.5 300.468
 L 366.585 300.5
 L 367.5 300.892
 L 368.5 301.343
 L 369.5 301.843
 L 370.5 302.321
 L 371.5 302.749
 L 372.5 303.457
 L 372.585 303.5
 L 373.5 303.892
 L 374.5 304.457
 L 374.585 304.5
 L 375.5 305.049
 L 376.5 305.457
 L 377.5 306.124
 L 378.252 306.5
 L 378.5 306.686
 L 379.314 307.5
 L 379.5 308.245
 L 379.543 308.5
 L 379.5 308.585
 L 379.108 309.5
 L 378.532 310.5
 L 378.5 310.532
 L 377.5 311.407
 L 377.376 311.5
 L 376.5 312.084
 L 375.564 312.5
 L 374.5 312.938
 L 373.5 313.135
 L 372.5 313.355
 L 371.5 313.443
 L 370.755 313.5
 L 369.5 313.605
 L 368.5 313.605
 L 367.872 313.5
 L 365.5 313.135
 L 364.5 313.058
 L 363.5 312.904
 L 362.5 312.827
 L 360.5 312.518
 L 360.415 312.5
 L 357.5 311.986
 L 356.5 311.848
 L 355.5 311.691
 L 354.415 311.5
 L 353.5 311.356
 L 352.5 311.181
 L 351.5 310.986
 L 350.5 310.766
 L 349.5 310.518
 L 349.436 310.5
 L 348.5 310.266
 L 347.5 310.09
 L 345.5 309.804
 L 344.5 309.733
 L 343.5 309.673
 L 342.5 309.605
 L 341.5 309.521
 L 339.5 309.518
 L 338.5 309.453
 L 336.5 309.453
 L 335.755 309.5
 L 332.5 309.75
 L 331.5 309.771
 L 330.5 309.705
 L 329.5 309.614
 L 328.872 309.5
 L 328.5 309.407
 L 327.5 309.108
 L 326.5 309.064
 L 325.5 309.252
 L 325.351 309.5
 L 324.951 310.5
 L 324.822 311.5
 L 324.907 312.5
 L 325.282 313.5
 L 326.032 314.5
 L 326.5 314.968
 L 327.209 315.5
 L 327.5 315.659
 L 329.351 316.5
 L 329.5 316.557
 L 331.5 317.019
 L 332.5 317.173
 L 333.5 317.25
 L 334.5 317.312
 L 335.5 317.312
 L 336.5 317.386
 L 337.5 317.295
 L 339.5 317.295
 L 340.5 317.361
 L 342.5 317.583
 L 343.5 317.968
 L 344.5 318.361
 L 346.5 319.468
 L 348.5 320.468
 L 348.551 320.5
 L 349.951 321.5
 L 350.5 321.957
 L 351.314 322.5
 L 351.5 322.649
 L 352.351 323.5
 L 353.151 324.5
 L 353.5 325.082
 L 353.709 325.5
 L 354.251 326.5
 L 354.822 327.5
 L 355.351 328.5
 L 355.5 328.748
 L 355.876 329.5
 L 356.251 330.5
 L 356.5 331.372
 L 356.551 331.5
 L 356.709 332.5
 L 356.376 333.5
 L 355.751 334.5
 L 355.5 334.709
 L 354.5 335.394
 L 354.351 335.5
 L 353.5 335.973
 L 352.314 336.5
 L 351.5 336.796
 L 350.5 337.135
 L 347.5 338.058
 L 346.5 338.25
 L 345.5 338.45
 L 345.128 338.5
 L 344.5 338.59
 L 343.5 338.717
 L 342.5 338.784
 L 341.5 338.828
 L 340.5 338.927
 L 339.5 339.014
 L 338.5 339.162
 L 337.5 339.348
 L 336.814 339.5
 L 336.5 339.584
 L 335.5 339.891
 L 334.5 340.162
 L 333.5 340.348
 L 332.814 340.5
 L 332.5 340.584
 L 331.5 340.784
 L 330.5 340.953
 L 329.5 341.141
 L 328.5 341.339
 L 327.814 341.5
 L 327.5 341.614
 L 326.5 342.058
 L 325.543 342.5
 L 325.5 342.551
 L 324.822 343.5
 L 324.709 344.5
 L 325.5 345.291
 L 325.751 345.5
 L 327.5 346.472
 L 332.064 348.5
 L 332.5 348.718
 L 335.5 349.464
 L 335.628 349.5
 L 336.5 349.791
 L 337.5 350.249
 L 338.5 350.649
 L 339.5 351.249
 L 339.814 351.5
 L 340.5 352.186
 L 340.918 352.5
 L 341.5 353.082
 L 342.128 353.5
 L 342.5 353.686
 L 344.5 354.186
 L 345.5 354.186
 L 346.5 354.415
 L 346.755 354.5
 L 347.5 354.686
 L 348.5 354.686
 L 349.5 354.936
 L 350.5 355.436
 L 350.755 355.5
 L 352.5 355.849
 L 353.5 355.936
 L 354.5 355.748
 L 355.245 355.5
 L 355.5 355.436
 L 356.5 355.415
 L 357.5 355.372
 L 358.5 355.082
 L 360.5 355.082
 L 361.5 354.936
 L 362.5 354.748
 L 363.5 354.415
 L 364.5 353.872
 L 365.5 353.372
 L 366.5 352.748
 L 367.5 352.082
 L 368.5 351.748
 L 369.5 351.686
 L 372.5 350.936
 L 373.5 350.649
 L 374.245 350.5
 L 376.5 349.936
 L 378.5 349.936
 L 379.5 350.082
 L 380.5 350.415
 L 381.5 350.436
 L 383.5 350.936
 L 384.5 350.936
 L 387.5 351.686
 L 388.5 351.849
 L 389.5 352.049
 L 390.5 352.124
 L 392.5 352.124
 L 393.5 351.957
 L 394.5 351.749
 L 395.5 351.593
 L 396.245 351.5
 L 396.5 351.457
 L 396.628 351.5
 L 398.5 352.035
 L 403.5 354.178
 L 404.5 354.457
 L 404.628 354.5
 L 405.5 354.749
 L 407.5 355.035
 L 408.5 355.035
 L 409.5 355.124
 L 410.5 355.124
 L 411.5 355.178
 L 413.755 355.5
 L 414.5 355.593
 L 415.5 355.694
 L 416.5 355.674
 L 418.245 355.5
 L 418.5 355.468
 L 419.5 355.321
 L 420.5 355.035
 L 421.5 354.718
 L 422.5 354.343
 L 423.5 354.178
 L 424.5 353.843
 L 425.5 353.468
 L 427.5 352.805
 L 428.186 352.5
 L 428.5 352.343
 L 429.5 351.916
 L 430.5 351.574
 L 431.5 351.274
 L 432.5 351.027
 L 433.5 350.75
 L 434.186 350.5
 L 434.5 350.374
 L 435.5 350.074
 L 436.5 349.574
 L 437.5 348.974
 L 438.093 348.5
 L 438.5 348.035
 L 438.916 347.5
 L 439.361 346.5
 L 439.312 345.5
 L 439.145 344.5
 L 438.696 343.5
 L 437.982 342.5
 L 437.5 341.887
 L 437.173 341.5
 L 436.096 340.5
 L 434.5 339.203
 L 433.5 338.453
 L 432.312 337.5
 L 431.5 336.891
 L 428.5 334.453
 L 427.5 333.733
 L 427.204 333.5
 L 426.022 332.5
 L 425.5 332.09
 L 424.812 331.5
 L 423.729 330.5
 L 423.5 330.304
 L 422.5 329.375
 L 421.5 328.523
 L 421.474 328.5
 L 419.5 326.855
 L 418.5 325.938
 L 417.974 325.5
 L 416.5 324.16
 L 415.84 323.5
 L 414.022 321.5
 L 413.204 320.5
 L 412.477 319.5
 L 411.659 318.5
 L 410.204 316.5
 L 409.5 315.639
 L 408.645 314.5
 L 407.979 313.5
 L 407.229 312.5
 L 406.557 311.5
 L 406.5 311.407
 L 405.895 310.5
 L 405.5 309.973
 L 405.113 309.5
 L 404.5 308.536
 L 403.75 307.5
 L 403.113 306.5
 L 402.5 305.657
 L 402.374 305.5
 L 401.812 304.5
 L 401.5 303.965
 L 401.174 303.5
 L 400.659 302.5
 L 400.5 302.151
 L 399.674 300.5
 L 399.5 300.064
 L 398.805 298.5
 L 398.5 297.585
 L 397.718 295.5
 L 397.574 294.5
 L 397.5 294.128
 L 396.916 291.5
 L 396.75 290.5
 L 396.574 289.5
 L 396.5 288.755
 L 396.361 287.5
 L 396.174 286.5
 L 395.874 284.5
 L 395.5 283.252
 L 394.5 280.585
 L 394.035 279.5
 L 393.791 278.5
 L 393.457 276.5
 L 393.457 275.5
 L 393.5 275.245
 L 393.748 274.5
 L 395.5 272.748
 L 396.245 272.5
 L 397.5 272.186
 L 398.5 272.082
 L 399.5 271.936
 L 400.5 271.936
 L 401.5 272.082
 L 402.5 271.936
 L 403.5 271.748
 L 404.5 271.415
 L 405.5 271.372
 L 406.5 271.082
 L 407.5 270.872
 L 408.245 270.5
 L 408.5 270.245
 L 411.5 270.245
 L 412.5 271.245
 L 413.5 271.245
 L 415.5 273.245
 L 419.5 273.245
 L 424.5 278.245
 L 424.628 278.5
 L 426.5 280.372
 L 427.5 281.872
 L 428.128 282.5
 L 428.5 282.748
 L 429.5 283.748
 L 430.5 284.415
 L 431.5 285.415
 L 433.5 286.748
 L 434.5 287.436
 L 434.628 287.5
 L 436.128 288.5
 L 436.5 288.872
 L 437.5 289.415
 L 437.585 289.5
 L 440.5 293.872
 L 442.5 295.872
 L 443.5 296.415
 L 445.128 297.5
 L 448.128 300.5
 L 450.5 302.082
 L 450.918 302.5
 L 451.5 303.372
 L 457.5 309.372
 L 458.252 310.5
 L 461.5 313.748
 L 462.5 314.372
 L 462.628 314.5
 L 464.128 315.5
 L 464.5 315.872
 L 464.918 316.5
 L 465.918 317.5
 L 467.5 318.686
 L 468.5 319.415
 L 469.5 320.082
 L 470.918 321.5
 L 471.585 322.5
 L 472.585 323.5
 L 473.5 324.872
 L 474.5 325.872
 L 475.585 327.5
 L 476.585 328.5
 L 477.252 329.5
 L 478.252 330.5
 L 479.585 332.5
 L 480.5 335.245
 L 480.564 335.5
 L 481.064 336.5
 L 481.814 337.5
 L 482.314 338.5
 L 483.064 339.5
 L 483.564 340.5
 L 483.814 341.5
 L 484.151 342.5
 L 484.314 343.5
 L 484.564 344.5
 L 484.585 345.5
 L 484.585 347.5
 L 484.252 348.5
 L 484.128 349.5
 L 483.128 351.5
 L 482.5 352.128
 L 482.252 352.5
 L 481.918 353.5
 L 481.918 354.5
 L 481.628 355.5
 L 481.585 356.5
 L 481.252 357.5
 L 481.128 358.5
 L 480.628 359.5
 L 480.585 360.5
 L 480.585 361.5
 L 479.918 363.5
 L 479.918 364.5
 L 478.5 368.755
 L 478.314 369.5
 L 478.314 370.5
 L 478.252 371.5
 L 478.064 372.5
 L 478.064 373.5
 L 477.918 374.5
 L 477.918 375.5
 L 477.628 376.5
 L 477.128 377.5
 L 477.128 378.5
 L 476.755 379.5
 L 476.628 380.5
 L 476.128 381.5
 L 475.755 382.5
 L 475.755 383.5
 L 474.755 384.5
 L 475.755 385.5
 L 475.755 387.5
 L 475.5 387.755
 L 475.128 388.5
 L 475.128 391.5
 L 475.5 392.245
 L 475.755 392.5
 L 475.755 393.5
 L 474.755 394.5
 L 475.755 395.5
 L 475.755 397.5
 L 474.755 398.5
 L 474.755 399.5
 L 472.755 401.5
 L 472.755 402.5
 L 472.5 402.755
 L 471.5 402.755
 L 470.5 403.755
 L 467.5 403.755
 L 466.5 402.755
 L 465.5 402.628
 L 465.372 402.5
 L 465.245 401.5
 L 464.5 400.755
 L 464.372 400.5
 L 464.245 399.5
 L 463.5 398.755
 L 463.372 398.5
 L 463.082 397.5
 L 462.5 395.755
 L 461.5 393.755
 L 461.415 393.5
 L 461.186 392.5
 L 460.872 391.5
 L 460.5 390.755
 L 460.415 390.5
 L 460.186 389.5
 L 459.936 388.5
 L 459.748 387.5
 L 459.5 386.755
 L 459.449 386.5
 L 459.436 385.5
 L 459.249 384.5
 L 459.049 383.5
 L 458.957 382.5
 L 458.686 381.5
 L 458.624 380.5
 L 457.957 376.5
 L 457.624 375.5
 L 457.5 374.755
 L 457.464 374.5
 L 457.249 373.5
 L 456.791 372.5
 L 456.5 371.628
 L 456.449 371.5
 L 455.749 370.5
 L 454.892 369.5
 L 453.892 368.5
 L 453.5 368.157
 L 452.624 367.5
 L 452.5 367.417
 L 451.5 366.782
 L 450.936 366.5
 L 450.5 366.355
 L 449.5 366.058
 L 448.5 365.855
 L 447.5 365.733
 L 446.5 365.661
 L 445.5 365.661
 L 444.5 365.703
 L 443.5 365.717
 L 442.5 365.828
 L 441.5 365.927
 L 440.5 366.016
 L 439.5 366.078
 L 438.5 366.103
 L 437.5 366.117
 L 436.5 366.078
 L 435.5 366.016
 L 434.5 365.984
 L 433.5 365.917
 L 432.5 365.875
 L 431.5 365.804
 L 430.5 365.688
 L 429.748 365.5
 L 429.5 365.443
 L 428.5 365.16
 L 427.5 364.726
 L 426.748 364.5
 L 426.5 364.438
 L 425.5 364.289
 L 424.5 364.443
 L 424.314 364.5
 L 423.5 364.796
 L 422.5 365.212
 L 421.751 365.5
 L 421.5 365.626
 L 420.5 366.021
 L 419.5 366.271
 L 418.5 366.443
 L 417.5 366.673
 L 416.5 366.688
 L 415.5 366.688
 L 414.5 366.673
 L 413.748 366.5
 L 413.5 366.45
 L 411.5 366.203
 L 410.5 366.103
 L 409.5 366.103
 L 408.5 366.125
 L 407.5 366.25
 L 406.5 366.408
 L 406.064 366.5
 L 405.5 366.625
 L 404.5 366.903
 L 402.965 367.5
 L 402.5 367.717
 L 401.5 368.203
 L 400.822 368.5
 L 400.5 368.661
 L 399.5 369.117
 L 398.5 369.453
 L 398.351 369.5
 L 397.5 369.855
 L 396.5 370.058
 L 395.5 370.271
 L 394.5 370.375
 L 392.755 370.5
 L 392.5 370.528
 L 390.5 370.528
 L 389.5 370.626
 L 387.5 370.657
 L 385.5 370.907
 L 384.5 371.084
 L 382.628 371.5
 L 381.5 371.876
 L 380.5 372.157
 L 379.128 372.5
 L 378.5 372.709
 L 377.5 373.032
 L 376.5 373.282
 L 375.5 373.407
 L 374.5 373.394
 L 373.5 373.043
 L 373.035 372.5
 L 372.5 371.965
 L 372.093 371.5
 L 371.5 370.907
 L 371.138 370.5
 L 370.5 369.862
 L 370.035 369.5
 L 369.5 369.126
 L 368.5 368.526
 L 367.5 368.126
 L 366.5 367.862
 L 365.5 367.751
 L 364.5 367.657
 L 363.5 367.751
 L 362.5 367.782
 L 361.5 367.907
 L 360.5 368.157
 L 359.5 368.532
 L 358.5 368.822
 L 357.5 369.251
 L 356.5 369.822
 L 355.5 370.536
 L 354.5 371.209
 L 354.151 371.5
 L 353.5 372.151
 L 352.5 373.351
 L 352.394 373.5
 L 351.5 375.064
 L 350.551 376.5
 L 350.5 376.564
 L 349.5 377.064
 L 348.5 376.951
 L 347.5 376.709
 L 346.872 376.5
 L 346.5 376.394
 L 345.5 376.376
 L 344.755 376.5
 L 344.5 376.536
 L 343.5 376.876
 L 342.564 377.5
 L 341.314 378.5
 L 340.5 379.314
 L 340.252 379.5
 L 339.5 379.951
 L 338.5 380.351
 L 337.5 380.551
 L 336.5 380.709
 L 335.5 380.876
 L 334.5 381.032
 L 332.628 381.5
 L 332.5 381.564
 L 331.564 382.5
 L 331.5 382.628
 L 330.918 383.5
 L 331.064 384.5
 L 331.314 385.5
 L 331.5 385.748
 L 333.252 387.5
 L 333.5 387.686
 L 334.5 387.936
 L 335.5 388.082
 L 338.5 387.082
 L 339.5 386.872
 L 340.5 387.082
 L 341.755 387.5
 L 342.5 387.872
 L 343.5 388.415
 L 343.755 388.5
 L 345.5 388.936
 L 346.5 388.936
 L 347.5 388.748
 L 349.5 388.748
 L 350.5 388.936
 L 351.5 388.936
 L 352.5 389.186
 L 353.5 389.686
 L 362.5 391.936
 L 363.5 391.748
 L 364.5 391.686
 L 365.245 391.5
 L 365.5 391.415
 L 366.5 391.372
 L 367.5 390.748
 L 368.245 390.5
 L 368.5 390.436
 L 368.755 390.5
 L 369.5 390.748
 L 370.5 390.415
 L 371.5 390.415
 L 373.5 391.082
 L 374.5 391.372
 L 375.5 391.415
 L 375.755 391.5
 L 376.5 391.872
 L 378.5 391.872
 L 379.5 392.245
 L 380.5 391.872
 L 381.5 391.372
 L 381.755 391.5
 L 382.755 392.5
 L 382.755 394.5
 L 382.5 394.755
 L 382.128 395.5
 L 382.5 396.245
 L 382.755 396.5
 L 382.755 397.5
 L 383.128 398.5
 L 383.628 399.5
 L 383.585 400.5
 L 383.5 400.755
 L 383.128 401.5
 L 383.128 403.5
 L 382.918 404.5
 L 382.918 407.5
 L 381.918 410.5
 L 381.5 411.128
 L 381.128 411.5
 L 380.5 412.755
 L 379.755 413.5
 L 379.5 413.628
 L 378.628 414.5
 L 378.5 414.755
 L 377.755 415.5
 L 377.5 415.628
 L 376.5 416.628
 L 375.5 417.252
 L 375.128 417.5
 L 374.5 418.128
 L 372.5 419.128
 L 371.5 420.128
 L 369.5 421.128
 L 369.128 421.5
 L 368.5 421.918
 L 367.5 422.128
 L 366.755 422.5
 L 363.755 423.5
 L 363.5 423.628
 L 362.5 424.252
 L 361.755 424.5
 L 361.5 424.628
 L 360.5 424.628
 L 359.628 425.5
 L 359.5 425.585
 L 358.5 426.128
 L 357.755 426.5
 L 356.5 427.755
 L 355.5 428.128
 L 354.755 428.5
 L 352.5 430.755
 L 352.128 431.5
 L 351.755 432.5
 L 351.5 432.755
 L 350.5 434.755
 L 349.5 435.755
 L 349.128 436.5
 L 348.128 437.5
 L 347.5 438.755
 L 345.755 440.5
 L 345.755 442.5
 L 345.628 443.5
 L 345.128 444.5
 L 345.128 445.5
 L 345.5 446.245
 L 345.755 446.5
 L 345.755 448.5
 L 346.5 449.245
 L 346.628 449.5
 L 347.628 450.5
 L 347.755 451.5
 L 348.755 452.5
 L 349.128 453.5
 L 349.5 454.245
 L 351.5 456.245
 L 351.628 456.5
 L 351.755 457.5
 L 352.755 458.5
 L 352.755 460.5
 L 355.5 463.245
 L 355.628 463.5
 L 355.755 464.5
 L 356.128 465.5
 L 357.128 466.5
 L 357.5 467.245
 L 360.5 470.245
 L 360.628 470.5
 L 362.5 472.372
 L 362.755 472.5
 L 363.755 473.5
 L 365.755 474.5
 L 366.755 475.5
 L 367.5 475.872
 L 368.5 476.872
 L 369.755 477.5
 L 370.755 478.5
 L 371.5 478.872
 L 372.5 479.245
 L 372.755 479.5
 L 375.5 480.872
 L 376.5 481.082
 L 377.5 481.372
 L 379.755 482.5
 L 380.5 483.245
 L 381.5 483.372
 L 382.5 483.872
 L 383.5 484.245
 L 384.5 484.372
 L 385.5 484.872
 L 386.5 484.872
 L 387.5 485.372
 L 389.5 485.372
 L 390.5 485.872
 L 392.5 485.872
 L 393.5 486.245
 L 394.5 486.245
 L 395.5 486.372
 L 401.5 486.372
 L 402.5 486.245
 L 403.5 485.872
 L 407.5 485.872
 L 408.5 485.372
 L 410.5 485.372
 L 411.5 485.245
 L 412.5 484.872
 L 413.5 484.872
 L 414.5 484.372
 L 415.5 484.372
 L 416.5 484.245
 L 417.5 483.872
 L 418.5 483.872
 L 419.5 483.372
 L 420.5 483.372
 L 421.5 482.872
 L 422.5 482.872
 L 423.5 482.372
 L 424.5 482.372
 L 425.5 481.872
 L 426.5 481.872
 L 427.5 481.372
 L 428.5 481.245
 L 429.5 480.872
 L 430.5 480.372
 L 431.5 480.245
 L 432.5 479.872
 L 433.5 479.372
 L 434.5 479.245
 L 435.5 478.872
 L 438.5 477.372
 L 439.5 477.245
 L 440.5 476.872
 L 441.245 476.5
 L 441.5 476.245
 L 442.5 475.872
 L 447.245 473.5
 L 447.5 473.245
 L 448.5 472.872
 L 449.245 472.5
 L 449.5 472.245
 L 450.5 471.872
 L 451.245 471.5
 L 452.245 470.5
 L 452.5 470.372
 L 453.5 470.245
 L 454.5 469.245
 L 455.5 468.872
 L 456.245 468.5
 L 457.245 467.5
 L 457.5 467.372
 L 458.5 467.245
 L 459.5 466.245
 L 460.5 465.872
 L 461.245 465.5
 L 464.5 462.245
 L 466.5 462.245
 L 467.5 461.245
 L 468.5 461.245
 L 469.5 460.245
 L 470.5 459.872
 L 471.245 459.5
 L 472.5 458.245
 L 473.5 458.245
 L 474.5 457.245
 L 475.5 457.245
 L 477.5 455.245
 L 478.5 455.245
 L 479.5 454.245
 L 480.5 454.245
 L 481.5 453.245
 L 482.5 453.245
 L 483.5 452.245
 L 484.5 452.245
 L 485.5 451.245
 L 486.5 451.245
 L 487.5 450.245
 L 488.5 450.245
 L 489.5 449.245
 L 491.5 449.245
 L 492.5 448.245
 L 493.5 448.245
 L 494.5 447.245
 L 497.5 447.245
 L 498.5 446.872
 L 499.245 446.5
 L 499.5 446.245
 L 500.5 446.245
 L 501.5 445.872
 L 502.245 445.5
 L 503.5 444.245
 L 506.5 444.245
 L 507.5 443.245
 L 512 443.245
 L 512 85.0426
 L 511.5 85.0426
 L 510.686 84.5
 L 510.5 84.3936
 L 509.5 83.7092
 L 509.249 83.5
 L 508.5 83.0319
 L 506.5 81.5365
 L 506.457 81.5
 L 503.791 79.5
 L 503.5 79.2508
 L 502.5 78.5365
 L 501.291 77.5
 L 500.5 76.9069
 L 499.5 76.0319
 L 498.791 75.5
 L 497.624 74.5
 L 497.5 74.4069
 L 496.5 73.6793
 L 495.124 72.5
 L 494.124 71.5
 L 491.5 68.3511
 L 490.5 67.3511
 L 488.124 64.5
 L 487.5 63.8759
 L 487.049 63.5
 L 486.049 62.5
 L 485.5 62.0426
 L 483.957 60.5
 L 483.5 59.9511
 L 483.049 59.5
 L 482.5 58.5851
 L 482.436 58.5
 L 481.791 57.5
 L 481.5 57.0638
 L 480.5 55.8138
 L 480.291 55.5
 L 479.5 54.5511
 L 479.436 54.5
 L 478.5 53.5638
 L 477.082 52.5
 L 475.5 50.9185
 L 473.686 48.5
 L 471.686 46.5
 L 469.5 43.5851
 L 469.449 43.5
 L 469.049 42.5
 L 467.249 39.5
 L 466.686 38.5
 L 466.5 38.1277
 L 466.249 37.5
 L 465.624 36.5
 L 465.5 36.3138
 L 464.686 35.5
 L 463.936 34.5
 L 463.5 34.0638
 L 462.5 32.8138
 L 461.186 31.5
 L 460.436 30.5
 L 459.5 29.5638
 L 457.849 27.5
 L 457.249 26.5
 L 456.449 25.5
 L 455.5 23.9185
 L 455.291 23.5
 L 454.649 22.5
 L 453.849 21.5
 L 452.849 20.5
 L 451.649 19.5
 L 451.5 19.3936
 L 450.5 18.7092
 L 450.186 18.5
 L 448.5 17.5426
 L 447.5 16.8759
 L 447.049 16.5
 L 446.5 16.1079
 L 445.5 15.2508
 L 444.5 14.5426
 L 444.449 14.5
 L 443.049 13.5
 L 441.5 12.5365
 L 441.436 12.5
 L 440.5 12.0839
 L 439.5 11.6793
 L 438.5 11.3936
 L 436.5 10.5426
 L 435.5 10.2092
 L 434.5 9.55107
 L 433.5 9.15107
 L 432.5 8.56384
 L 431.5 7.81384
 L 428.872 6.5
 L 428.5 6.25179
 L 427.5 5.56384
 L 424.748 3.5
 L 422.748 1.5
 L 422.082 0.5
 L 422.082 0
 L 335.755 0
 z
 M 441.5 122.449
 L 440.5 122.649
 L 439.5 122.936
 L 438.5 123.082
 L 437.5 123.415
 L 436.5 123.436
 L 435.5 123.436
 L 434.5 123.249
 L 433.5 123.186
 L 432.5 123.049
 L 431.5 123.049
 L 430.5 123.186
 L 429.5 123.436
 L 428.5 123.449
 L 428.245 123.5
 L 427.5 123.624
 L 426.5 123.649
 L 425.5 123.649
 L 424.5 123.849
 L 423.5 123.849
 L 422.5 123.936
 L 421.5 124.049
 L 420.5 124.449
 L 417.5 125.049
 L 416.5 125.124
 L 415.5 125.291
 L 414.5 125.624
 L 413.5 125.849
 L 412.5 125.936
 L 411.5 126.049
 L 410.5 126.049
 L 409.5 125.849
 L 406.5 125.849
 L 405.5 126.049
 L 404.5 126.436
 L 404.245 126.5
 L 403.5 126.649
 L 402.5 126.957
 L 401.5 127.249
 L 400.872 127.5
 L 400.5 127.624
 L 399.5 127.849
 L 398.5 128.249
 L 396.5 128.649
 L 395.5 128.957
 L 394.5 129.249
 L 393.872 129.5
 L 393.5 129.624
 L 392.5 129.849
 L 391.5 129.936
 L 390.5 130.186
 L 389.5 130.249
 L 388.5 130.436
 L 387.5 130.436
 L 387.245 130.5
 L 384.5 131.049
 L 383.5 131.415
 L 382.5 131.436
 L 380.5 131.936
 L 379.5 132.415
 L 379.245 132.5
 L 378.5 132.686
 L 377.5 132.748
 L 376.5 133.082
 L 375.872 133.5
 L 375.5 133.686
 L 374.5 133.748
 L 373.5 134.372
 L 373.245 134.5
 L 372.5 134.748
 L 371.5 134.415
 L 371.245 134.5
 L 369.5 135.372
 L 367.5 135.372
 L 366.5 135.872
 L 365.5 135.372
 L 365.245 135.5
 L 364.5 136.245
 L 363.755 135.5
 L 363.5 135.372
 L 363.245 135.5
 L 362.5 136.245
 L 361.755 135.5
 L 361.5 135.372
 L 361.245 135.5
 L 360.5 136.245
 L 359.5 135.245
 L 358.5 136.245
 L 356.5 136.245
 L 351.245 141.5
 L 351.245 146.5
 L 351.372 147.5
 L 351.372 149.5
 L 351.872 150.5
 L 352.245 151.5
 L 352.082 152.5
 L 352.372 153.5
 L 352.415 154.5
 L 352.5 154.755
 L 353.872 157.5
 L 354.415 158.5
 L 354.5 158.585
 L 355.872 159.5
 L 356.5 160.128
 L 357.245 160.5
 L 357.5 160.585
 L 358.5 161.252
 L 360.5 161.918
 L 361.5 162.314
 L 362.245 162.5
 L 362.5 162.585
 L 363.5 163.064
 L 364.5 163.252
 L 366.5 163.918
 L 367.372 164.5
 L 367.5 164.628
 L 368.5 165.128
 L 368.872 165.5
 L 369.372 166.5
 L 370.372 167.5
 L 370.872 168.5
 L 371.415 169.5
 L 371.748 170.5
 L 372.415 171.5
 L 372.5 171.755
 L 372.936 173.5
 L 373.249 174.5
 L 373.449 175.5
 L 373.849 176.5
 L 374.124 177.5
 L 374.449 178.5
 L 374.5 178.755
 L 374.624 179.5
 L 374.749 180.5
 L 374.791 181.5
 L 374.968 182.5
 L 375.035 183.5
 L 375.218 184.5
 L 375.472 186.5
 L 375.5 186.585
 L 375.892 187.5
 L 376.178 188.5
 L 376.606 189.5
 L 377.124 190.5
 L 377.5 191.064
 L 377.849 191.5
 L 378.5 192.151
 L 379.5 192.951
 L 381.5 193.351
 L 382.5 193.351
 L 383.245 193.5
 L 383.5 193.543
 L 384.5 193.551
 L 385.5 193.814
 L 386.5 194.314
 L 386.748 194.5
 L 387.436 195.5
 L 387.5 195.585
 L 388.049 196.5
 L 388.457 197.5
 L 388.5 197.755
 L 388.749 199.5
 L 388.791 200.5
 L 388.749 201.5
 L 388.624 202.5
 L 388.5 202.748
 L 386.5 205.415
 L 385.5 206.415
 L 383.936 208.5
 L 383.649 209.5
 L 383.5 210.245
 L 383.457 210.5
 L 383.464 211.5
 L 383.5 211.628
 L 383.791 212.5
 L 384.5 213.918
 L 384.849 214.5
 L 385.5 215.314
 L 385.686 215.5
 L 386.5 216.043
 L 387.415 216.5
 L 387.5 216.536
 L 389.5 217.543
 L 390.5 218.064
 L 391.082 218.5
 L 392.5 219.351
 L 393.5 220.151
 L 394.372 220.5
 L 394.5 220.543
 L 395.5 221.064
 L 396.372 221.5
 L 396.5 221.551
 L 397.5 221.918
 L 398.372 222.5
 L 399.5 223.064
 L 401.245 223.5
 L 401.5 223.585
 L 402.5 224.252
 L 403.245 224.5
 L 403.5 224.628
 L 406.372 227.5
 L 406.5 227.585
 L 407.5 228.128
 L 408.5 228.252
 L 409.5 228.128
 L 410.5 227.628
 L 410.628 227.5
 L 411.5 226.918
 L 411.918 226.5
 L 412.5 226.064
 L 413.5 225.585
 L 413.628 225.5
 L 414.5 225.151
 L 416.5 224.751
 L 417.5 224.814
 L 418.5 225.043
 L 419.5 225.351
 L 420.245 225.5
 L 421.5 225.814
 L 422.5 225.951
 L 424.5 225.951
 L 425.5 226.151
 L 426.5 226.376
 L 427.245 226.5
 L 427.5 226.564
 L 428.5 226.951
 L 429.5 227.064
 L 430.5 226.951
 L 431.5 226.751
 L 432.128 226.5
 L 432.5 226.376
 L 433.5 226.209
 L 434.5 225.876
 L 435.5 225.822
 L 436.5 225.543
 L 436.755 225.5
 L 438.5 225.251
 L 439.5 225.032
 L 440.5 224.822
 L 442.5 224.251
 L 443.5 223.822
 L 444.5 223.536
 L 444.585 223.5
 L 445.5 223.157
 L 446.5 222.822
 L 447.5 222.532
 L 447.585 222.5
 L 448.5 222.108
 L 449.5 221.782
 L 450.252 221.5
 L 450.5 221.394
 L 451.5 221.108
 L 452.5 220.709
 L 453.5 220.536
 L 453.628 220.5
 L 454.5 220.151
 L 455.5 219.709
 L 455.918 219.5
 L 456.5 219.151
 L 457.5 218.814
 L 459.252 217.5
 L 459.5 217.128
 L 460.128 216.5
 L 461.128 214.5
 L 461.128 211.5
 L 460.628 210.5
 L 460.628 209.5
 L 460.128 208.5
 L 460.628 207.5
 L 460.628 206.5
 L 460.918 205.5
 L 460.252 204.5
 L 459.918 203.5
 L 459.564 202.5
 L 459.5 202.372
 L 459.151 201.5
 L 459.151 200.5
 L 459.376 199.5
 L 460.376 197.5
 L 460.5 197.376
 L 461.5 196.679
 L 461.751 196.5
 L 462.5 196.084
 L 463.376 195.5
 L 463.5 195.438
 L 464.5 194.855
 L 465.209 194.5
 L 465.5 194.384
 L 466.5 194.233
 L 467.5 194.289
 L 468.5 194.447
 L 468.748 194.5
 L 469.5 194.705
 L 470.5 195.021
 L 471.5 195.25
 L 472.415 195.5
 L 472.5 195.536
 L 474.249 196.5
 L 474.5 196.751
 L 475.436 197.5
 L 475.5 197.564
 L 476.5 198.064
 L 477.5 198.108
 L 478.5 198.032
 L 479.5 197.973
 L 480.5 197.926
 L 481.5 197.926
 L 482.5 197.973
 L 483.5 198.069
 L 484.5 198.226
 L 485.5 198.326
 L 486.5 198.407
 L 487.5 198.407
 L 488.5 198.282
 L 489.5 198.108
 L 490.5 197.822
 L 491.252 197.5
 L 491.5 197.376
 L 492.5 197.151
 L 493.5 196.564
 L 493.628 196.5
 L 495.128 195.5
 L 494.755 194.5
 L 494.5 194.372
 L 491.628 191.5
 L 491.585 190.5
 L 491.5 190.245
 L 491.128 189.5
 L 490.551 188.5
 L 490.5 188.457
 L 489.5 187.686
 L 488.314 186.5
 L 487.064 185.5
 L 486.5 185.124
 L 485.876 184.5
 L 485.5 184.178
 L 484.551 183.5
 L 484.5 183.468
 L 483.5 183.035
 L 482.751 182.5
 L 482.5 182.343
 L 481.5 181.791
 L 479.564 180.5
 L 479.5 180.464
 L 478.5 179.749
 L 478.209 179.5
 L 477.5 178.968
 L 476.751 178.5
 L 476.5 178.361
 L 475.5 177.843
 L 474.585 177.5
 L 474.5 177.464
 L 473.5 177.124
 L 472.5 176.936
 L 471.5 177.082
 L 470.872 177.5
 L 470.372 178.5
 L 469.5 179.372
 L 468.5 179.249
 L 467.5 179.035
 L 466.5 178.843
 L 465.5 178.468
 L 464.5 178.027
 L 463.5 177.568
 L 463.314 177.5
 L 462.5 177.138
 L 461.5 176.812
 L 460.5 176.557
 L 460.252 176.5
 L 458.5 176.019
 L 456.814 175.5
 L 456.5 175.374
 L 455.5 174.895
 L 454.709 174.5
 L 454.5 174.343
 L 453.151 173.5
 L 452.151 172.5
 L 451.585 171.5
 L 452.252 170.5
 L 452.585 169.5
 L 452.5 169.372
 L 452.064 168.5
 L 451.5 168.049
 L 450.585 167.5
 L 450.5 167.464
 L 449.5 167.124
 L 448.5 166.649
 L 448.128 166.5
 L 447.5 166.321
 L 446.5 165.892
 L 445.5 165.624
 L 445.252 165.5
 L 444.5 165.178
 L 443.5 164.957
 L 442.5 164.606
 L 442.252 164.5
 L 441.5 164.124
 L 440.5 163.749
 L 439.628 163.5
 L 438.5 163.049
 L 437.5 162.624
 L 436.755 162.5
 L 436.5 162.436
 L 435.5 161.936
 L 433.755 161.5
 L 432.5 160.872
 L 431.5 160.748
 L 430.755 160.5
 L 430.5 160.245
 L 429.5 159.748
 L 428.755 159.5
 L 427.755 158.5
 L 427.755 157.5
 L 427.5 157.245
 L 427.128 156.5
 L 427.128 155.5
 L 427.5 154.755
 L 428.5 154.755
 L 429.128 153.5
 L 429.5 153.128
 L 430.5 152.628
 L 430.628 152.5
 L 431.128 151.5
 L 432.128 150.5
 L 435.128 148.5
 L 436.5 147.814
 L 436.918 147.5
 L 437.5 147.151
 L 438.5 146.564
 L 438.628 146.5
 L 439.5 146.151
 L 440.5 145.551
 L 440.628 145.5
 L 441.5 145.209
 L 442.5 144.951
 L 443.5 144.564
 L 443.755 144.5
 L 444.5 144.351
 L 445.5 144.064
 L 446.628 143.5
 L 447.5 143.209
 L 448.5 143.043
 L 449.5 142.822
 L 450.5 142.543
 L 450.628 142.5
 L 451.5 142.282
 L 452.5 142.108
 L 454.5 141.822
 L 455.5 141.657
 L 456.755 141.5
 L 457.5 141.417
 L 458.5 141.407
 L 459.5 141.407
 L 460.5 141.306
 L 461.5 141.407
 L 462.5 141.394
 L 463.5 141.536
 L 464.5 141.394
 L 465.5 141.376
 L 467.5 141.376
 L 468.5 141.351
 L 469.5 141.209
 L 470.5 141.043
 L 471.5 140.751
 L 472.755 140.5
 L 473.5 140.314
 L 474.5 139.951
 L 475.5 139.814
 L 476.5 139.814
 L 477.5 139.628
 L 478.5 139.628
 L 478.755 139.5
 L 479.5 139.252
 L 480.5 139.128
 L 481.755 138.5
 L 482.5 137.755
 L 483.5 137.755
 L 483.755 137.5
 L 483.628 136.5
 L 482.628 134.5
 L 482.5 134.415
 L 481.5 133.872
 L 481.128 133.5
 L 479.628 132.5
 L 479.5 132.449
 L 478.5 131.936
 L 477.918 131.5
 L 477.5 131.249
 L 476.5 130.849
 L 475.918 130.5
 L 475.5 130.291
 L 474.5 130.035
 L 473.5 129.624
 L 472.755 129.5
 L 472.5 129.464
 L 471.5 129.093
 L 470.5 128.892
 L 468.5 128.892
 L 467.5 128.791
 L 466.5 128.649
 L 465.5 128.449
 L 464.5 128.049
 L 463.5 127.686
 L 463.128 127.5
 L 462.5 127.249
 L 461.5 126.936
 L 460.628 126.5
 L 460.5 126.449
 L 459.5 126.186
 L 458.5 125.436
 L 457.5 124.849
 L 456.5 124.449
 L 455.5 123.849
 L 454.5 123.649
 L 454.128 123.5
 L 453.5 123.291
 L 452.5 123.049
 L 451.5 122.686
 L 450.5 122.649
 L 449.5 122.449
 z
 M 410.5 186.314
 L 409.5 186.814
 L 408.814 187.5
 L 408.064 188.5
 L 407.5 189.628
 L 407.151 190.5
 L 407.151 191.5
 L 407.252 192.5
 L 407.314 193.5
 L 407.5 194.245
 L 407.585 194.5
 L 407.585 195.5
 L 407.5 195.755
 L 407.064 197.5
 L 407.064 198.5
 L 407.252 199.5
 L 407.5 199.872
 L 408.5 200.436
 L 408.628 200.5
 L 409.5 200.849
 L 410.5 200.936
 L 411.5 200.936
 L 414.5 201.686
 L 416.128 202.5
 L 417.5 203.049
 L 418.5 203.124
 L 419.5 203.124
 L 420.5 203.035
 L 421.5 202.791
 L 422.5 202.649
 L 423.245 202.5
 L 424.5 202.186
 L 425.5 202.082
 L 426.5 201.936
 L 427.5 201.748
 L 427.872 201.5
 L 427.872 200.5
 L 427.5 200.252
 L 426.5 199.628
 L 426.245 199.5
 L 425.5 199.314
 L 424.5 198.585
 L 423.415 197.5
 L 422.686 196.5
 L 421.936 195.5
 L 421.686 194.5
 L 421.686 193.5
 L 421.436 192.5
 L 421.415 191.5
 L 421.186 190.5
 L 420.748 189.5
 L 420.082 188.5
 L 419.082 187.5
 L 418.5 187.151
 L 416.5 186.351
 L 415.5 186.043
 L 414.5 185.876
 L 413.5 185.751
 L 412.5 185.751
 L 411.5 185.951
 z
"/>
</svg>
